<svg width="46" height="39" viewBox="0 0 46 39" fill="none" xmlns="http://www.w3.org/2000/svg">
<path d="M23.7832 0.0124558C23.5881 -0.00485674 23.3902 -0.00463799 23.1914 0.016362C22.3944 0.103362 21.6797 0.495878 21.1777 1.11988C20.1407 2.40888 20.3467 4.30163 21.6367 5.33863L24.9375 7.99292H7.96093C6.30693 7.99292 4.96093 9.33892 4.96093 10.9929C4.96093 12.6469 6.30693 13.9929 7.96093 13.9929H15.3965L1.15624 25.5027C0.509245 26.0257 0.105573 26.7694 0.0175726 27.5964C-0.0694274 28.4234 0.168401 29.2365 0.691401 29.8835C1.2144 30.5305 1.95815 30.9342 2.78515 31.0222C3.61215 31.1092 4.42526 30.8714 5.07226 30.3484L11.998 24.7507C12.577 32.6917 19.9639 38.9929 28.9609 38.9929C38.3349 38.9929 45.9609 32.1519 45.9609 23.7429C45.9609 18.5469 43.0518 13.7643 38.1738 10.9363L25.3965 0.662846C24.9277 0.286346 24.3684 0.0643934 23.7832 0.0124558ZM28.9609 14.9929C33.9229 14.9929 37.9609 18.3569 37.9609 22.4929C37.9609 26.6289 33.9229 29.9929 28.9609 29.9929C23.9989 29.9929 19.9609 26.6289 19.9609 22.4929C19.9609 18.3569 23.9989 14.9929 28.9609 14.9929ZM28.9609 16.9929C27.3696 16.9929 25.8435 17.5197 24.7183 18.4574C23.5931 19.3951 22.9609 20.6668 22.9609 21.9929C22.9609 23.319 23.5931 24.5908 24.7183 25.5285C25.8435 26.4661 27.3696 26.9929 28.9609 26.9929C30.5522 26.9929 32.0784 26.4661 33.2036 25.5285C34.3288 24.5908 34.9609 23.319 34.9609 21.9929C34.9609 20.6668 34.3288 19.3951 33.2036 18.4574C32.0784 17.5197 30.5522 16.9929 28.9609 16.9929Z" fill="white"/>
</svg>
