<svg width="22" height="15" viewBox="0 0 22 15" fill="none" xmlns="http://www.w3.org/2000/svg">
<g clip-path="url(#clip0_916_2539)">
<path d="M22 0H-7.62939e-06V15H22V0Z" fill="#009B3A"/>
<path d="M1.87 7.49986L11 13.1784L20.13 7.49986L11 1.82129L1.87 7.49986Z" fill="#FEDF00"/>
<path d="M11 11.25C13.1263 11.25 14.85 9.57107 14.85 7.5C14.85 5.42893 13.1263 3.75 11 3.75C8.87371 3.75 7.15 5.42893 7.15 7.5C7.15 9.57107 8.87371 11.25 11 11.25Z" fill="#002776"/>
<mask id="mask0_916_2539" style="mask-type:luminance" maskUnits="userSpaceOnUse" x="7" y="3" width="8" height="9">
<path d="M11 11.25C13.1263 11.25 14.85 9.57107 14.85 7.5C14.85 5.42893 13.1263 3.75 11 3.75C8.87371 3.75 7.15 5.42893 7.15 7.5C7.15 9.57107 8.87371 11.25 11 11.25Z" fill="white"/>
</mask>
<g mask="url(#mask0_916_2539)">
<path d="M-0.549995 14.9997C-0.549995 12.5844 0.435091 10.2679 2.18856 8.56C3.94202 6.85208 6.32023 5.89258 8.8 5.89258C11.2798 5.89258 13.658 6.85208 15.4115 8.56C17.1649 10.2679 18.15 12.5844 18.15 14.9997H17.6C17.6 12.7264 16.6729 10.5463 15.0225 8.93881C13.3722 7.33135 11.1339 6.42829 8.8 6.42829C6.4661 6.42829 4.22778 7.33135 2.57746 8.93881C0.927144 10.5463 4.53508e-06 12.7264 4.53508e-06 14.9997H-0.549995Z" fill="white"/>
</g>
<path fill-rule="evenodd" clip-rule="evenodd" d="M7.71637 6.40325C7.75981 6.39806 7.79911 6.3744 7.82563 6.33749C7.85216 6.30058 7.86373 6.25343 7.8578 6.20643C7.85188 6.15942 7.82894 6.1164 7.79404 6.08684C7.75913 6.05727 7.71512 6.04358 7.67169 6.04877C7.62825 6.05397 7.58895 6.07762 7.56243 6.11454C7.53591 6.15145 7.52434 6.19859 7.53026 6.2456C7.53619 6.29261 7.55912 6.33563 7.59403 6.36519C7.62893 6.39476 7.67294 6.40845 7.71637 6.40325M7.70808 6.33742C7.73359 6.33437 7.75657 6.31971 7.77197 6.29666C7.78738 6.27361 7.79394 6.24406 7.79021 6.21451C7.78649 6.18496 7.77278 6.15784 7.75211 6.1391C7.73144 6.12037 7.7055 6.11155 7.67999 6.11461C7.65448 6.11766 7.63149 6.13232 7.61609 6.15537C7.60069 6.17842 7.59412 6.20797 7.59785 6.23752C7.60157 6.26706 7.61528 6.29419 7.63595 6.31292C7.65662 6.33166 7.68257 6.34047 7.70808 6.33742" fill="#009B3A"/>
<path fill-rule="evenodd" clip-rule="evenodd" d="M8.01577 6.37147L8.08357 6.36695L8.07384 6.23442L8.21987 6.2247C8.2503 6.22267 8.27862 6.20891 8.29859 6.18645C8.31857 6.16399 8.32856 6.13466 8.32638 6.10491C8.32419 6.07517 8.31001 6.04745 8.28695 6.02786C8.26389 6.00826 8.23383 5.99839 8.2034 6.00041L7.99479 6.0143L8.01577 6.37147ZM8.06897 6.16815L8.20979 6.15878C8.22224 6.15795 8.23382 6.15232 8.242 6.14313C8.25017 6.13394 8.25426 6.12194 8.25336 6.10978C8.25247 6.09761 8.24667 6.08627 8.23723 6.07825C8.2278 6.07023 8.2155 6.0662 8.20305 6.06702L8.06224 6.0764L8.06897 6.16815Z" fill="#009B3A"/>
<path d="M8.32606 6.35057C8.32231 6.29958 8.31408 6.18741 8.23582 6.19262L8.1367 6.19922C8.25147 6.19158 8.25971 6.30375 8.26346 6.35474" fill="#009B3A"/>
<path fill-rule="evenodd" clip-rule="evenodd" d="M8.47984 6.34342L8.65267 6.34048C8.67331 6.34013 8.69367 6.33582 8.71259 6.32781C8.73151 6.31979 8.74863 6.30822 8.76297 6.29377C8.7773 6.27931 8.78857 6.26224 8.79614 6.24354C8.8037 6.22484 8.80741 6.20487 8.80705 6.18477L8.80613 6.13376C8.80577 6.11366 8.80135 6.09383 8.79312 6.07539C8.7849 6.05696 8.77302 6.04029 8.75818 6.02632C8.74333 6.01236 8.72581 6.00138 8.70661 5.99402C8.68741 5.98665 8.66691 5.98304 8.64627 5.98339L8.47344 5.98633L8.47984 6.34342ZM8.54674 6.27594L8.64625 6.27425C8.67264 6.2738 8.69777 6.26316 8.7161 6.24467C8.73444 6.22617 8.74448 6.20134 8.74402 6.17563L8.74347 6.14503C8.74301 6.11932 8.73208 6.09485 8.7131 6.07699C8.69411 6.05913 8.66862 6.04935 8.64222 6.0498L8.54272 6.05149L8.54674 6.27594Z" fill="#009B3A"/>
<path d="M8.94541 6.33837L9.27521 6.34959L9.27759 6.2833L9.01061 6.27422L9.0139 6.18244L9.22329 6.18956L9.22549 6.12838L9.01609 6.12125L9.01865 6.04987L9.26992 6.05841L9.2723 5.99213L8.95821 5.98145L8.94541 6.33837Z" fill="#009B3A"/>
<path d="M9.41059 6.35774L9.4732 6.36307L9.49512 6.11911L9.54626 6.3693L9.60366 6.37419L9.69863 6.13645L9.67671 6.38042L9.73933 6.38575L9.77129 6.02997L9.67997 6.02219L9.585 6.25993L9.53386 6.00973L9.44254 6.00195L9.41059 6.35774Z" fill="#009B3A"/>
<path d="M10.1703 6.44179L10.4413 6.48715L10.452 6.42681L10.2429 6.39181L10.2571 6.31136L10.4274 6.33987L10.4381 6.27953L10.2677 6.25102L10.2775 6.19571L10.4801 6.22962L10.4907 6.16928L10.2262 6.125L10.1703 6.44179Z" fill="#009B3A"/>
<path fill-rule="evenodd" clip-rule="evenodd" d="M10.8665 6.57428L10.9325 6.59089L10.9666 6.46246L11.1086 6.49823C11.1382 6.50568 11.1696 6.50138 11.1959 6.48627C11.2222 6.47117 11.2413 6.44649 11.249 6.41766C11.2566 6.38884 11.2522 6.35824 11.2367 6.33259C11.2212 6.30694 11.1959 6.28834 11.1663 6.28089L10.9634 6.22979L10.8665 6.57428ZM10.9836 6.39825L11.1205 6.43274C11.1326 6.43579 11.1455 6.43403 11.1563 6.42785C11.167 6.42167 11.1749 6.41157 11.178 6.39978C11.1811 6.38799 11.1793 6.37547 11.173 6.36498C11.1666 6.35448 11.1563 6.34688 11.1442 6.34383L11.0072 6.30934L10.9836 6.39825Z" fill="#009B3A"/>
<path fill-rule="evenodd" clip-rule="evenodd" d="M11.3164 6.69281L11.381 6.71243L11.4226 6.58531L11.5617 6.62755C11.5907 6.63635 11.6222 6.63346 11.6493 6.61952C11.6764 6.60557 11.6969 6.58171 11.7062 6.55318C11.7155 6.52466 11.713 6.4938 11.6991 6.46741C11.6852 6.44101 11.6611 6.42124 11.6321 6.41244L11.4334 6.35209L11.3164 6.69281ZM11.4434 6.52176L11.5775 6.56249C11.5894 6.56609 11.6023 6.56491 11.6134 6.5592C11.6244 6.55349 11.6328 6.54373 11.6366 6.53206C11.6405 6.52039 11.6394 6.50777 11.6337 6.49697C11.628 6.48618 11.6182 6.47809 11.6063 6.47449L11.4722 6.43375L11.4434 6.52176Z" fill="#009B3A"/>
<path d="M11.6128 6.78307C11.6288 6.73415 11.6641 6.62652 11.5895 6.60388L11.495 6.5752C11.6044 6.60841 11.5692 6.71603 11.5532 6.76495" fill="#009B3A"/>
<path fill-rule="evenodd" clip-rule="evenodd" d="M11.9139 6.88788C11.9549 6.90281 12.001 6.8995 12.042 6.87869C12.083 6.85787 12.1156 6.82126 12.1327 6.7769C12.1497 6.73254 12.1498 6.68407 12.1328 6.64214C12.1159 6.60022 12.0833 6.56828 12.0423 6.55335C12.0013 6.53843 11.9553 6.54173 11.9142 6.56255C11.8732 6.58336 11.8406 6.61997 11.8236 6.66433C11.8065 6.70869 11.8065 6.75717 11.8234 6.79909C11.8404 6.84101 11.8729 6.87295 11.9139 6.88788M11.9378 6.82575C11.9618 6.83452 11.9892 6.83185 12.0138 6.81833C12.0384 6.80482 12.0582 6.78156 12.0689 6.75367C12.0796 6.72579 12.0803 6.69556 12.0708 6.66965C12.0614 6.64373 12.0426 6.62425 12.0185 6.61548C11.9944 6.60671 11.9671 6.60938 11.9425 6.6229C11.9179 6.63642 11.8981 6.65968 11.8874 6.68756C11.8767 6.71545 11.876 6.74567 11.8854 6.77159C11.8949 6.7975 11.9137 6.81699 11.9378 6.82575" fill="#009B3A"/>
<mask id="mask1_916_2539" style="mask-type:luminance" maskUnits="userSpaceOnUse" x="12" y="6" width="1" height="2">
<path d="M12.1942 6.99476L12.3428 6.66504L12.6431 6.79098L12.4945 7.1207L12.1942 6.99476ZM12.4441 6.83635L12.4186 6.89287L12.5688 6.95584L12.5942 6.89932L12.4441 6.83635Z" fill="white"/>
</mask>
<g mask="url(#mask1_916_2539)">
<path fill-rule="evenodd" clip-rule="evenodd" d="M12.3444 7.05769C12.3842 7.07441 12.4303 7.07308 12.4724 7.054C12.5144 7.03491 12.5491 6.99963 12.5688 6.95593C12.5885 6.91222 12.5916 6.86366 12.5773 6.82093C12.5631 6.7782 12.5327 6.7448 12.4929 6.72808C12.453 6.71136 12.407 6.71269 12.3649 6.73177C12.3228 6.75086 12.2881 6.78613 12.2685 6.82984C12.2488 6.87355 12.2457 6.92211 12.26 6.96484C12.2742 7.00757 12.3046 7.04097 12.3444 7.05769M12.372 6.99648C12.3954 7.0063 12.4227 7.0048 12.448 6.99231C12.4733 6.97983 12.4945 6.95738 12.5069 6.92991C12.5192 6.90243 12.5218 6.87218 12.514 6.84581C12.5062 6.81944 12.4887 6.79911 12.4653 6.78929C12.4419 6.77947 12.4146 6.78097 12.3893 6.79345C12.364 6.80594 12.3428 6.82839 12.3304 6.85586C12.3181 6.88333 12.3155 6.91358 12.3233 6.93995C12.3311 6.96633 12.3486 6.98666 12.372 6.99648" fill="#009B3A"/>
</g>
<path d="M12.57 6.95678L12.443 6.90332L12.4218 6.95056L12.5487 7.00402L12.57 6.95678Z" fill="#009B3A"/>
<path d="M12.57 6.95752L12.5224 6.9375L12.4488 7.10158L12.4963 7.12161L12.57 6.95752Z" fill="#009B3A"/>
<path fill-rule="evenodd" clip-rule="evenodd" d="M12.6198 7.17861L12.6804 7.20788L12.7418 7.08858L12.8723 7.15163C12.8995 7.16477 12.931 7.16673 12.96 7.15709C12.989 7.14745 13.013 7.12699 13.0268 7.10022C13.0405 7.07345 13.0429 7.04256 13.0335 7.01434C13.024 6.98611 13.0034 6.96288 12.9762 6.94974L12.7897 6.85967L12.6198 7.17861ZM12.7725 7.02893L12.8983 7.08973C12.9094 7.0951 12.9223 7.09591 12.9342 7.09196C12.946 7.08802 12.9559 7.07965 12.9615 7.0687C12.9671 7.05775 12.9681 7.04511 12.9642 7.03356C12.9604 7.02202 12.9519 7.01251 12.9408 7.00714L12.815 6.94634L12.7725 7.02893Z" fill="#009B3A"/>
<path d="M12.8979 7.31238C12.9215 7.26647 12.9735 7.16547 12.9035 7.13167L12.8149 7.08887C12.9175 7.13843 12.8655 7.23943 12.8419 7.28534" fill="#009B3A"/>
<path d="M13.0349 7.38311L13.3221 7.54139L13.3556 7.48366L13.1231 7.35553L13.1695 7.2756L13.3519 7.37609L13.3828 7.3228L13.2005 7.22231L13.2366 7.16014L13.4554 7.28074L13.4889 7.22301L13.2154 7.07227L13.0349 7.38311Z" fill="#009B3A"/>
<path d="M13.5698 7.55737C13.5501 7.58749 13.5701 7.62105 13.6143 7.64847C13.6584 7.67588 13.6885 7.67489 13.7012 7.65555C13.7413 7.59424 13.5095 7.50481 13.581 7.39792C13.6426 7.30609 13.748 7.37755 13.7877 7.40222C13.8275 7.4269 13.8914 7.49071 13.8417 7.56425L13.7743 7.52245C13.7954 7.49017 13.7722 7.45915 13.7369 7.43722C13.7027 7.41598 13.6749 7.40628 13.6544 7.43747C13.6203 7.48735 13.8475 7.58147 13.7779 7.68797C13.7265 7.7665 13.6371 7.73222 13.5775 7.69521C13.5267 7.66369 13.4508 7.58936 13.5002 7.51419L13.5698 7.55737Z" fill="#009B3A"/>
<path d="M13.9632 7.81052C13.9419 7.8396 13.96 7.87413 14.0027 7.90376C14.0453 7.93339 14.0754 7.93393 14.0891 7.91527C14.1325 7.85608 13.9057 7.75496 13.9829 7.65186C14.0493 7.56329 14.1508 7.64003 14.1891 7.6667C14.2275 7.69336 14.2878 7.76035 14.2343 7.83126L14.1693 7.78607C14.1921 7.75492 14.1706 7.72276 14.1365 7.69906C14.1034 7.6761 14.0762 7.66499 14.0541 7.69511C14.0173 7.74317 14.2392 7.84875 14.1639 7.95155C14.1084 8.02736 14.021 7.98856 13.9634 7.94857C13.9144 7.91449 13.8426 7.8364 13.896 7.76386L13.9632 7.81052Z" fill="#009B3A"/>
<path fill-rule="evenodd" clip-rule="evenodd" d="M14.3352 8.22135C14.3694 8.24788 14.4143 8.2586 14.4599 8.25116C14.5055 8.24371 14.5482 8.21871 14.5784 8.18164C14.6087 8.14458 14.6241 8.09849 14.6213 8.05352C14.6185 8.00855 14.5977 7.96838 14.5634 7.94184C14.5292 7.91531 14.4843 7.90459 14.4387 7.91203C14.3931 7.91948 14.3505 7.94448 14.3202 7.98155C14.2899 8.01861 14.2745 8.0647 14.2773 8.10967C14.2801 8.15464 14.3009 8.19481 14.3352 8.22135M14.3776 8.16944C14.3977 8.18502 14.4245 8.19071 14.4522 8.18526C14.4799 8.1798 14.5061 8.16365 14.5252 8.14035C14.5442 8.11706 14.5544 8.08852 14.5537 8.06103C14.5529 8.03354 14.5412 8.00934 14.5211 7.99375C14.5009 7.97817 14.4741 7.97248 14.4464 7.97793C14.4187 7.98339 14.3925 7.99954 14.3735 8.02284C14.3544 8.04614 14.3442 8.07467 14.345 8.10216C14.3457 8.12966 14.3575 8.15386 14.3776 8.16944" fill="#009B3A"/>
<path d="M7.85714 6.66602L7.80615 6.81886L7.88461 6.8437" fill="white"/>
<path d="M7.85714 6.66602L7.90813 6.81886L7.82967 6.8437" fill="white"/>
<path d="M8.01355 6.77734L7.84907 6.77636L7.84958 6.85572" fill="white"/>
<path d="M8.01407 6.77734L7.88105 6.8713L7.83209 6.80579" fill="white"/>
<path d="M7.70022 6.77734L7.83323 6.8713L7.8822 6.80579" fill="white"/>
<path d="M7.70074 6.77832L7.86522 6.77733L7.8647 6.8567" fill="white"/>
<path d="M7.95409 6.95703L7.9027 6.8039L7.82464 6.82845" fill="white"/>
<path d="M7.95438 6.95703L7.82061 6.86225L7.86881 6.79756" fill="white"/>
<path d="M7.75987 6.95703L7.89365 6.86225L7.84545 6.79756" fill="white"/>
<path d="M7.76016 6.95703L7.81156 6.8039L7.88961 6.82845" fill="white"/>
<path d="M8.19762 8.24219L8.14663 8.39504L8.22509 8.41987" fill="white"/>
<path d="M8.19762 8.24219L8.2486 8.39504L8.17014 8.41987" fill="white"/>
<path d="M8.35403 8.35352L8.18954 8.35253L8.19006 8.4319" fill="white"/>
<path d="M8.35455 8.35352L8.22153 8.44748L8.17257 8.38196" fill="white"/>
<path d="M8.0407 8.35352L8.17371 8.44748L8.22268 8.38196" fill="white"/>
<path d="M8.04121 8.35449L8.2057 8.3535L8.20518 8.43287" fill="white"/>
<path d="M8.29457 8.5332L8.24318 8.38007L8.16512 8.40462" fill="white"/>
<path d="M8.29486 8.5332L8.16108 8.43843L8.20929 8.37373" fill="white"/>
<path d="M8.10035 8.5332L8.23413 8.43843L8.18592 8.37373" fill="white"/>
<path d="M8.10064 8.5332L8.15203 8.38007L8.23009 8.40462" fill="white"/>
<path d="M7.7262 8.60547L7.68371 8.73284L7.74909 8.75354" fill="white"/>
<path d="M7.7262 8.60547L7.76869 8.73284L7.7033 8.75354" fill="white"/>
<path d="M7.85654 8.69922L7.71947 8.6984L7.7199 8.76454" fill="white"/>
<path d="M7.85696 8.69824L7.74612 8.77654L7.70531 8.72195" fill="white"/>
<path d="M7.59542 8.69824L7.70627 8.77654L7.74707 8.72195" fill="white"/>
<path d="M7.59586 8.69922L7.73292 8.6984L7.73249 8.76454" fill="white"/>
<path d="M7.80701 8.84863L7.76419 8.72103L7.69914 8.74148" fill="white"/>
<path d="M7.80725 8.84766L7.69577 8.76867L7.73594 8.71476" fill="white"/>
<path d="M7.64513 8.84766L7.75661 8.76867L7.71645 8.71476" fill="white"/>
<path d="M7.64538 8.84766L7.68821 8.72005L7.75325 8.74051" fill="white"/>
<path d="M8.57476 8.09668L8.55048 8.16946L8.58784 8.18129" fill="white"/>
<path d="M8.57476 8.09668L8.59904 8.16946L8.56168 8.18129" fill="white"/>
<path d="M8.64924 8.15039L8.57091 8.14992L8.57116 8.18771" fill="white"/>
<path d="M8.64948 8.15039L8.58614 8.19513L8.56283 8.16394" fill="white"/>
<path d="M8.50003 8.15039L8.56337 8.19513L8.58669 8.16394" fill="white"/>
<path d="M8.50028 8.15039L8.57861 8.14992L8.57836 8.18771" fill="white"/>
<path d="M8.62094 8.23535L8.59647 8.16243L8.5593 8.17412" fill="white"/>
<path d="M8.62108 8.23535L8.55738 8.19022L8.58033 8.15941" fill="white"/>
<path d="M8.52843 8.23535L8.59214 8.19022L8.56918 8.15941" fill="white"/>
<path d="M8.52857 8.23535L8.55305 8.16243L8.59021 8.17412" fill="white"/>
<path d="M8.99905 8.6416L8.95656 8.76898L9.02194 8.78967" fill="white"/>
<path d="M8.99905 8.6416L9.04154 8.76898L8.97615 8.78967" fill="white"/>
<path d="M9.12939 8.73535L8.99232 8.73453L8.99275 8.80067" fill="white"/>
<path d="M9.12981 8.73438L9.01897 8.81268L8.97816 8.75808" fill="white"/>
<path d="M8.86827 8.73438L8.97912 8.81268L9.01992 8.75808" fill="white"/>
<path d="M8.86871 8.73535L9.00577 8.73453L9.00534 8.80067" fill="white"/>
<path d="M9.07986 8.88477L9.03704 8.75716L8.97199 8.77762" fill="white"/>
<path d="M9.0801 8.88379L8.96862 8.80481L9.00879 8.75089" fill="white"/>
<path d="M8.91798 8.88379L9.02946 8.80481L8.9893 8.75089" fill="white"/>
<path d="M8.91823 8.88379L8.96106 8.75618L9.0261 8.77664" fill="white"/>
<path d="M8.88381 9.04102L8.84982 9.14291L8.90213 9.15947" fill="white"/>
<path d="M8.88381 9.04102L8.9178 9.14291L8.8655 9.15947" fill="white"/>
<path d="M8.98808 9.11523L8.87843 9.11458L8.87877 9.16749" fill="white"/>
<path d="M8.98843 9.11523L8.89976 9.17787L8.86711 9.1342" fill="white"/>
<path d="M8.7792 9.11523L8.86788 9.17787L8.90052 9.1342" fill="white"/>
<path d="M8.77954 9.11523L8.8892 9.11458L8.88885 9.16749" fill="white"/>
<path d="M8.94846 9.23535L8.9142 9.13327L8.86216 9.14963" fill="white"/>
<path d="M8.94866 9.23535L8.85948 9.17217L8.89161 9.12903" fill="white"/>
<path d="M8.81843 9.23438L8.90761 9.17119L8.87548 9.12806" fill="white"/>
<path d="M8.81862 9.23535L8.85288 9.13327L8.90492 9.14963" fill="white"/>
<path d="M12.1943 6.17578L12.1433 6.32863L12.2218 6.35346" fill="white"/>
<path d="M12.1943 6.17578L12.2453 6.32863L12.1668 6.35346" fill="white"/>
<path d="M12.3507 6.28711L12.1862 6.28612L12.1867 6.36549" fill="white"/>
<path d="M12.3512 6.28711L12.2182 6.38107L12.1692 6.31555" fill="white"/>
<path d="M12.0374 6.28711L12.1704 6.38107L12.2193 6.31555" fill="white"/>
<path d="M12.0379 6.28809L12.2024 6.2871L12.2018 6.36647" fill="white"/>
<path d="M12.2912 6.4668L12.2398 6.31367L12.1618 6.33822" fill="white"/>
<path d="M12.2915 6.4668L12.1577 6.37202L12.206 6.30732" fill="white"/>
<path d="M12.097 6.4668L12.2308 6.37202L12.1826 6.30732" fill="white"/>
<path d="M12.0973 6.4668L12.1487 6.31367L12.2268 6.33822" fill="white"/>
<path d="M13.6976 8.65527L13.6466 8.80812L13.7251 8.83295" fill="white"/>
<path d="M13.6976 8.65527L13.7486 8.80812L13.6701 8.83295" fill="white"/>
<path d="M13.854 8.7666L13.6895 8.76561L13.6901 8.84498" fill="white"/>
<path d="M13.8545 8.7666L13.7215 8.86056L13.6726 8.79505" fill="white"/>
<path d="M13.5407 8.7666L13.6737 8.86056L13.7227 8.79505" fill="white"/>
<path d="M13.5412 8.76758L13.7057 8.76659L13.7052 8.84596" fill="white"/>
<path d="M13.7946 8.94629L13.7432 8.79316L13.6651 8.81771" fill="white"/>
<path d="M13.7949 8.94629L13.6611 8.85151L13.7093 8.78681" fill="white"/>
<path d="M13.6003 8.94629L13.7341 8.85151L13.6859 8.78681" fill="white"/>
<path d="M13.6006 8.94629L13.652 8.79316L13.7301 8.81771" fill="white"/>
<path d="M14.2319 8.74512L14.1979 8.84702L14.2502 8.86357" fill="white"/>
<path d="M14.2319 8.74512L14.2659 8.84702L14.2136 8.86357" fill="white"/>
<path d="M14.3362 8.81934L14.2265 8.81868L14.2269 8.87159" fill="white"/>
<path d="M14.3365 8.81934L14.2478 8.88198L14.2152 8.8383" fill="white"/>
<path d="M14.1273 8.81934L14.216 8.88198L14.2486 8.8383" fill="white"/>
<path d="M14.1276 8.81934L14.2373 8.81868L14.2369 8.87159" fill="white"/>
<path d="M14.2966 8.93945L14.2623 8.83737L14.2103 8.85373" fill="white"/>
<path d="M14.2968 8.93945L14.2076 8.87627L14.2397 8.83314" fill="white"/>
<path d="M14.1665 8.93848L14.2557 8.87529L14.2236 8.83216" fill="white"/>
<path d="M14.1667 8.93945L14.201 8.83737L14.253 8.85373" fill="white"/>
<path d="M13.8548 9.01367L13.8123 9.14105L13.8777 9.16174" fill="white"/>
<path d="M13.8548 9.01367L13.8972 9.14105L13.8319 9.16174" fill="white"/>
<path d="M13.9851 9.10742L13.848 9.1066L13.8485 9.17274" fill="white"/>
<path d="M13.9855 9.10645L13.8747 9.18475L13.8339 9.13015" fill="white"/>
<path d="M13.724 9.10645L13.8348 9.18475L13.8756 9.13015" fill="white"/>
<path d="M13.7244 9.10742L13.8615 9.1066L13.8611 9.17274" fill="white"/>
<path d="M13.9356 9.25684L13.8928 9.12923L13.8277 9.14969" fill="white"/>
<path d="M13.9358 9.25586L13.8243 9.17688L13.8645 9.12296" fill="white"/>
<path d="M13.7737 9.25586L13.8852 9.17688L13.845 9.12296" fill="white"/>
<path d="M13.7739 9.25586L13.8168 9.12825L13.8818 9.14871" fill="white"/>
<path d="M12.9276 9.7998L12.8851 9.92718L12.9505 9.94787" fill="white"/>
<path d="M12.9276 9.7998L12.9701 9.92718L12.9047 9.94787" fill="white"/>
<path d="M13.058 9.89355L12.9209 9.89273L12.9213 9.95887" fill="white"/>
<path d="M13.0584 9.89258L12.9475 9.97088L12.9067 9.91628" fill="white"/>
<path d="M12.7968 9.89258L12.9077 9.97088L12.9485 9.91628" fill="white"/>
<path d="M12.7973 9.89355L12.9343 9.89273L12.9339 9.95887" fill="white"/>
<path d="M13.0084 10.043L12.9656 9.91536L12.9006 9.93582" fill="white"/>
<path d="M13.0087 10.042L12.8972 9.96301L12.9374 9.9091" fill="white"/>
<path d="M12.8466 10.042L12.958 9.96301L12.9179 9.9091" fill="white"/>
<path d="M12.8468 10.042L12.8896 9.91438L12.9547 9.93484" fill="white"/>
<path d="M12.9224 10.2041L12.8884 10.306L12.9407 10.3226" fill="white"/>
<path d="M12.9224 10.2041L12.9564 10.306L12.9041 10.3226" fill="white"/>
<path d="M13.0266 10.2783L12.917 10.2777L12.9173 10.3306" fill="white"/>
<path d="M13.027 10.2783L12.9383 10.341L12.9057 10.2973" fill="white"/>
<path d="M12.8178 10.2783L12.9064 10.341L12.9391 10.2973" fill="white"/>
<path d="M12.8181 10.2783L12.9278 10.2777L12.9274 10.3306" fill="white"/>
<path d="M12.987 10.3984L12.9528 10.2964L12.9007 10.3127" fill="white"/>
<path d="M12.9872 10.3984L12.8981 10.3353L12.9302 10.2921" fill="white"/>
<path d="M12.857 10.3975L12.9462 10.3343L12.9141 10.2911" fill="white"/>
<path d="M12.8572 10.3984L12.8915 10.2964L12.9435 10.3127" fill="white"/>
<path d="M13.31 9.53027L13.276 9.63217L13.3283 9.64873" fill="white"/>
<path d="M13.31 9.53027L13.344 9.63217L13.2917 9.64873" fill="white"/>
<path d="M13.4143 9.60449L13.3046 9.60383L13.305 9.65675" fill="white"/>
<path d="M13.4146 9.60449L13.3259 9.66713L13.2933 9.62346" fill="white"/>
<path d="M13.2054 9.60449L13.2941 9.66713L13.3267 9.62346" fill="white"/>
<path d="M13.2057 9.60449L13.3154 9.60383L13.315 9.65675" fill="white"/>
<path d="M13.3746 9.72461L13.3404 9.62252L13.2883 9.63889" fill="white"/>
<path d="M13.3748 9.72461L13.2857 9.66142L13.3178 9.61829" fill="white"/>
<path d="M13.2446 9.72363L13.3338 9.66045L13.3017 9.61732" fill="white"/>
<path d="M13.2448 9.72461L13.2791 9.62252L13.3311 9.63889" fill="white"/>
<path d="M13.619 9.31543L13.5766 9.4428L13.6419 9.4635" fill="white"/>
<path d="M13.619 9.31543L13.6615 9.4428L13.5962 9.4635" fill="white"/>
<path d="M13.7494 9.40918L13.6123 9.40836L13.6128 9.4745" fill="white"/>
<path d="M13.7498 9.4082L13.639 9.4865L13.5982 9.43191" fill="white"/>
<path d="M13.4883 9.4082L13.5991 9.4865L13.6399 9.43191" fill="white"/>
<path d="M13.4887 9.40918L13.6258 9.40836L13.6253 9.4745" fill="white"/>
<path d="M13.6999 9.55859L13.657 9.43099L13.592 9.45145" fill="white"/>
<path d="M13.7001 9.55762L13.5886 9.47864L13.6288 9.42472" fill="white"/>
<path d="M13.538 9.55762L13.6495 9.47864L13.6093 9.42472" fill="white"/>
<path d="M13.5382 9.55762L13.5811 9.43001L13.6461 9.45047" fill="white"/>
<path d="M12.9119 9.45898L12.8779 9.56088L12.9302 9.57744" fill="white"/>
<path d="M12.9119 9.45898L12.9459 9.56088L12.8936 9.57744" fill="white"/>
<path d="M13.0162 9.5332L12.9065 9.53254L12.9069 9.58546" fill="white"/>
<path d="M13.0165 9.5332L12.9278 9.59584L12.8952 9.55217" fill="white"/>
<path d="M12.8073 9.5332L12.896 9.59584L12.9286 9.55217" fill="white"/>
<path d="M12.8076 9.5332L12.9173 9.53254L12.9169 9.58546" fill="white"/>
<path d="M12.9766 9.65332L12.9423 9.55123L12.8903 9.5676" fill="white"/>
<path d="M12.9768 9.65332L12.8876 9.59014L12.9197 9.547" fill="white"/>
<path d="M12.8465 9.65234L12.9357 9.58916L12.9036 9.54603" fill="white"/>
<path d="M12.8467 9.65332L12.881 9.55123L12.933 9.5676" fill="white"/>
<path d="M9.53333 7.51953L9.49084 7.6469L9.55623 7.6676" fill="white"/>
<path d="M9.53333 7.51953L9.57582 7.6469L9.51044 7.6676" fill="white"/>
<path d="M9.66367 7.61328L9.5266 7.61246L9.52704 7.6786" fill="white"/>
<path d="M9.6641 7.6123L9.55325 7.69061L9.51245 7.63601" fill="white"/>
<path d="M9.40256 7.6123L9.5134 7.69061L9.55421 7.63601" fill="white"/>
<path d="M9.40299 7.61328L9.54006 7.61246L9.53963 7.6786" fill="white"/>
<path d="M9.61415 7.7627L9.57132 7.63509L9.50628 7.65555" fill="white"/>
<path d="M9.61439 7.76172L9.50291 7.68274L9.54308 7.62882" fill="white"/>
<path d="M9.45227 7.76172L9.56375 7.68274L9.52358 7.62882" fill="white"/>
<path d="M9.45251 7.76172L9.49534 7.63411L9.56039 7.65457" fill="white"/>
<path d="M12.0476 7.2041L12.0136 7.306L12.0659 7.32255" fill="white"/>
<path d="M12.0476 7.2041L12.0816 7.306L12.0293 7.32255" fill="white"/>
<path d="M12.1519 7.27832L12.0422 7.27766L12.0426 7.33057" fill="white"/>
<path d="M12.1522 7.27832L12.0636 7.34096L12.0309 7.29728" fill="white"/>
<path d="M11.943 7.27832L12.0317 7.34096L12.0643 7.29728" fill="white"/>
<path d="M11.9434 7.27832L12.053 7.27766L12.0527 7.33057" fill="white"/>
<path d="M12.1123 7.39844L12.078 7.29635L12.026 7.31272" fill="white"/>
<path d="M12.1125 7.39844L12.0233 7.33525L12.0554 7.29212" fill="white"/>
<path d="M11.9822 7.39746L12.0714 7.33428L12.0393 7.29114" fill="white"/>
<path d="M11.9824 7.39844L12.0167 7.29635L12.0687 7.31272" fill="white"/>
<path d="M11 9.02344L10.949 9.17629L11.0275 9.20112" fill="white"/>
<path d="M11 9.02344L11.051 9.17629L10.9725 9.20112" fill="white"/>
<path d="M11.1564 9.13477L10.9919 9.13378L10.9924 9.21315" fill="white"/>
<path d="M11.1569 9.13477L11.0239 9.22873L10.9749 9.16321" fill="white"/>
<path d="M10.8431 9.13477L10.9761 9.22873L11.0251 9.16321" fill="white"/>
<path d="M10.8436 9.13574L11.0081 9.13475L11.0076 9.21412" fill="white"/>
<path d="M11.097 9.31445L11.0456 9.16132L10.9675 9.18587" fill="white"/>
<path d="M11.0972 9.31445L10.9635 9.21968L11.0117 9.15498" fill="white"/>
<path d="M10.9027 9.31445L11.0365 9.21968L10.9883 9.15498" fill="white"/>
<path d="M10.903 9.31445L10.9544 9.16132L11.0325 9.18587" fill="white"/>
<path d="M11.4452 8.30469L11.4028 8.43206L11.4681 8.45275" fill="white"/>
<path d="M11.4452 8.30469L11.4877 8.43206L11.4223 8.45275" fill="white"/>
<path d="M11.5756 8.39844L11.4385 8.39761L11.4389 8.46375" fill="white"/>
<path d="M11.576 8.39746L11.4652 8.47576L11.4244 8.42117" fill="white"/>
<path d="M11.3145 8.39746L11.4253 8.47576L11.4661 8.42117" fill="white"/>
<path d="M11.3149 8.39844L11.452 8.39761L11.4515 8.46375" fill="white"/>
<path d="M11.5261 8.54785L11.4832 8.42024L11.4182 8.4407" fill="white"/>
<path d="M11.5263 8.54688L11.4148 8.46789L11.455 8.41398" fill="white"/>
<path d="M11.3642 8.54688L11.4757 8.46789L11.4355 8.41398" fill="white"/>
<path d="M11.3644 8.54688L11.4073 8.41927L11.4723 8.43973" fill="white"/>
<path d="M11 7.96777L10.9575 8.09515L11.0229 8.11584" fill="white"/>
<path d="M11 7.96777L11.0425 8.09515L10.9771 8.11584" fill="white"/>
<path d="M11.1303 8.06152L10.9933 8.0607L10.9937 8.12684" fill="white"/>
<path d="M11.1308 8.06055L11.0199 8.13885L10.9791 8.08425" fill="white"/>
<path d="M10.8692 8.06055L10.9801 8.13885L11.0209 8.08425" fill="white"/>
<path d="M10.8697 8.06152L11.0067 8.0607L11.0063 8.12684" fill="white"/>
<path d="M11.0808 8.21094L11.038 8.08333L10.9729 8.10379" fill="white"/>
<path d="M11.0811 8.20996L10.9696 8.13098L11.0097 8.07706" fill="white"/>
<path d="M10.9189 8.20996L11.0304 8.13098L10.9902 8.07706" fill="white"/>
<path d="M10.9192 8.20996L10.962 8.08235L11.0271 8.10281" fill="white"/>
<path d="M10.6124 8.33203L10.5784 8.43393L10.6307 8.45048" fill="white"/>
<path d="M10.6124 8.33203L10.6464 8.43393L10.5941 8.45048" fill="white"/>
<path d="M10.7166 8.40625L10.607 8.40559L10.6073 8.4585" fill="white"/>
<path d="M10.717 8.40625L10.6283 8.46889L10.5957 8.42521" fill="white"/>
<path d="M10.5078 8.40625L10.5964 8.46889L10.6291 8.42521" fill="white"/>
<path d="M10.5081 8.40625L10.6178 8.40559L10.6174 8.4585" fill="white"/>
<path d="M10.677 8.52637L10.6428 8.42428L10.5907 8.44065" fill="white"/>
<path d="M10.6772 8.52637L10.588 8.46318L10.6202 8.42005" fill="white"/>
<path d="M10.547 8.52539L10.6362 8.46221L10.604 8.41907" fill="white"/>
<path d="M10.5472 8.52637L10.5815 8.42428L10.6335 8.44065" fill="white"/>
<path d="M10.8062 8.62207L10.7819 8.69486L10.8193 8.70668" fill="white"/>
<path d="M10.8062 8.62207L10.8305 8.69486L10.7931 8.70668" fill="white"/>
<path d="M10.8807 8.67578L10.8023 8.67531L10.8026 8.71311" fill="white"/>
<path d="M10.8809 8.67578L10.8176 8.72052L10.7943 8.68933" fill="white"/>
<path d="M10.7315 8.67578L10.7948 8.72052L10.8181 8.68933" fill="white"/>
<path d="M10.7317 8.67578L10.81 8.67531L10.8098 8.71311" fill="white"/>
<path d="M10.8524 8.76074L10.8279 8.68782L10.7907 8.69951" fill="white"/>
<path d="M10.8525 8.76074L10.7888 8.71561L10.8118 8.6848" fill="white"/>
<path d="M10.7599 8.76074L10.8236 8.71561L10.8006 8.6848" fill="white"/>
<path d="M10.76 8.76074L10.7845 8.68782L10.8217 8.69951" fill="white"/>
<path d="M12.1524 9.8916L12.1099 10.019L12.1753 10.0397" fill="white"/>
<path d="M12.1524 9.8916L12.1949 10.019L12.1295 10.0397" fill="white"/>
<path d="M12.2827 9.98535L12.1457 9.98453L12.1461 10.0507" fill="white"/>
<path d="M12.2831 9.98438L12.1723 10.0627L12.1315 10.0081" fill="white"/>
<path d="M12.0216 9.98438L12.1325 10.0627L12.1733 10.0081" fill="white"/>
<path d="M12.022 9.98535L12.1591 9.98453L12.1587 10.0507" fill="white"/>
<path d="M12.2332 10.1348L12.1904 10.0072L12.1253 10.0276" fill="white"/>
<path d="M12.2334 10.1338L12.122 10.0548L12.1621 10.0009" fill="white"/>
<path d="M12.0713 10.1338L12.1828 10.0548L12.1426 10.0009" fill="white"/>
<path d="M12.0716 10.1338L12.1144 10.0062L12.1794 10.0266" fill="white"/>
<path d="M12.4824 9.58691L12.4484 9.68881L12.5007 9.70537" fill="white"/>
<path d="M12.4824 9.58691L12.5164 9.68881L12.4641 9.70537" fill="white"/>
<path d="M12.5867 9.66113L12.477 9.66047L12.4773 9.71339" fill="white"/>
<path d="M12.587 9.66113L12.4983 9.72377L12.4657 9.6801" fill="white"/>
<path d="M12.3778 9.66113L12.4664 9.72377L12.4991 9.6801" fill="white"/>
<path d="M12.3781 9.66113L12.4878 9.66047L12.4874 9.71339" fill="white"/>
<path d="M12.547 9.78125L12.5128 9.67916L12.4607 9.69553" fill="white"/>
<path d="M12.5472 9.78125L12.458 9.71806L12.4902 9.67493" fill="white"/>
<path d="M12.417 9.78027L12.5062 9.71709L12.474 9.67396" fill="white"/>
<path d="M12.4172 9.78125L12.4515 9.67916L12.5035 9.69553" fill="white"/>
<path d="M11.8486 9.49512L11.8146 9.59702L11.8669 9.61357" fill="white"/>
<path d="M11.8486 9.49512L11.8826 9.59702L11.8303 9.61357" fill="white"/>
<path d="M11.9528 9.56934L11.8432 9.56868L11.8435 9.62159" fill="white"/>
<path d="M11.9532 9.56934L11.8645 9.63198L11.8319 9.5883" fill="white"/>
<path d="M11.744 9.56934L11.8326 9.63198L11.8653 9.5883" fill="white"/>
<path d="M11.7443 9.56934L11.854 9.56868L11.8536 9.62159" fill="white"/>
<path d="M11.9132 9.68945L11.879 9.58737L11.8269 9.60373" fill="white"/>
<path d="M11.9134 9.68945L11.8242 9.62627L11.8564 9.58314" fill="white"/>
<path d="M11.7832 9.68848L11.8724 9.62529L11.8402 9.58216" fill="white"/>
<path d="M11.7834 9.68945L11.8176 9.58737L11.8697 9.60373" fill="white"/>
<path d="M9.45476 9.3291L9.40377 9.48195L9.48223 9.50678" fill="white"/>
<path d="M9.45476 9.3291L9.50575 9.48195L9.42728 9.50678" fill="white"/>
<path d="M9.61117 9.44043L9.44669 9.43944L9.4472 9.51881" fill="white"/>
<path d="M9.61169 9.44043L9.47867 9.53439L9.42971 9.46887" fill="white"/>
<path d="M9.29784 9.44043L9.43085 9.53439L9.47982 9.46887" fill="white"/>
<path d="M9.29836 9.44141L9.46284 9.44042L9.46232 9.51979" fill="white"/>
<path d="M9.55171 9.62012L9.50032 9.46699L9.42226 9.49154" fill="white"/>
<path d="M9.552 9.62012L9.41822 9.52534L9.46643 9.46064" fill="white"/>
<path d="M9.35749 9.62012L9.49127 9.52534L9.44306 9.46064" fill="white"/>
<path d="M9.35778 9.62012L9.40917 9.46699L9.48723 9.49154" fill="white"/>
<path d="M11 10.3799L10.983 10.4308L11.0092 10.4391" fill="white"/>
<path d="M11 10.3799L11.017 10.4308L10.9908 10.4391" fill="white"/>
<path d="M11.0521 10.417L10.9973 10.4167L10.9975 10.4431" fill="white"/>
<path d="M11.0523 10.417L11.008 10.4483L10.9916 10.4265" fill="white"/>
<path d="M10.9477 10.417L10.992 10.4483L11.0083 10.4265" fill="white"/>
<path d="M10.9479 10.418L11.0027 10.4176L11.0025 10.4441" fill="white"/>
<path d="M11.0323 10.4766L11.0152 10.4255L10.9892 10.4337" fill="white"/>
<path d="M11.0324 10.4766L10.9878 10.445L11.0039 10.4234" fill="white"/>
<path d="M10.9676 10.4775L11.0122 10.4459L10.9961 10.4244" fill="white"/>
<path d="M10.9677 10.4775L10.9848 10.4265L11.0108 10.4347" fill="white"/>
</g>
<defs>
<clipPath id="clip0_916_2539">
<rect width="22" height="15" rx="2" fill="white"/>
</clipPath>
</defs>
</svg>
