<svg width="28" height="32" viewBox="0 0 28 32" fill="none" xmlns="http://www.w3.org/2000/svg">
<path d="M28 0H0L2.47059 28L14 31.2941L25.5294 28L28 0Z" fill="#0277BD"/>
<path d="M14 2.47058V28.7412L23.2235 26.1059L25.2824 2.47058H14Z" fill="#039BE5"/>
<path d="M21.4941 6.58826H14V9.88237H18.0353L17.7882 13.1765H14V16.4706H17.6235L17.3765 20.1765L14 21.3294V24.7883L20.5059 22.6471L21.0824 13.1765L21.4941 6.58826Z" fill="white"/>
<path d="M14.0001 6.58826V9.88237H6.67064L6.42358 6.58826H14.0001ZM10.2118 13.1765L10.3765 16.4706H14.0001V13.1765H10.2118ZM10.5412 18.1177H7.24711L7.49417 22.6471L14.0001 24.7883V21.3294L10.6236 20.1765L10.5412 18.1177Z" fill="#EEEEEE"/>
</svg>
