<svg width="20" height="18" viewBox="0 0 20 18" fill="none" xmlns="http://www.w3.org/2000/svg">
<path fill-rule="evenodd" clip-rule="evenodd" d="M17.4579 1.2102C17.827 1.05089 18.2237 1.37026 18.1468 1.76487L15.3577 16.0822C15.2862 16.4496 14.8511 16.6109 14.5573 16.3791L11.2826 13.7958C10.7267 13.3572 9.93989 13.3671 9.39521 13.8195L7.91699 15.0472C7.79169 15.1512 7.63833 15.1814 7.49824 15.1527L8.20059 11.7814L15.1307 4.33154L6.18062 10.9882C6.06093 10.8524 5.91625 10.7378 5.752 10.6517L2.08848 8.73102C1.71599 8.53573 1.73636 7.99579 2.12251 7.82912L17.4579 1.2102ZM19.1284 1.95609C19.359 0.772232 18.169 -0.185881 17.0616 0.292071L1.72624 6.91099C0.567779 7.41099 0.506663 9.03081 1.62415 9.61668L5.28767 11.5374C5.423 11.6083 5.51846 11.7372 5.54682 11.8874L6.1236 14.9409C6.33579 16.0643 7.6764 16.5469 8.55589 15.8165L10.0341 14.5888C10.2157 14.438 10.4779 14.4347 10.6632 14.5809L13.9379 17.1642C14.8195 17.8597 16.1246 17.3755 16.3393 16.2734L19.1284 1.95609Z" fill="white"/>
</svg>
