<svg width="49" height="49" viewBox="0 0 49 49" fill="none" xmlns="http://www.w3.org/2000/svg">
<path d="M26.93 0.510919C26.5018 1.60136 26.0051 2.95443 25.497 4.39313L24.9375 5.98027H24.241C22.9222 5.98027 20.9125 6.2486 19.7422 6.58544C19.3425 6.69962 19.0057 6.78526 18.9943 6.77384C18.9886 6.76242 18.7888 6.48267 18.5547 6.15154C17.7554 5.00972 15.3005 1.64133 15.2719 1.64133C15.2148 1.64133 14.2386 2.02955 14.0216 2.14373C13.896 2.20653 13.5992 2.34926 13.3651 2.46344C13.131 2.57192 12.68 2.8117 12.366 3.0001C12.052 3.1828 11.521 3.4968 11.1842 3.69662C10.5847 4.05058 9.75691 4.64433 9.23167 5.09535L8.96905 5.32943L9.65414 6.80809C10.0367 7.6245 10.6304 8.90335 10.9787 9.65124L11.6124 11.01L11.1785 11.4496C10.0595 12.5914 8.70643 14.367 8.24969 15.3033C8.15835 15.486 8.067 15.6287 8.03846 15.6287C8.01562 15.6287 7.20492 15.4917 6.24008 15.3204C4.36178 14.9893 1.82692 14.5839 1.80409 14.6125C1.75841 14.6581 1.21604 16.0283 1.00481 16.6278C0.713641 17.4613 0.234074 19.8135 0.0342548 21.4235L0 21.7089L2.90024 22.8222L5.80048 23.9355L5.8119 24.4779C5.83473 25.4541 5.94321 26.653 6.0631 27.2696C6.1259 27.6008 6.21724 28.0746 6.26292 28.3144C6.30859 28.5599 6.41135 28.9767 6.48557 29.245C6.5655 29.5133 6.6283 29.7702 6.6283 29.8159C6.6283 29.8559 6.09735 30.2726 5.44651 30.7351C4.78996 31.1975 3.65955 32.0139 2.92878 32.5506C1.74129 33.4184 1.60427 33.5382 1.63281 33.6524C1.75841 34.1548 2.86598 36.3015 3.60817 37.489C4.03065 38.1512 4.88131 39.373 5.11538 39.647L5.28666 39.8411L6.28575 39.3787C7.26772 38.9162 10.4877 37.4433 10.8302 37.2949L11.0015 37.2149L11.7722 37.9286C12.7371 38.8306 13.2166 39.1903 14.524 39.9896C15.3119 40.4691 15.5631 40.6518 15.5517 40.7318C15.546 40.7888 15.4261 41.5424 15.2833 42.4045C15.0321 43.9232 14.6211 46.675 14.6211 46.8177C14.6211 46.8577 14.7067 46.9205 14.8095 46.9661C16.094 47.4799 17.2416 47.8339 18.8915 48.2221C19.9934 48.4848 21.5919 48.7588 21.649 48.696C21.7518 48.5818 23.1391 44.9337 23.6758 43.3922L23.8927 42.7471H24.7605C26.2563 42.7471 27.3125 42.5986 28.8254 42.1647C29.5219 41.9706 29.6589 41.9478 29.7217 42.0106C29.7617 42.0563 30.5952 43.2209 31.5772 44.6025C32.5592 45.9842 33.3699 47.126 33.3813 47.1317C33.3984 47.1545 33.9008 46.9205 35.4423 46.1611C36.0817 45.8471 36.8296 45.419 37.4119 45.0364C38.2398 44.4884 39.3017 43.7062 39.5871 43.4322C39.6899 43.3408 39.6728 43.2894 39.1247 42.0563C38.8107 41.354 38.2169 40.0581 37.8116 39.1789L37.0694 37.586L37.7374 36.8667C38.6508 35.8961 39.4786 34.7657 40.0496 33.7152C40.1923 33.4412 40.335 33.2071 40.3578 33.1957C40.3807 33.1843 40.9002 33.2585 41.5111 33.3613C44.7025 33.8979 46.5523 34.1891 46.6151 34.1663C46.7407 34.1149 47.6313 31.58 47.8768 30.5866C47.9224 30.3811 47.991 30.1584 48.0195 30.0899C48.0709 29.97 48.4363 27.909 48.4991 27.3781L48.5333 27.1098L48.2593 26.9899C47.9053 26.83 45.5189 25.928 43.8975 25.3342L42.5958 24.8604V23.9697C42.5958 22.9478 42.5387 22.3655 42.3618 21.4121C42.259 20.8468 41.9792 19.6194 41.8765 19.2711C41.8536 19.2026 42.1277 18.98 42.9498 18.3919C44.1887 17.507 46.9176 15.4746 46.9633 15.3946C47.0033 15.3318 46.6151 14.4184 46.1469 13.4878C45.4846 12.1576 44.6283 10.8159 43.7262 9.67979L43.2866 9.126L42.5273 9.45713C41.4768 9.91957 39.7869 10.696 38.6051 11.2669L37.6175 11.7465L36.8524 11.0214C36.0417 10.2564 35.0598 9.49139 34.4032 9.10316C34.0607 8.90335 33.3585 8.44091 33.2157 8.32101C33.1929 8.29818 33.2785 7.61879 33.4041 6.80238C34.0435 2.72606 34.152 2.02955 34.1349 2.01242C34.1235 2.00671 33.7181 1.84686 33.2329 1.65845C32.2052 1.25881 30.9549 0.842048 30.7722 0.842048C30.7037 0.842048 30.5039 0.790666 30.3269 0.733575C29.8702 0.573719 27.5408 0.10557 27.2097 0.0998612C27.1184 0.0998612 27.0613 0.191207 26.93 0.510919ZM25.8966 15.486C27.4723 15.7657 29.1166 16.5365 30.3041 17.5584C31.7085 18.7687 32.9303 20.9782 33.2614 22.9021C33.387 23.6272 33.3756 24.8832 33.2386 25.6882C32.9874 27.144 32.3594 28.6855 31.6115 29.6732C30.2927 31.4259 28.009 32.8018 25.7881 33.1843C25.1373 33.2928 23.8813 33.2928 23.1962 33.1843C21.8945 32.973 20.4216 32.4421 19.5081 31.8541C17.4757 30.541 15.9684 28.2858 15.5003 25.848C15.3633 25.123 15.3633 23.8042 15.5003 23.022C16.0141 20.1161 17.3786 18.1008 19.8449 16.5935C20.4958 16.1939 21.5177 15.7828 22.2999 15.5944C23.4017 15.3318 24.8062 15.2919 25.8966 15.486Z" fill="white"/>
<path d="M23.8413 16.6377C22.6139 16.7804 21.9173 16.9916 20.9011 17.5169C18.9029 18.5502 17.7097 20.0517 17.1045 22.3011C16.8191 23.3516 16.7734 23.677 16.7677 24.5334C16.7677 25.3441 16.859 25.9721 17.0817 26.6515C17.2187 27.074 17.704 28.1302 17.7611 28.1302C17.7782 28.1302 17.9552 28.3699 18.1436 28.6554C18.9886 29.9285 20.1703 30.8762 21.6205 31.4415C24.5093 32.5719 27.5408 31.9781 29.8245 29.8429C30.8521 28.8838 31.6971 27.3537 31.9825 25.9493C32.3765 23.991 32.051 22.1584 30.9949 20.3886C29.8587 18.476 28.3744 17.397 26.0964 16.8318C25.3314 16.6434 24.4294 16.5635 23.8413 16.6377ZM25.811 18.7729C27.5922 19.2182 28.8482 20.263 29.6989 21.9985C30.0871 22.8035 30.1727 23.2203 30.1727 24.3336C30.1727 25.4697 30.0871 25.875 29.6589 26.7543C29.3449 27.4108 29.0195 27.8732 28.5456 28.3471C26.89 29.9742 24.966 30.4481 22.6995 29.7858C21.2265 29.3576 20.0619 28.3414 19.3026 26.8228C18.5775 25.3726 18.509 23.5514 19.1142 22.1641C19.7136 20.8168 20.7641 19.7434 22.1114 19.1097C23.3503 18.5274 24.4408 18.4303 25.811 18.7729Z" fill="white"/>
</svg>
