<svg width="23" height="15" viewBox="0 0 23 15" fill="none" xmlns="http://www.w3.org/2000/svg">
<g clip-path="url(#clip0_916_2525)">
<path d="M21.18 0H1.71464C0.767643 0 0 0.767643 0 1.71464V13.2854C0 14.2323 0.767643 15 1.71464 15H21.18C22.127 15 22.8947 14.2324 22.8947 13.2854V1.71464C22.8947 0.767643 22.127 0 21.18 0Z" fill="#F5F5F5"/>
<path d="M0.0943146 1.15386H22.8003C22.568 0.482353 21.9305 0 21.1801 0H1.71465C0.964134 0 0.326705 0.482353 0.0943146 1.15386Z" fill="#FF4B55"/>
<path d="M22.8947 4.61523H0V5.76905H22.8947V4.61523Z" fill="#FF4B55"/>
<path d="M22.8947 2.30664H0V3.46045H22.8947V2.30664Z" fill="#FF4B55"/>
<path d="M0 7.68293C0 7.90092 0.176763 8.07768 0.394754 8.07768H22.8947V6.92383H0V7.68293Z" fill="#FF4B55"/>
<path d="M22.8947 11.5391H0V12.6929H22.8947V11.5391Z" fill="#FF4B55"/>
<path d="M22.8004 13.8457H0.0943146C0.326705 14.5172 0.964179 14.9996 1.71465 14.9996H21.1801C21.9306 14.9996 22.568 14.5172 22.8004 13.8457Z" fill="#FF4B55"/>
<path d="M22.8947 9.23145H0V10.3853H22.8947V9.23145Z" fill="#FF4B55"/>
<path d="M0.394754 8.07695H10.2632C10.4812 8.07695 10.6579 7.90019 10.6579 7.6822V0.394754C10.6579 0.176718 10.4812 0 10.2632 0H1.71464C0.767643 4.47162e-05 0 0.767688 0 1.71469V7.6822C0 7.90023 0.176763 8.07695 0.394754 8.07695Z" fill="#41479B"/>
<path d="M1.10847 0.906308L1.19585 1.16835L1.47206 1.17045C1.50783 1.17076 1.52264 1.21637 1.49388 1.23761L1.27169 1.40167L1.35504 1.66501C1.36586 1.69908 1.327 1.72734 1.29789 1.7065L1.07319 1.54593L0.848495 1.70655C0.819385 1.72739 0.780616 1.69913 0.791348 1.66505L0.874699 1.40172L0.652504 1.23766C0.623751 1.21637 0.638552 1.17076 0.674325 1.17049L0.950537 1.16839L1.03791 0.906353C1.04918 0.872369 1.09712 0.872369 1.10847 0.906308Z" fill="#F5F5F5"/>
<path d="M1.10847 2.27737L1.19585 2.53941L1.47206 2.54151C1.50783 2.54182 1.52264 2.58739 1.49388 2.60867L1.27169 2.77278L1.35504 3.03611C1.36586 3.07019 1.327 3.09845 1.29789 3.07761L1.07319 2.91703L0.848495 3.07765C0.819385 3.09845 0.780616 3.07023 0.791348 3.03616L0.874699 2.77282L0.652504 2.60872C0.623751 2.58743 0.638552 2.54186 0.674325 2.54155L0.950537 2.53945L1.03791 2.27741C1.04918 2.24347 1.09712 2.24347 1.10847 2.27737Z" fill="#F5F5F5"/>
<path d="M1.10847 3.64752L1.19585 3.90956L1.47206 3.91166C1.50783 3.91197 1.52264 3.95754 1.49388 3.97882L1.27169 4.14293L1.35504 4.40626C1.36586 4.44034 1.327 4.4686 1.29789 4.44776L1.07319 4.28718L0.848495 4.4478C0.819385 4.4686 0.780616 4.44043 0.791348 4.40631L0.874699 4.14297L0.652504 3.97887C0.623751 3.95758 0.638552 3.91202 0.674325 3.9117L0.950537 3.9096L1.03791 3.64756C1.04918 3.61358 1.09712 3.61358 1.10847 3.64752Z" fill="#F5F5F5"/>
<path d="M1.10847 5.01861L1.19585 5.28065L1.47206 5.28275C1.50783 5.28306 1.52264 5.32867 1.49388 5.34992L1.27169 5.51402L1.35504 5.77736C1.36586 5.81143 1.327 5.83969 1.29789 5.81885L1.07319 5.65828L0.848495 5.8189C0.819385 5.83969 0.780616 5.81148 0.791348 5.7774L0.874699 5.51407L0.652504 5.34996C0.623751 5.32876 0.638552 5.28311 0.674325 5.2828L0.950537 5.28069L1.03791 5.01866C1.04918 4.98467 1.09712 4.98467 1.10847 5.01861Z" fill="#F5F5F5"/>
<path d="M1.10847 6.3887L1.19585 6.65073L1.47206 6.65284C1.50783 6.65315 1.52264 6.69871 1.49388 6.72L1.27169 6.88411L1.35504 7.14744C1.36586 7.18151 1.327 7.20978 1.29789 7.18894L1.07319 7.02836L0.848495 7.18898C0.819385 7.20977 0.780616 7.18156 0.791348 7.14749L0.874699 6.88415L0.652504 6.72004C0.623751 6.69876 0.638552 6.65319 0.674325 6.65288L0.950537 6.65078L1.03791 6.38874C1.04918 6.3548 1.09712 6.3548 1.10847 6.3887Z" fill="#F5F5F5"/>
<path d="M2.1724 1.57816L2.25978 1.84019L2.53599 1.84229C2.57176 1.84261 2.58656 1.88822 2.55781 1.90946L2.33562 2.07357L2.41897 2.3369C2.42979 2.37097 2.39093 2.39923 2.36182 2.3784L2.13712 2.21778L1.91242 2.3784C1.88331 2.39919 1.84454 2.37097 1.85527 2.3369L1.93863 2.07357L1.71643 1.90946C1.68768 1.88817 1.70248 1.84261 1.73825 1.84229L2.01446 1.84019L2.10184 1.57816C2.11311 1.54426 2.16109 1.54426 2.1724 1.57816Z" fill="#F5F5F5"/>
<path d="M2.1724 2.94928L2.25978 3.21132L2.53599 3.21342C2.57176 3.21373 2.58656 3.25935 2.55781 3.28059L2.33562 3.44469L2.41897 3.70803C2.42979 3.7421 2.39093 3.77036 2.36182 3.74952L2.13712 3.5889L1.91242 3.74952C1.88331 3.77032 1.84454 3.74215 1.85527 3.70803L1.93863 3.44469L1.71643 3.28059C1.68768 3.25939 1.70248 3.21373 1.73825 3.21342L2.01446 3.21132L2.10184 2.94928C2.11311 2.91534 2.16109 2.91534 2.1724 2.94928Z" fill="#F5F5F5"/>
<path d="M2.1724 4.3194L2.25978 4.58144L2.53599 4.58354C2.57176 4.58385 2.58656 4.62942 2.55781 4.6507L2.33562 4.81481L2.41897 5.07814C2.42979 5.11222 2.39093 5.14048 2.36182 5.11964L2.13712 4.95902L1.91242 5.11964C1.88331 5.14043 1.84454 5.11222 1.85527 5.07814L1.93863 4.81481L1.71643 4.6507C1.68768 4.62942 1.70248 4.58385 1.73825 4.58354L2.01446 4.58144L2.10184 4.3194C2.11311 4.28546 2.16109 4.28546 2.1724 4.3194Z" fill="#F5F5F5"/>
<path d="M2.1724 5.69046L2.25978 5.9525L2.53599 5.9546C2.57176 5.95491 2.58656 6.00048 2.55781 6.02176L2.33562 6.18587L2.41897 6.4492C2.42979 6.48328 2.39093 6.51154 2.36182 6.4907L2.13712 6.33008L1.91242 6.4907C1.88331 6.51154 1.84454 6.48328 1.85527 6.4492L1.93863 6.18587L1.71643 6.02176C1.68768 6.00048 1.70248 5.95491 1.73825 5.9546L2.01446 5.9525L2.10184 5.69046C2.11311 5.65657 2.16109 5.65657 2.1724 5.69046Z" fill="#F5F5F5"/>
<path d="M3.23633 0.906314L3.3237 1.16835L3.59992 1.17045C3.63569 1.17077 3.65049 1.21638 3.62174 1.23762L3.39954 1.40168L3.48289 1.66501C3.49371 1.69909 3.45486 1.72735 3.42575 1.70651L3.20105 1.54589L2.97635 1.70651C2.94724 1.72735 2.90847 1.69909 2.9192 1.66501L3.00255 1.40168L2.78036 1.23762C2.7516 1.21633 2.76641 1.17072 2.80218 1.17045L3.07839 1.16835L3.16577 0.906314C3.17703 0.872374 3.22501 0.872374 3.23633 0.906314Z" fill="#F5F5F5"/>
<path d="M3.23633 2.27737L3.3237 2.53941L3.59992 2.54151C3.63569 2.54183 3.65049 2.58739 3.62174 2.60868L3.39954 2.77279L3.48289 3.03612C3.49371 3.07019 3.45486 3.09845 3.42575 3.07762L3.20105 2.91699L2.97635 3.07762C2.94724 3.09841 2.90847 3.07019 2.9192 3.03612L3.00255 2.77279L2.78036 2.60868C2.7516 2.58739 2.76641 2.54183 2.80218 2.54151L3.07839 2.53941L3.16577 2.27737C3.17703 2.24348 3.22501 2.24348 3.23633 2.27737Z" fill="#F5F5F5"/>
<path d="M3.23633 3.64752L3.3237 3.90956L3.59992 3.91166C3.63569 3.91198 3.65049 3.95754 3.62174 3.97883L3.39954 4.14294L3.48289 4.40627C3.49371 4.44034 3.45486 4.4686 3.42575 4.44777L3.20105 4.28715L2.97635 4.44777C2.94724 4.46856 2.90847 4.44039 2.9192 4.40627L3.00255 4.14294L2.78036 3.97883C2.7516 3.95754 2.76641 3.91198 2.80218 3.91166L3.07839 3.90956L3.16577 3.64752C3.17703 3.61359 3.22501 3.61359 3.23633 3.64752Z" fill="#F5F5F5"/>
<path d="M3.23633 5.01862L3.3237 5.28066L3.59992 5.28276C3.63569 5.28307 3.65049 5.32868 3.62174 5.34992L3.39954 5.51403L3.48289 5.77736C3.49371 5.81144 3.45486 5.8397 3.42575 5.81886L3.20105 5.65824L2.97635 5.81886C2.94724 5.83965 2.90847 5.81144 2.9192 5.77736L3.00255 5.51403L2.78036 5.34992C2.7516 5.32873 2.76641 5.28307 2.80218 5.28276L3.07839 5.28066L3.16577 5.01862C3.17703 4.98468 3.22501 4.98468 3.23633 5.01862Z" fill="#F5F5F5"/>
<path d="M3.23633 6.3887L3.3237 6.65074L3.59992 6.65284C3.63569 6.65315 3.65049 6.69872 3.62174 6.72L3.39954 6.88411L3.48289 7.14745C3.49371 7.18152 3.45486 7.20978 3.42575 7.18894L3.20105 7.02832L2.97635 7.18894C2.94724 7.20974 2.90847 7.18152 2.9192 7.14745L3.00255 6.88411L2.78036 6.72C2.7516 6.69872 2.76641 6.65315 2.80218 6.65284L3.07839 6.65074L3.16577 6.3887C3.17703 6.35481 3.22501 6.35481 3.23633 6.3887Z" fill="#F5F5F5"/>
<path d="M4.3003 1.57816L4.38768 1.84019L4.66389 1.84229C4.69966 1.84261 4.71446 1.88822 4.68571 1.90946L4.46351 2.07357L4.54687 2.3369C4.55769 2.37097 4.51883 2.39923 4.48972 2.3784L4.26502 2.21778L4.04032 2.3784C4.01121 2.39919 3.97244 2.37097 3.98317 2.3369L4.06652 2.07357L3.84433 1.90946C3.81558 1.88817 3.83038 1.84261 3.86615 1.84229L4.14236 1.84019L4.22974 1.57816C4.24096 1.54426 4.28899 1.54426 4.3003 1.57816Z" fill="#F5F5F5"/>
<path d="M4.3003 2.94928L4.38768 3.21132L4.66389 3.21342C4.69966 3.21373 4.71446 3.25935 4.68571 3.28059L4.46351 3.44469L4.54687 3.70803C4.55769 3.7421 4.51883 3.77036 4.48972 3.74952L4.26502 3.5889L4.04032 3.74952C4.01121 3.77032 3.97244 3.74215 3.98317 3.70803L4.06652 3.44469L3.84433 3.28059C3.81558 3.25939 3.83038 3.21373 3.86615 3.21342L4.14236 3.21132L4.22974 2.94928C4.24096 2.91534 4.28899 2.91534 4.3003 2.94928Z" fill="#F5F5F5"/>
<path d="M4.3003 4.3194L4.38768 4.58144L4.66389 4.58354C4.69966 4.58385 4.71446 4.62942 4.68571 4.6507L4.46351 4.81481L4.54687 5.07814C4.55769 5.11222 4.51883 5.14048 4.48972 5.11964L4.26502 4.95902L4.04032 5.11964C4.01121 5.14043 3.97244 5.11222 3.98317 5.07814L4.06652 4.81481L3.84433 4.6507C3.81558 4.62942 3.83038 4.58385 3.86615 4.58354L4.14236 4.58144L4.22974 4.3194C4.24096 4.28546 4.28899 4.28546 4.3003 4.3194Z" fill="#F5F5F5"/>
<path d="M4.3003 5.69046L4.38768 5.9525L4.66389 5.9546C4.69966 5.95491 4.71446 6.00048 4.68571 6.02176L4.46351 6.18587L4.54687 6.4492C4.55769 6.48328 4.51883 6.51154 4.48972 6.4907L4.26502 6.33008L4.04032 6.4907C4.01121 6.51154 3.97244 6.48328 3.98317 6.4492L4.06652 6.18587L3.84433 6.02176C3.81558 6.00048 3.83038 5.95491 3.86615 5.9546L4.14236 5.9525L4.22974 5.69046C4.24096 5.65657 4.28899 5.65657 4.3003 5.69046Z" fill="#F5F5F5"/>
<path d="M5.36425 0.906308L5.45162 1.16835L5.72784 1.17045C5.76361 1.17076 5.77841 1.21637 5.74966 1.23761L5.52746 1.40167L5.61081 1.66501C5.62164 1.69908 5.58278 1.72734 5.55367 1.7065L5.32892 1.54593L5.10422 1.70655C5.07511 1.72739 5.03635 1.69913 5.04708 1.66505L5.13043 1.40172L4.90823 1.23766C4.87948 1.21637 4.89428 1.17076 4.93006 1.17049L5.20627 1.16839L5.29364 0.906353C5.30496 0.872369 5.35294 0.872369 5.36425 0.906308Z" fill="#F5F5F5"/>
<path d="M5.36425 2.27737L5.45162 2.53941L5.72784 2.54151C5.76361 2.54183 5.77841 2.58739 5.74966 2.60868L5.52746 2.77279L5.61081 3.03612C5.62164 3.07019 5.58278 3.09845 5.55367 3.07762L5.32892 2.91699L5.10422 3.07762C5.07511 3.09841 5.03635 3.07019 5.04708 3.03612L5.13043 2.77279L4.90823 2.60868C4.87948 2.58739 4.89428 2.54183 4.93006 2.54151L5.20627 2.53941L5.29364 2.27737C5.30496 2.24348 5.35294 2.24348 5.36425 2.27737Z" fill="#F5F5F5"/>
<path d="M5.36425 3.64753L5.45162 3.90957L5.72784 3.91167C5.76361 3.91198 5.77841 3.95755 5.74966 3.97883L5.52746 4.14294L5.61081 4.40627C5.62164 4.44035 5.58278 4.46861 5.55367 4.44777L5.32892 4.28711L5.10422 4.44773C5.07511 4.46852 5.03635 4.4403 5.04708 4.40623L5.13043 4.1429L4.90823 3.97879C4.87948 3.9575 4.89428 3.91194 4.93006 3.91162L5.20627 3.90952L5.29364 3.64749C5.30496 3.61359 5.35294 3.61359 5.36425 3.64753Z" fill="#F5F5F5"/>
<path d="M5.36425 5.01862L5.45162 5.28066L5.72784 5.28276C5.76361 5.28307 5.77841 5.32868 5.74966 5.34992L5.52746 5.51403L5.61081 5.77736C5.62164 5.81144 5.58278 5.8397 5.55367 5.81886L5.32892 5.65824L5.10422 5.81886C5.07511 5.83965 5.03635 5.81144 5.04708 5.77736L5.13043 5.51403L4.90823 5.34992C4.87948 5.32873 4.89428 5.28307 4.93006 5.28276L5.20627 5.28066L5.29364 5.01862C5.30496 4.98468 5.35294 4.98468 5.36425 5.01862Z" fill="#F5F5F5"/>
<path d="M5.36425 6.3887L5.45162 6.65074L5.72784 6.65284C5.76361 6.65315 5.77841 6.69872 5.74966 6.72L5.52746 6.88411L5.61081 7.14745C5.62164 7.18152 5.58278 7.20978 5.55367 7.18894L5.32892 7.02832L5.10422 7.18894C5.07511 7.20974 5.03635 7.18152 5.04708 7.14745L5.13043 6.88411L4.90823 6.72C4.87948 6.69872 4.89428 6.65315 4.93006 6.65284L5.20627 6.65074L5.29364 6.3887C5.30496 6.35481 5.35294 6.35481 5.36425 6.3887Z" fill="#F5F5F5"/>
<path d="M6.42817 1.57816L6.51554 1.84019L6.79176 1.84229C6.82753 1.84261 6.84233 1.88822 6.81358 1.90946L6.59138 2.07357L6.67473 2.3369C6.68556 2.37097 6.6467 2.39923 6.61759 2.3784L6.39289 2.21778L6.16819 2.3784C6.13908 2.39919 6.10031 2.37097 6.11104 2.3369L6.19439 2.07357L5.9722 1.90946C5.94345 1.88817 5.95825 1.84261 5.99402 1.84229L6.27023 1.84019L6.35761 1.57816C6.36892 1.54426 6.41686 1.54426 6.42817 1.57816Z" fill="#F5F5F5"/>
<path d="M6.42817 2.94928L6.51554 3.21132L6.79176 3.21342C6.82753 3.21373 6.84233 3.25935 6.81358 3.28059L6.59138 3.44469L6.67473 3.70803C6.68556 3.7421 6.6467 3.77036 6.61759 3.74952L6.39289 3.5889L6.16819 3.74952C6.13908 3.77032 6.10031 3.74215 6.11104 3.70803L6.19439 3.44469L5.9722 3.28059C5.94345 3.25939 5.95825 3.21373 5.99402 3.21342L6.27023 3.21132L6.35761 2.94928C6.36892 2.91534 6.41686 2.91534 6.42817 2.94928Z" fill="#F5F5F5"/>
<path d="M6.42817 4.3194L6.51554 4.58144L6.79176 4.58354C6.82753 4.58385 6.84233 4.62942 6.81358 4.6507L6.59138 4.81481L6.67473 5.07814C6.68556 5.11222 6.6467 5.14048 6.61759 5.11964L6.39289 4.95902L6.16819 5.11964C6.13908 5.14043 6.10031 5.11222 6.11104 5.07814L6.19439 4.81481L5.9722 4.6507C5.94345 4.62942 5.95825 4.58385 5.99402 4.58354L6.27023 4.58144L6.35761 4.3194C6.36892 4.28546 6.41686 4.28546 6.42817 4.3194Z" fill="#F5F5F5"/>
<path d="M6.42817 5.69046L6.51554 5.9525L6.79176 5.9546C6.82753 5.95491 6.84233 6.00048 6.81358 6.02176L6.59138 6.18587L6.67473 6.4492C6.68556 6.48328 6.6467 6.51154 6.61759 6.4907L6.39289 6.33008L6.16819 6.4907C6.13908 6.51154 6.10031 6.48328 6.11104 6.4492L6.19439 6.18587L5.9722 6.02176C5.94345 6.00048 5.95825 5.95491 5.99402 5.9546L6.27023 5.9525L6.35761 5.69046C6.36892 5.65657 6.41686 5.65657 6.42817 5.69046Z" fill="#F5F5F5"/>
<path d="M7.49216 0.906314L7.57953 1.16835L7.85574 1.17045C7.89152 1.17077 7.90632 1.21638 7.87757 1.23762L7.65537 1.40168L7.73872 1.66501C7.74954 1.69909 7.71069 1.72735 7.68157 1.70651L7.45688 1.54589L7.23218 1.70651C7.20307 1.72735 7.1643 1.69909 7.17503 1.66501L7.25838 1.40168L7.03619 1.23762C7.00743 1.21633 7.02223 1.17072 7.05801 1.17045L7.33422 1.16835L7.42159 0.906314C7.43282 0.872374 7.48084 0.872374 7.49216 0.906314Z" fill="#F5F5F5"/>
<path d="M7.49216 2.27737L7.57953 2.53941L7.85574 2.54151C7.89152 2.54183 7.90632 2.58739 7.87757 2.60868L7.65537 2.77279L7.73872 3.03612C7.74954 3.07019 7.71069 3.09845 7.68157 3.07762L7.45688 2.91699L7.23218 3.07762C7.20307 3.09841 7.1643 3.07019 7.17503 3.03612L7.25838 2.77279L7.03619 2.60868C7.00743 2.58739 7.02223 2.54183 7.05801 2.54151L7.33422 2.53941L7.42159 2.27737C7.43282 2.24348 7.48084 2.24348 7.49216 2.27737Z" fill="#F5F5F5"/>
<path d="M7.49216 3.64752L7.57953 3.90956L7.85574 3.91166C7.89152 3.91198 7.90632 3.95754 7.87757 3.97883L7.65537 4.14294L7.73872 4.40627C7.74954 4.44034 7.71069 4.4686 7.68157 4.44777L7.45688 4.28715L7.23218 4.44777C7.20307 4.46856 7.1643 4.44039 7.17503 4.40627L7.25838 4.14294L7.03619 3.97883C7.00743 3.95754 7.02223 3.91198 7.05801 3.91166L7.33422 3.90956L7.42159 3.64752C7.43282 3.61359 7.48084 3.61359 7.49216 3.64752Z" fill="#F5F5F5"/>
<path d="M7.49216 5.01862L7.57953 5.28066L7.85574 5.28276C7.89152 5.28307 7.90632 5.32868 7.87757 5.34992L7.65537 5.51403L7.73872 5.77736C7.74954 5.81144 7.71069 5.8397 7.68157 5.81886L7.45688 5.65824L7.23218 5.81886C7.20307 5.83965 7.1643 5.81144 7.17503 5.77736L7.25838 5.51403L7.03619 5.34992C7.00743 5.32873 7.02223 5.28307 7.05801 5.28276L7.33422 5.28066L7.42159 5.01862C7.43282 4.98468 7.48084 4.98468 7.49216 5.01862Z" fill="#F5F5F5"/>
<path d="M7.49216 6.3887L7.57953 6.65074L7.85574 6.65284C7.89152 6.65315 7.90632 6.69872 7.87757 6.72L7.65537 6.88411L7.73872 7.14745C7.74954 7.18152 7.71069 7.20978 7.68157 7.18894L7.45688 7.02832L7.23218 7.18894C7.20307 7.20974 7.1643 7.18152 7.17503 7.14745L7.25838 6.88411L7.03619 6.72C7.00743 6.69872 7.02223 6.65315 7.05801 6.65284L7.33422 6.65074L7.42159 6.3887C7.43282 6.35481 7.48084 6.35481 7.49216 6.3887Z" fill="#F5F5F5"/>
<path d="M8.55608 1.57816L8.64346 1.84019L8.91967 1.84229C8.95544 1.84261 8.97024 1.88822 8.94149 1.90946L8.7193 2.07357L8.80265 2.3369C8.81347 2.37097 8.77461 2.39923 8.7455 2.3784L8.5208 2.21778L8.2961 2.3784C8.26699 2.39919 8.22822 2.37097 8.23896 2.3369L8.32231 2.07357L8.10011 1.90946C8.07136 1.88817 8.08616 1.84261 8.12193 1.84229L8.39815 1.84019L8.48552 1.57816C8.49679 1.54426 8.54477 1.54426 8.55608 1.57816Z" fill="#F5F5F5"/>
<path d="M8.55608 2.94928L8.64346 3.21132L8.91967 3.21342C8.95544 3.21373 8.97024 3.25935 8.94149 3.28059L8.7193 3.44469L8.80265 3.70803C8.81347 3.7421 8.77461 3.77036 8.7455 3.74952L8.5208 3.5889L8.2961 3.74952C8.26699 3.77032 8.22822 3.74215 8.23896 3.70803L8.32231 3.44469L8.10011 3.28059C8.07136 3.25939 8.08616 3.21373 8.12193 3.21342L8.39815 3.21132L8.48552 2.94928C8.49679 2.91534 8.54477 2.91534 8.55608 2.94928Z" fill="#F5F5F5"/>
<path d="M8.55608 4.3194L8.64346 4.58144L8.91967 4.58354C8.95544 4.58385 8.97024 4.62942 8.94149 4.6507L8.7193 4.81481L8.80265 5.07814C8.81347 5.11222 8.77461 5.14048 8.7455 5.11964L8.5208 4.95902L8.2961 5.11964C8.26699 5.14043 8.22822 5.11222 8.23896 5.07814L8.32231 4.81481L8.10011 4.6507C8.07136 4.62942 8.08616 4.58385 8.12193 4.58354L8.39815 4.58144L8.48552 4.3194C8.49679 4.28546 8.54477 4.28546 8.55608 4.3194Z" fill="#F5F5F5"/>
<path d="M8.55608 5.69046L8.64346 5.9525L8.91967 5.9546C8.95544 5.95491 8.97024 6.00048 8.94149 6.02176L8.7193 6.18587L8.80265 6.4492C8.81347 6.48328 8.77461 6.51154 8.7455 6.4907L8.5208 6.33008L8.2961 6.4907C8.26699 6.51154 8.22822 6.48328 8.23896 6.4492L8.32231 6.18587L8.10011 6.02176C8.07136 6.00048 8.08616 5.95491 8.12193 5.9546L8.39815 5.9525L8.48552 5.69046C8.49679 5.65657 8.54477 5.65657 8.55608 5.69046Z" fill="#F5F5F5"/>
<path d="M9.62006 0.906314L9.70743 1.16835L9.98364 1.17045C10.0194 1.17077 10.0342 1.21638 10.0055 1.23762L9.78327 1.40168L9.86662 1.66501C9.87744 1.69909 9.83858 1.72735 9.80947 1.70651L9.58478 1.54589L9.36008 1.70651C9.33097 1.72735 9.2922 1.69909 9.30293 1.66501L9.38628 1.40168L9.16409 1.23762C9.13533 1.21633 9.15013 1.17072 9.18591 1.17045L9.46212 1.16835L9.54949 0.906314C9.56076 0.872374 9.6087 0.872374 9.62006 0.906314Z" fill="#F5F5F5"/>
<path d="M9.62006 2.27737L9.70743 2.53941L9.98364 2.54151C10.0194 2.54183 10.0342 2.58739 10.0055 2.60868L9.78327 2.77279L9.86662 3.03612C9.87744 3.07019 9.83858 3.09845 9.80947 3.07762L9.58478 2.91699L9.36008 3.07762C9.33097 3.09841 9.2922 3.07019 9.30293 3.03612L9.38628 2.77279L9.16409 2.60868C9.13533 2.58739 9.15013 2.54183 9.18591 2.54151L9.46212 2.53941L9.54949 2.27737C9.56076 2.24348 9.6087 2.24348 9.62006 2.27737Z" fill="#F5F5F5"/>
<path d="M9.62006 3.64752L9.70743 3.90956L9.98364 3.91166C10.0194 3.91198 10.0342 3.95754 10.0055 3.97883L9.78327 4.14294L9.86662 4.40627C9.87744 4.44034 9.83858 4.4686 9.80947 4.44777L9.58478 4.28715L9.36008 4.44777C9.33097 4.46856 9.2922 4.44039 9.30293 4.40627L9.38628 4.14294L9.16409 3.97883C9.13533 3.95754 9.15013 3.91198 9.18591 3.91166L9.46212 3.90956L9.54949 3.64752C9.56076 3.61359 9.6087 3.61359 9.62006 3.64752Z" fill="#F5F5F5"/>
<path d="M9.62006 5.01862L9.70743 5.28066L9.98364 5.28276C10.0194 5.28307 10.0342 5.32868 10.0055 5.34992L9.78327 5.51403L9.86662 5.77736C9.87744 5.81144 9.83858 5.8397 9.80947 5.81886L9.58478 5.65824L9.36008 5.81886C9.33097 5.83965 9.2922 5.81144 9.30293 5.77736L9.38628 5.51403L9.16409 5.34992C9.13533 5.32873 9.15013 5.28307 9.18591 5.28276L9.46212 5.28066L9.54949 5.01862C9.56076 4.98468 9.6087 4.98468 9.62006 5.01862Z" fill="#F5F5F5"/>
<path d="M9.62006 6.3887L9.70743 6.65074L9.98364 6.65284C10.0194 6.65315 10.0342 6.69872 10.0055 6.72L9.78327 6.88411L9.86662 7.14745C9.87744 7.18152 9.83858 7.20978 9.80947 7.18894L9.58478 7.02832L9.36008 7.18894C9.33097 7.20974 9.2922 7.18152 9.30293 7.14745L9.38628 6.88411L9.16409 6.72C9.13533 6.69872 9.15013 6.65315 9.18591 6.65284L9.46212 6.65074L9.54949 6.3887C9.56076 6.35481 9.6087 6.35481 9.62006 6.3887Z" fill="#F5F5F5"/>
</g>
<defs>
<clipPath id="clip0_916_2525">
<rect width="22.8947" height="15" fill="white"/>
</clipPath>
</defs>
</svg>
