<svg width="15" height="15" viewBox="0 0 15 15" fill="none" xmlns="http://www.w3.org/2000/svg">
<path fill-rule="evenodd" clip-rule="evenodd" d="M13.1566 0C12.9514 0 12.7541 0.0789238 12.5962 0.228879L5.52467 7.30045L7.69507 9.47086L14.7666 2.39928C15.0745 2.09148 15.0745 1.59426 14.7666 1.28646L13.7091 0.228879C13.5512 0.0710314 13.3539 0 13.1566 0ZM3.94619 10.2601C4.38027 10.2601 4.73543 10.6153 4.73543 11.0493C4.73543 11.9175 4.02512 12.6278 3.15695 12.6278C3.02278 12.6278 2.8965 12.612 2.76233 12.5883C3.007 12.1543 3.15695 11.6334 3.15695 11.0493C3.15695 10.6153 3.51211 10.2601 3.94619 10.2601ZM1.57848 11.0493C1.57848 9.7392 2.63606 8.68162 3.94619 8.68162C5.25633 8.68162 6.31391 9.7392 6.31391 11.0493C6.31391 12.7936 4.90117 14.2063 3.15695 14.2063C1.9652 14.2063 0.726099 13.5907 0 12.6278C0.66296 12.6278 1.57848 12.0832 1.57848 11.0493Z" fill="#1ABBC9"/>
</svg>
