<svg width="28" height="42" viewBox="0 0 28 42" fill="none" xmlns="http://www.w3.org/2000/svg">
<path d="M14 21C14 19.1435 14.7375 17.363 16.0503 16.0503C17.363 14.7375 19.1435 14 21 14C22.8565 14 24.637 14.7375 25.9497 16.0503C27.2625 17.363 28 19.1435 28 21C28 22.8565 27.2625 24.637 25.9497 25.9497C24.637 27.2625 22.8565 28 21 28C19.1435 28 17.363 27.2625 16.0503 25.9497C14.7375 24.637 14 22.8565 14 21Z" fill="#1ABCFE"/>
<path d="M0 35C0 33.1435 0.737498 31.363 2.05025 30.0503C3.36301 28.7375 5.14348 28 7 28H14V35C14 36.8565 13.2625 38.637 11.9497 39.9497C10.637 41.2625 8.85651 42 7 42C5.14348 42 3.36301 41.2625 2.05025 39.9497C0.737498 38.637 0 36.8565 0 35H0Z" fill="#0ACF83"/>
<path d="M14 0V14H21C22.8565 14 24.637 13.2625 25.9497 11.9497C27.2625 10.637 28 8.85651 28 7C28 5.14348 27.2625 3.36301 25.9497 2.05025C24.637 0.737498 22.8565 0 21 0L14 0Z" fill="#FF7262"/>
<path d="M0 7C0 8.85651 0.737498 10.637 2.05025 11.9497C3.36301 13.2625 5.14348 14 7 14H14V0H7C5.14348 0 3.36301 0.737498 2.05025 2.05025C0.737498 3.36301 0 5.14348 0 7H0Z" fill="#F24E1E"/>
<path d="M0 21C0 22.8565 0.737498 24.637 2.05025 25.9497C3.36301 27.2625 5.14348 28 7 28H14V14H7C5.14348 14 3.36301 14.7375 2.05025 16.0503C0.737498 17.363 0 19.1435 0 21H0Z" fill="#A259FF"/>
</svg>
