<svg width="29" height="34" viewBox="0 0 29 34" fill="none" xmlns="http://www.w3.org/2000/svg">
<g clip-path="url(#clip0_654_2634)">
<path d="M20.7692 4.34979V29.2728C20.7692 32.0616 22.6951 33.6155 24.7343 33.6155C26.6224 33.6155 28.6993 32.2938 28.6993 29.2728V4.53861C28.6993 1.98211 26.8112 0.384766 24.7343 0.384766C22.6573 0.384766 20.7692 2.14637 20.7692 4.34979Z" fill="#F9AB00"/>
<path d="M10.3846 17.0002V29.2729C10.3846 32.0616 12.3105 33.6155 14.3496 33.6155C16.2378 33.6155 18.3147 32.2939 18.3147 29.2729V17.189C18.3147 14.6325 16.4266 13.0352 14.3496 13.0352C12.2727 13.0352 10.3846 14.7968 10.3846 17.0002Z" fill="#E37400"/>
<path d="M3.96505 33.6156C6.15489 33.6156 7.9301 31.8404 7.9301 29.6506C7.9301 27.4608 6.15489 25.6855 3.96505 25.6855C1.77521 25.6855 0 27.4608 0 29.6506C0 31.8404 1.77521 33.6156 3.96505 33.6156Z" fill="#E37400"/>
</g>
<defs>
<clipPath id="clip0_654_2634">
<rect width="28.6993" height="33.2308" fill="white" transform="translate(0 0.384766)"/>
</clipPath>
</defs>
</svg>
