<svg width="29" height="30" viewBox="0 0 29 30" fill="none" xmlns="http://www.w3.org/2000/svg">
<g clip-path="url(#clip0_654_2639)">
<path d="M18.8391 14.6849C18.7877 12.4507 16.9481 10.6732 14.7127 10.6995H4.07269V18.6691H10.964V25.3715C10.8445 27.528 12.4953 29.3736 14.6518 29.4932C14.6984 29.4956 14.7462 29.498 14.7928 29.498C17.0497 29.4752 18.8607 27.6284 18.838 25.3715L18.8391 14.6849Z" fill="#B366F6"/>
<path d="M4.02602 18.7591C6.24953 18.7591 8.05204 16.9566 8.05204 14.7331C8.05204 12.5095 6.24953 10.707 4.02602 10.707C1.80251 10.707 0 12.5095 0 14.7331C0 16.9566 1.80251 18.7591 4.02602 18.7591Z" fill="#8430CE"/>
<path d="M28.6626 4.0057C28.6411 1.78708 26.8361 0 24.6175 0L13.7348 0C11.6668 0.207995 10.0937 1.94726 10.0937 4.02602C10.0937 6.10477 11.6668 7.84285 13.7348 8.05084H20.7062V14.7461C20.6166 16.9456 22.3271 18.8008 24.5254 18.8905C26.7249 18.9801 28.5801 17.2696 28.6698 15.0713C28.6746 14.9637 28.6746 14.8549 28.6698 14.7473L28.6626 4.0057Z" fill="#C58AF8"/>
</g>
<defs>
<clipPath id="clip0_654_2639">
<rect width="28.6734" height="29.4983" fill="white"/>
</clipPath>
</defs>
</svg>
