<svg width="20" height="27" viewBox="0 0 20 27" fill="none" xmlns="http://www.w3.org/2000/svg">
<g clip-path="url(#clip0_654_2644)">
<path d="M17.7798 26.6875H1.83929C0.823387 26.6875 0 25.8641 0 24.8482V2.77679C0 1.76089 0.823387 0.9375 1.83929 0.9375H13.4881L19.619 7.06845V24.8482C19.619 25.8641 18.7957 26.6875 17.7798 26.6875Z" fill="#43A047"/>
<path d="M19.619 7.06845H13.4881V0.9375L19.619 7.06845Z" fill="#C8E6C9"/>
<path d="M13.4881 7.06836L19.619 13.1993V7.06836H13.4881Z" fill="#2E7D32"/>
<path d="M14.1012 13.2002H5.51788H4.29169V14.4264V15.6526V16.8788V18.105V19.3311V20.5573V21.7835H15.3274V20.5573V19.3311V18.105V16.8788V15.6526V14.4264V13.2002H14.1012ZM5.51788 14.4264H7.97026V15.6526H5.51788V14.4264ZM5.51788 16.8788H7.97026V18.105H5.51788V16.8788ZM5.51788 19.3311H7.97026V20.5573H5.51788V19.3311ZM14.1012 20.5573H9.19645V19.3311H14.1012V20.5573ZM14.1012 18.105H9.19645V16.8788H14.1012V18.105ZM14.1012 15.6526H9.19645V14.4264H14.1012V15.6526Z" fill="#E8F5E9"/>
</g>
<defs>
<clipPath id="clip0_654_2644">
<rect width="19.619" height="25.75" fill="white" transform="translate(0 0.9375)"/>
</clipPath>
</defs>
</svg>
