<svg width="28" height="32" viewBox="0 0 28 32" fill="none" xmlns="http://www.w3.org/2000/svg">
<path d="M28 0H0L2.47059 28L14 31.2941L25.5294 28L28 0Z" fill="#E65100"/>
<path d="M14 2.47058V28.7412L23.2235 26.1059L25.2824 2.47058H14Z" fill="#FF6D00"/>
<path d="M14 16.4706V13.1765H21.0824L20.5059 22.6471L14 24.7883V21.3294L17.3765 20.1765L17.6235 16.4706H14ZM21.3294 9.88237L21.5765 6.58826H14V9.88237H21.3294Z" fill="white"/>
<path d="M13.9999 21.3294V24.7883L7.49403 22.6471L7.16462 18.1177H10.4587L10.6234 20.1765L13.9999 21.3294ZM9.96462 9.88237H13.9999V6.58826H6.5058L7.08227 16.4706H13.9999V13.1765H10.2117L9.96462 9.88237Z" fill="#EEEEEE"/>
</svg>
