<svg width="32" height="32" viewBox="0 0 32 32" fill="none" xmlns="http://www.w3.org/2000/svg">
<path d="M0 32V0H32V32H0Z" fill="#F7DF1E"/>
<path d="M20.9227 23.9528C21.5378 24.9519 22.2062 25.9093 23.6222 25.9093C24.8116 25.9093 25.4356 25.3182 25.4356 24.5004C25.4356 23.5217 24.7902 23.1742 23.4818 22.6044L22.7645 22.2986C20.6942 21.4204 19.3174 20.3199 19.3174 17.9955C19.3174 15.8533 20.9574 14.2231 23.52 14.2231C25.3449 14.2231 26.656 14.8551 27.6018 16.5102L25.3671 17.9386C24.8756 17.0604 24.344 16.7146 23.52 16.7146C22.6791 16.7146 22.1467 17.2453 22.1467 17.9386C22.1467 18.7955 22.68 19.1422 23.9111 19.6728L24.6285 19.9786C27.0685 21.0177 28.4445 22.0791 28.4445 24.4648C28.4445 27.0355 26.4142 28.4444 23.6889 28.4444C21.0231 28.4444 19.5094 27.1066 18.6667 25.4506L20.9227 23.9528ZM10.624 24.0257C11.0738 24.8311 11.7574 25.4506 12.7405 25.4506C13.6809 25.4506 14.2222 25.0791 14.2222 23.6346V14.2222H17.1849V24.0897C17.1849 27.0826 15.4489 28.4444 12.9138 28.4444C10.6231 28.4444 8.9698 26.8924 8.29602 25.4506L10.624 24.0257Z" fill="#000001"/>
</svg>
