<svg width="13" height="12" viewBox="0 0 13 12" fill="none" xmlns="http://www.w3.org/2000/svg">
<path d="M2.82609 12H0V3.81818H2.82609V12ZM1.41361 2.72727C0.631913 2.72727 0 2.11582 0 1.36309C0 0.610364 0.633043 0 1.41361 0C2.19248 0 2.82609 0.611455 2.82609 1.36309C2.82609 2.11582 2.19248 2.72727 1.41361 2.72727ZM13 12H10.283V8.01818C10.283 7.06855 10.2643 5.84727 8.87052 5.84727C7.45578 5.84727 7.23817 6.88145 7.23817 7.94945V12H4.52174V3.81218H7.12965V4.93091H7.16639C7.52926 4.28727 8.41609 3.60873 9.7387 3.60873C12.4913 3.60873 13 5.30455 13 7.50927C13 7.50927 13 12 13 12Z" fill="white"/>
</svg>
