<svg width="67" height="25" viewBox="0 0 67 25" fill="none" xmlns="http://www.w3.org/2000/svg">
<path d="M20.7756 10.3636H14.7671C14.7245 9.86648 14.6108 9.41548 14.4262 9.01065C14.2486 8.60582 14 8.25781 13.6804 7.96662C13.3679 7.66832 12.9879 7.44105 12.5405 7.2848C12.0931 7.12145 11.5852 7.03977 11.0171 7.03977C10.0227 7.03977 9.18113 7.28125 8.49221 7.7642C7.81039 8.24716 7.29193 8.93963 6.93681 9.84162C6.5888 10.7436 6.41479 11.8267 6.41479 13.0909C6.41479 14.4261 6.59235 15.5447 6.94747 16.4467C7.30968 17.3416 7.8317 18.0163 8.51352 18.4709C9.19533 18.9183 10.0156 19.142 10.9745 19.142C11.5213 19.142 12.0114 19.0746 12.4446 18.9396C12.8779 18.7976 13.2543 18.5952 13.5739 18.3324C13.8935 18.0696 14.1527 17.7536 14.3516 17.3842C14.5576 17.0078 14.696 16.5852 14.7671 16.1165L20.7756 16.1591C20.7046 17.0824 20.4453 18.0234 19.9979 18.9822C19.5504 19.9339 18.9148 20.8146 18.0909 21.6243C17.2742 22.4268 16.2621 23.0732 15.0547 23.5632C13.8473 24.0533 12.4446 24.2983 10.8466 24.2983C8.84377 24.2983 7.0469 23.8686 5.45599 23.0092C3.87218 22.1499 2.61863 20.8857 1.69533 19.2166C0.779142 17.5476 0.321045 15.5057 0.321045 13.0909C0.321045 10.6619 0.789795 8.61648 1.72729 6.95455C2.66479 5.28551 3.929 4.02486 5.51991 3.17258C7.11082 2.31321 8.88639 1.88352 10.8466 1.88352C12.2245 1.88352 13.4922 2.07173 14.6499 2.44815C15.8076 2.82457 16.8232 3.375 17.6968 4.09943C18.5703 4.81676 19.2735 5.70099 19.8061 6.75213C20.3388 7.80327 20.662 9.0071 20.7756 10.3636Z" fill="white"/>
<path d="M28.1078 24.2557C27.0638 24.2557 26.1405 24.0852 25.3379 23.7443C24.5425 23.3963 23.9175 22.8707 23.4629 22.1676C23.0084 21.4645 22.7811 20.5696 22.7811 19.483C22.7811 18.5881 22.9338 17.8246 23.2392 17.1925C23.5446 16.5533 23.9707 16.0313 24.5176 15.6264C25.0645 15.2216 25.7001 14.9126 26.4246 14.6996C27.1561 14.4865 27.9444 14.348 28.7896 14.2841C29.7058 14.2131 30.4409 14.1278 30.9949 14.0284C31.556 13.9219 31.9608 13.7763 32.2094 13.5916C32.4579 13.3999 32.5822 13.1477 32.5822 12.8352V12.7926C32.5822 12.3665 32.4189 12.0398 32.0922 11.8125C31.7655 11.5852 31.3464 11.4716 30.8351 11.4716C30.274 11.4716 29.8159 11.5959 29.4608 11.8445C29.1128 12.0859 28.9033 12.4588 28.8322 12.9631H23.4203C23.4913 11.9687 23.8074 11.0526 24.3685 10.2145C24.9366 9.36932 25.7641 8.6946 26.8507 8.19034C27.9373 7.67898 29.2939 7.4233 30.9203 7.4233C32.0922 7.4233 33.1433 7.56179 34.0737 7.83878C35.0041 8.10866 35.796 8.48864 36.4494 8.97869C37.1028 9.46165 37.6 10.0298 37.9409 10.6832C38.2889 11.3295 38.4629 12.0327 38.4629 12.7926V24H32.9658V21.6989H32.8379C32.5112 22.3097 32.1135 22.8033 31.6447 23.1797C31.1831 23.5561 30.654 23.8295 30.0574 24C29.4679 24.1705 28.818 24.2557 28.1078 24.2557ZM30.0254 20.5483C30.4729 20.5483 30.8919 20.456 31.2825 20.2713C31.6802 20.0866 32.0034 19.8203 32.252 19.4723C32.5006 19.1243 32.6248 18.7017 32.6248 18.2045V16.8409C32.4686 16.9048 32.3017 16.9652 32.1241 17.022C31.9537 17.0788 31.769 17.1321 31.5702 17.1818C31.3784 17.2315 31.1724 17.2777 30.9523 17.3203C30.7392 17.3629 30.5155 17.402 30.2811 17.4375C29.8265 17.5085 29.4537 17.6257 29.1625 17.7891C28.8784 17.9453 28.6653 18.1406 28.5233 18.375C28.3883 18.6023 28.3209 18.858 28.3209 19.142C28.3209 19.5966 28.4807 19.9446 28.8003 20.1861C29.1199 20.4276 29.5283 20.5483 30.0254 20.5483Z" fill="white"/>
<path d="M41.2728 24V7.63636H47.1534V24H41.2728ZM44.2131 5.93182C43.4176 5.93182 42.7358 5.66903 42.1676 5.14347C41.5995 4.6179 41.3154 3.9858 41.3154 3.24716C41.3154 2.50852 41.5995 1.87642 42.1676 1.35085C42.7358 0.825284 43.4176 0.5625 44.2131 0.5625C45.0156 0.5625 45.6975 0.825284 46.2585 1.35085C46.8267 1.87642 47.1108 2.50852 47.1108 3.24716C47.1108 3.9858 46.8267 4.6179 46.2585 5.14347C45.6975 5.66903 45.0156 5.93182 44.2131 5.93182Z" fill="white"/>
<path d="M58.0332 24.2983C56.2577 24.2983 54.7378 23.9467 53.4736 23.2436C52.2094 22.5334 51.2399 21.5462 50.5652 20.282C49.8905 19.0107 49.5531 17.5369 49.5531 15.8608C49.5531 14.1847 49.8905 12.7145 50.5652 11.4503C51.2399 10.179 52.2094 9.19176 53.4736 8.48864C54.7378 7.77841 56.2577 7.4233 58.0332 7.4233C59.8088 7.4233 61.3287 7.77841 62.5929 8.48864C63.8571 9.19176 64.8266 10.179 65.5013 11.4503C66.176 12.7145 66.5133 14.1847 66.5133 15.8608C66.5133 17.5369 66.176 19.0107 65.5013 20.282C64.8266 21.5462 63.8571 22.5334 62.5929 23.2436C61.3287 23.9467 59.8088 24.2983 58.0332 24.2983ZM58.0758 19.9517C58.573 19.9517 59.0027 19.7848 59.3649 19.451C59.7271 19.1172 60.0077 18.6413 60.2065 18.0234C60.4054 17.4055 60.5048 16.6705 60.5048 15.8182C60.5048 14.9588 60.4054 14.2237 60.2065 13.6129C60.0077 12.995 59.7271 12.5192 59.3649 12.1854C59.0027 11.8516 58.573 11.6847 58.0758 11.6847C57.5503 11.6847 57.0993 11.8516 56.7229 12.1854C56.3464 12.5192 56.0588 12.995 55.8599 13.6129C55.6611 14.2237 55.5616 14.9588 55.5616 15.8182C55.5616 16.6705 55.6611 17.4055 55.8599 18.0234C56.0588 18.6413 56.3464 19.1172 56.7229 19.451C57.0993 19.7848 57.5503 19.9517 58.0758 19.9517Z" fill="white"/>
</svg>
