<svg width="112" height="48" viewBox="0 0 112 48" fill="none" xmlns="http://www.w3.org/2000/svg">
<g clip-path="url(#clip0_514_720)">
<path d="M12.8423 0C5.64048 0 0 5.99883 0 13.6569C0 19.6371 3.46806 23.354 9.05071 23.354C16.2525 23.354 21.893 17.3568 21.893 9.69713C21.8946 3.71542 18.4249 0 12.8423 0ZM9.68368 19.0113C5.75613 19.0113 4.93249 15.9108 4.93249 13.3114C4.93249 8.85349 7.42061 4.34269 12.1796 4.34269C16.1072 4.34269 16.9308 7.44328 16.9308 10.0442C16.9293 14.499 14.4411 19.0113 9.68368 19.0113Z" fill="white"/>
<path d="M34.79 5.11585L33.0177 15.0745C32.9833 15.2675 32.8911 15.2784 32.8114 15.0994L28.3587 5.09094C28.279 4.91194 28.054 4.76562 27.857 4.76562H24.9047C24.7078 4.76562 24.5203 4.92284 24.4859 5.11585L21.3648 22.7808C21.3304 22.9738 21.4632 23.1311 21.6602 23.1311H24.8657C25.0626 23.1311 25.2501 22.9754 25.2845 22.7824L27.185 12.1062C27.2194 11.9132 27.3131 11.9008 27.3929 12.0813L32.2222 22.8088C32.3035 22.9879 32.5285 23.1326 32.7254 23.1326H35.1432C35.3402 23.1326 35.5277 22.977 35.5621 22.7839L38.7066 5.11739C38.741 4.92438 38.6097 4.76719 38.4112 4.76719H35.2057C35.0119 4.76563 34.8244 4.92284 34.79 5.11585Z" fill="white"/>
<path d="M48.6092 4.41309C42.7343 4.41309 38.1331 9.30368 38.1331 15.5454C38.1331 20.4437 40.9776 23.4883 45.5569 23.4883C51.4318 23.4883 56.0329 18.5977 56.0329 12.3561C56.0329 7.45609 53.1885 4.41309 48.6092 4.41309ZM51.7678 12.6331C51.7678 16.1571 49.8095 19.7231 46.0648 19.7231C43.0125 19.7231 42.3717 17.2996 42.3717 15.2652C42.3717 11.7412 44.33 8.1752 48.0747 8.1752C51.127 8.1752 51.7678 10.6003 51.7678 12.6331Z" fill="white"/>
<path d="M62.2625 8.55478H68.8251C69.022 8.55478 69.2096 8.39757 69.244 8.20456L69.7941 5.11486C69.8285 4.92186 69.6972 4.76465 69.5003 4.76465H58.993C58.796 4.76465 58.6085 4.92186 58.5741 5.11486L55.4546 22.7798C55.4202 22.9728 55.553 23.13 55.7499 23.13H58.9554C59.1524 23.13 59.3384 22.9744 59.3727 22.7798L60.598 15.8112C60.6324 15.6182 60.82 15.461 61.0169 15.461H65.9509C66.1479 15.461 66.3354 15.3054 66.3698 15.1124L66.9215 12.0227C66.9559 11.8297 66.8246 11.6724 66.6277 11.6724H61.6952C61.4983 11.6724 61.367 11.5168 61.4014 11.3238L61.8421 8.90188C61.878 8.71199 62.0656 8.55478 62.2625 8.55478Z" fill="white"/>
<path d="M77.8102 4.76562H71.5087C71.3117 4.76562 71.1242 4.92284 71.0898 5.11585L67.9703 22.7808C67.9359 22.9738 68.0672 23.1311 68.2657 23.1311H71.4446C71.6415 23.1311 71.8291 22.9754 71.8634 22.7824L72.909 16.9019C72.9434 16.7088 73.1309 16.5516 73.3279 16.5516H75.2127C75.4096 16.5516 75.6238 16.7011 75.6878 16.8863L77.7899 22.7964C77.8556 22.9816 78.0681 23.1311 78.2666 23.1311H81.6237C81.8206 23.1311 81.9285 22.9816 81.8644 22.7948L79.4903 15.8481C79.4263 15.6629 79.5122 15.4309 79.6779 15.3235C82.0629 13.7966 83.2241 11.8447 83.2241 9.3667C83.2225 6.27234 81.4533 4.76562 77.8102 4.76562ZM74.8267 8.12459H76.5115C78.8949 8.12459 79.084 8.90442 79.084 9.9255C79.084 11.9864 77.9572 12.8658 75.3159 12.8658H73.9765C73.7795 12.8658 73.6483 12.7101 73.6826 12.5171L74.4078 8.47482C74.4422 8.28026 74.6298 8.12459 74.8267 8.12459Z" fill="white"/>
<path d="M96.8916 8.20553L97.4418 5.11585C97.4761 4.92284 97.3449 4.76562 97.1479 4.76562H86.1577C85.9608 4.76562 85.7732 4.92284 85.7404 5.11585L82.6224 22.7808C82.588 22.9738 82.7193 23.1311 82.9178 23.1311H94.1347C94.3316 23.1311 94.5192 22.9754 94.5551 22.7824L95.1052 19.6943C95.1412 19.5012 95.0083 19.344 94.8114 19.344H87.5846C87.3877 19.344 87.2564 19.1868 87.2908 18.9938L87.8628 15.8138C87.8972 15.6208 88.0863 15.4636 88.2832 15.4636H93.497C93.6939 15.4636 93.8815 15.308 93.9159 15.115L94.466 12.0253C94.5004 11.8323 94.3691 11.6751 94.1722 11.6751H88.9568C88.7599 11.6751 88.6286 11.5178 88.6614 11.3248L89.0865 8.90442C89.1209 8.71141 89.3069 8.5542 89.5038 8.5542H96.4712C96.6697 8.5542 96.8572 8.39854 96.8916 8.20553Z" fill="white"/>
<path d="M36.7499 29.4325L41.9403 34.5596L36.7499 39.6853C36.181 40.2534 36.181 41.1702 36.7499 41.7367C37.325 42.3033 38.255 42.3033 38.8301 41.7367L45.0535 35.5838C45.624 35.0157 45.624 34.0989 45.0535 33.5339L38.8301 27.3794C38.255 26.8128 37.325 26.8144 36.7499 27.3794C36.1794 27.9475 36.1794 28.8643 36.7499 29.4325Z" fill="white"/>
<path d="M38.2956 35.5838C38.8645 35.0157 38.8645 34.0989 38.2956 33.5339L32.0706 27.3794C31.4954 26.8128 30.564 26.8144 29.9888 27.3794C29.4199 27.9475 29.4199 28.8643 29.9888 29.4325L35.1792 34.5596L29.9888 39.6853C29.4199 40.2518 29.4199 41.1702 29.9888 41.7368C30.564 42.3018 31.4954 42.3018 32.0706 41.7368L38.2956 35.5838Z" fill="white"/>
<path d="M71.8197 43.2432L75.2705 27.1705C75.2862 27.0974 75.2737 27.0289 75.233 26.9791C75.1924 26.9293 75.1283 26.9013 75.0533 26.9013H72.5105C72.3292 26.9013 72.1026 27.0351 72.015 27.1939L71.6384 27.8834C71.5118 28.1153 71.2336 28.1449 71.0523 27.9441C70.6866 27.5394 70.2802 27.2094 69.8442 26.9635C69.3112 26.6647 68.6564 26.5137 67.8999 26.5137C67.0794 26.5137 66.3167 26.6709 65.6338 26.9822C64.9523 27.2935 64.3397 27.7854 63.8114 28.4453C63.3769 28.9372 62.9893 29.5458 62.6564 30.2602C62.322 30.9747 62.0313 31.7483 61.7937 32.5577C61.5562 33.3639 61.3764 34.2076 61.2576 35.0637C61.1389 35.9197 61.0795 36.7338 61.0795 37.4809C61.0795 39.1168 61.428 40.3045 62.1157 41.008C62.8018 41.7116 63.7114 42.068 64.8179 42.068C65.5759 42.068 66.2667 41.8968 66.8669 41.559C67.3201 41.3038 67.7093 41.0532 68.0219 40.815C68.1656 40.7045 68.2891 40.6998 68.3563 40.7839C68.4016 40.8399 68.411 40.924 68.386 41.0407L67.9906 42.8369C67.8265 43.5498 67.5436 44.0728 67.1513 44.3934C66.7559 44.7141 66.1933 44.876 65.4775 44.876C64.6351 44.876 63.8224 44.7795 63.0612 44.5896C62.422 44.4308 61.7828 44.216 61.1592 43.9514C61.1232 43.9358 61.0857 43.9281 61.0482 43.9281C60.9372 43.9281 60.8482 43.9965 60.8138 44.1086L60.1417 46.3173C60.0933 46.4807 60.1792 46.6769 60.3308 46.7469C61.0654 47.0862 61.8687 47.3726 62.7174 47.6014C63.7036 47.866 64.8023 47.9999 65.9854 47.9999C67.6311 47.9999 68.9408 47.6217 69.8786 46.873C70.8132 46.1243 71.4665 44.9024 71.8197 43.2432ZM69.0362 37.8872C69.0315 37.9059 69.0221 37.923 69.0065 37.937C68.683 38.2187 68.3 38.4787 67.8671 38.709C67.4264 38.9425 66.9731 39.0624 66.5215 39.0624C66.0729 39.0624 65.7369 38.9145 65.5197 38.6219C65.3055 38.3355 65.2024 37.8732 65.2024 37.2117C65.2024 36.8303 65.2383 36.3493 65.3087 35.7843C65.3774 35.2209 65.4743 34.6403 65.5931 34.0628C65.7135 33.4807 65.8557 32.9172 66.0135 32.3864C66.1729 31.8479 66.3464 31.3918 66.5277 31.0307C66.7934 30.4813 67.0919 30.103 67.4139 29.9053C67.7358 29.7077 68.1297 29.608 68.5845 29.608C69.058 29.608 69.466 29.7077 69.7989 29.9038C70.1255 30.0968 70.3834 30.2991 70.5678 30.503C70.5866 30.5248 70.5959 30.5544 70.5897 30.584L69.0362 37.8872Z" fill="white"/>
<path d="M58.5162 39.9947C58.5459 39.327 58.6319 38.7028 58.7741 38.144L61.1169 27.1705C61.1325 27.0974 61.1184 27.0289 61.0778 26.9791C61.0372 26.9293 60.9731 26.9013 60.8981 26.9013H58.3255C58.1442 26.9013 57.9176 27.0351 57.8317 27.1939L57.455 27.8834C57.3284 28.1153 57.0487 28.1449 56.8689 27.9441C56.5048 27.5379 56.1078 27.2079 55.6889 26.962C55.1763 26.6647 54.5433 26.5137 53.8057 26.5137C52.1662 26.5137 50.8002 27.1643 49.7468 28.4469C49.2952 28.9745 48.8904 29.6143 48.5465 30.3505C48.2011 31.0867 47.9104 31.8837 47.6838 32.7195C47.4556 33.5585 47.2853 34.4161 47.1774 35.2691C47.068 36.1252 47.0133 36.9377 47.0133 37.6879C47.0133 39.3456 47.3322 40.5488 47.9636 41.2633C48.5903 41.9746 49.4686 42.3342 50.5736 42.3342C51.3316 42.3342 52.0865 42.1225 52.8179 41.7053C53.4478 41.3473 54.0385 40.9068 54.573 40.3979C54.6512 40.3247 54.7262 40.2873 54.7965 40.2873C54.8966 40.2873 55.0044 40.3636 55.0044 40.58V41.6508C55.0044 41.8143 55.1372 41.9481 55.3013 41.9481H58.1724C58.3365 41.9481 58.4709 41.8143 58.4725 41.6508C58.4771 41.0889 58.4928 40.5317 58.5162 39.9947ZM54.7918 38.0958C54.7872 38.116 54.7778 38.1331 54.7622 38.1456C54.4402 38.4257 54.0682 38.6857 53.6541 38.916C53.2336 39.1511 52.7898 39.2709 52.3381 39.2709C51.8864 39.2709 51.5676 39.1199 51.391 38.8227C51.2222 38.5378 51.1394 38.0786 51.1394 37.4202C51.1394 37.0389 51.18 36.547 51.2597 35.9633C51.3394 35.3781 51.4457 34.7741 51.5754 34.1687C51.7051 33.5585 51.852 32.9701 52.0115 32.4191C52.1724 31.8603 52.3459 31.3934 52.5272 31.0323C52.7913 30.4859 53.068 30.1077 53.3493 29.91C53.6322 29.7108 54.0073 29.6096 54.4652 29.6096C54.9591 29.6096 55.3639 29.7092 55.6686 29.9085C55.964 30.1015 56.2063 30.3023 56.3891 30.5046C56.4079 30.5264 56.4173 30.556 56.411 30.5855L54.7918 38.0958Z" fill="white"/>
<path d="M85.9105 39.9885C86.2262 39.576 86.5295 39.0639 86.8139 38.4693C87.1 37.8685 87.3499 37.2117 87.5562 36.5159C87.7641 35.8201 87.9282 35.0917 88.047 34.3508C88.1657 33.613 88.2251 32.911 88.2251 32.2635C88.2048 30.3318 87.6922 28.8749 86.6982 27.9332C85.7042 26.99 84.3054 26.5137 82.5425 26.5137C81.4422 26.5137 80.4638 26.6911 79.6308 27.0429C78.8009 27.3931 78.0538 27.9753 77.4068 28.7738C77.0739 29.1644 76.766 29.6641 76.491 30.2602C76.2159 30.8579 75.9705 31.5101 75.7626 32.2012C75.5548 32.8908 75.3891 33.613 75.2719 34.3508C75.1531 35.087 75.0938 35.8108 75.0938 36.4972C75.0938 38.3899 75.5939 39.8531 76.5785 40.843C77.5631 41.8345 78.9869 42.3357 80.8077 42.3357C81.886 42.3357 82.8613 42.1521 83.7037 41.7909C84.5414 41.4329 85.2838 40.8275 85.9105 39.9885ZM84.1304 33.1258C84.0507 33.7313 83.9491 34.3508 83.8303 34.964C83.7115 35.5773 83.5694 36.1672 83.41 36.7151C83.249 37.263 83.0973 37.7129 82.9582 38.0506C82.7316 38.5845 82.4424 38.9596 82.0986 39.1667C81.7563 39.3737 81.3531 39.478 80.8983 39.478C80.295 39.478 79.8277 39.2958 79.512 38.9394C79.1994 38.5861 79.04 37.9946 79.04 37.1805C79.04 36.7214 79.0853 36.1766 79.176 35.5571C79.2651 34.9438 79.3761 34.3243 79.5058 33.7188C79.6355 33.1133 79.7824 32.5343 79.9418 31.9989C80.1012 31.4619 80.2544 31.0447 80.3966 30.7614C80.6404 30.2338 80.9249 29.8649 81.2374 29.6672C81.55 29.4695 81.9501 29.3699 82.4237 29.3699C83.0254 29.3699 83.488 29.5411 83.7943 29.8773C84.0975 30.2104 84.2523 30.7739 84.2523 31.549C84.2507 31.9864 84.2101 32.5172 84.1304 33.1258Z" fill="white"/>
<path d="M93.8017 32.0285C93.8532 31.7857 94.0627 31.5118 94.2768 31.4059C94.9535 31.0697 95.6115 30.8518 96.2335 30.7584C96.8212 30.6681 97.4182 30.609 98.0074 30.5779C98.1778 30.5685 98.3262 30.4269 98.3372 30.2603L98.5794 26.9216C98.5857 26.8438 98.5607 26.7737 98.5122 26.7208C98.4669 26.671 98.4028 26.6445 98.3341 26.6445C97.4995 26.6975 96.7634 26.9247 96.1288 27.3201C95.488 27.7201 94.8707 28.2431 94.2955 28.875C94.219 28.9591 94.1439 29.0011 94.072 29.0011C94.0267 29.0011 93.8783 28.9809 93.8783 28.7163V27.1971C93.8783 27.0337 93.7454 26.8998 93.5813 26.8998H90.8587C90.6962 26.8998 90.5602 27.0337 90.5571 27.1971C90.5477 27.6205 90.5243 28.0532 90.4868 28.4843C90.4368 29.0447 90.3492 29.6097 90.2305 30.1638L87.797 41.6758C87.7814 41.7506 87.7955 41.8175 87.8361 41.8689C87.8767 41.9187 87.9408 41.9467 88.0174 41.9467H91.3682C91.5386 41.9467 91.7136 41.8066 91.7496 41.6385L93.8017 32.0285Z" fill="white"/>
<path d="M109.393 39.9947C109.424 39.3254 109.51 38.7028 109.651 38.144L111.994 27.1705C112.009 27.0974 111.995 27.0289 111.956 26.9791C111.916 26.9293 111.851 26.9013 111.776 26.9013H109.204C109.023 26.9013 108.796 27.0351 108.71 27.1939L108.335 27.8834C108.208 28.1153 107.929 28.1449 107.749 27.9441C107.385 27.5379 106.989 27.2079 106.569 26.962C106.056 26.6647 105.423 26.5137 104.686 26.5137C103.046 26.5137 101.68 27.1643 100.627 28.4469C100.174 28.9761 99.7703 29.6158 99.4265 30.3505C99.0811 31.0867 98.7904 31.8837 98.5637 32.7195C98.3356 33.5569 98.1668 34.4146 98.0574 35.2691C97.9495 36.1221 97.8933 36.9361 97.8933 37.6879C97.8933 39.3472 98.2121 40.5488 98.8419 41.2633C99.4687 41.9746 100.347 42.3342 101.452 42.3342C102.21 42.3342 102.965 42.1225 103.695 41.7053C104.323 41.3473 104.914 40.9068 105.45 40.3979C105.528 40.3247 105.603 40.2873 105.675 40.2873C105.775 40.2873 105.883 40.3636 105.883 40.58V41.6508C105.883 41.8143 106.016 41.9481 106.18 41.9481H109.051C109.215 41.9481 109.349 41.8143 109.349 41.6508C109.355 41.0889 109.37 40.5317 109.393 39.9947ZM105.67 38.0958C105.666 38.116 105.656 38.1331 105.641 38.1456C105.319 38.4257 104.947 38.6857 104.532 38.916C104.11 39.1511 103.668 39.2709 103.215 39.2709C102.763 39.2709 102.444 39.1199 102.268 38.8227C102.097 38.5378 102.016 38.0786 102.016 37.4202C102.016 37.0404 102.057 36.5501 102.137 35.9633C102.216 35.3781 102.322 34.7741 102.452 34.1687C102.582 33.5616 102.729 32.9732 102.887 32.4191C103.046 31.8619 103.22 31.3949 103.402 31.0323C103.667 30.4859 103.943 30.1077 104.225 29.91C104.509 29.7108 104.884 29.6096 105.34 29.6096C105.834 29.6096 106.239 29.7092 106.544 29.9085C106.839 30.1015 107.081 30.3023 107.266 30.5046C107.286 30.5264 107.294 30.556 107.288 30.5855L105.67 38.0958Z" fill="white"/>
</g>
<defs>
<clipPath id="clip0_514_720">
<rect width="112" height="48" fill="white"/>
</clipPath>
</defs>
</svg>
