<svg width="53" height="24" viewBox="0 0 53 24" fill="none" xmlns="http://www.w3.org/2000/svg">
<path d="M20.7756 9.36363H14.7671C14.7245 8.86647 14.6108 8.41547 14.4262 8.01064C14.2486 7.60582 14 7.2578 13.6804 6.96661C13.3679 6.66832 12.9879 6.44104 12.5405 6.28479C12.0931 6.12144 11.5852 6.03976 11.0171 6.03976C10.0227 6.03976 9.18113 6.28124 8.49221 6.7642C7.81039 7.24715 7.29193 7.93962 6.93681 8.84161C6.5888 9.7436 6.41479 10.8267 6.41479 12.0909C6.41479 13.4261 6.59235 14.5447 6.94747 15.4467C7.30968 16.3416 7.8317 17.0163 8.51352 17.4709C9.19533 17.9183 10.0156 18.142 10.9745 18.142C11.5213 18.142 12.0114 18.0746 12.4446 17.9396C12.8779 17.7976 13.2543 17.5952 13.5739 17.3324C13.8935 17.0696 14.1527 16.7535 14.3516 16.3842C14.5576 16.0078 14.696 15.5852 14.7671 15.1165L20.7756 15.1591C20.7046 16.0824 20.4453 17.0234 19.9979 17.9822C19.5504 18.9339 18.9148 19.8146 18.0909 20.6243C17.2742 21.4268 16.2621 22.0731 15.0547 22.5632C13.8473 23.0533 12.4446 23.2983 10.8466 23.2983C8.84377 23.2983 7.0469 22.8686 5.45599 22.0092C3.87218 21.1499 2.61863 19.8856 1.69533 18.2166C0.779142 16.5476 0.321045 14.5057 0.321045 12.0909C0.321045 9.66192 0.789795 7.61647 1.72729 5.95454C2.66479 4.2855 3.929 3.02485 5.51991 2.17258C7.11082 1.3132 8.88639 0.883514 10.8466 0.883514C12.2245 0.883514 13.4922 1.07172 14.6499 1.44814C15.8076 1.82457 16.8232 2.37499 17.6968 3.09942C18.5703 3.81675 19.2735 4.70099 19.8061 5.75212C20.3388 6.80326 20.662 8.00709 20.7756 9.36363Z" fill="white"/>
<path d="M37.6319 8.38351C37.5396 8.00709 37.394 7.67684 37.1952 7.39275C36.9963 7.10156 36.7477 6.85653 36.4494 6.65766C36.1582 6.4517 35.8173 6.299 35.4267 6.19956C35.0432 6.09303 34.6206 6.03976 34.1589 6.03976C33.1646 6.03976 32.3159 6.27769 31.6128 6.75354C30.9167 7.2294 30.3841 7.91477 30.0148 8.80965C29.6525 9.70454 29.4714 10.7841 29.4714 12.0483C29.4714 13.3267 29.6454 14.4204 29.9935 15.3295C30.3415 16.2386 30.8599 16.9347 31.5489 17.4176C32.2378 17.9006 33.0936 18.142 34.1163 18.142C35.0183 18.142 35.7676 18.0106 36.3642 17.7479C36.9679 17.4851 37.4189 17.1122 37.7172 16.6293C38.0155 16.1463 38.1646 15.5781 38.1646 14.9247L39.1873 15.0312H34.2015V10.8125H43.8748V13.8381C43.8748 15.8267 43.4523 17.5277 42.6071 18.941C41.769 20.3473 40.6114 21.4268 39.1341 22.1797C37.6639 22.9254 35.9771 23.2983 34.0737 23.2983C31.9501 23.2983 30.0858 22.8473 28.4807 21.9453C26.8756 21.0433 25.622 19.7578 24.72 18.0888C23.8251 16.4197 23.3777 14.4347 23.3777 12.1335C23.3777 10.3295 23.6511 8.73153 24.198 7.33948C24.752 5.94744 25.519 4.77201 26.4991 3.8132C27.4792 2.84729 28.6121 2.11931 29.8976 1.62925C31.1831 1.13209 32.5609 0.883514 34.0311 0.883514C35.3237 0.883514 36.524 1.06817 37.6319 1.43749C38.747 1.79971 39.7307 2.31817 40.5829 2.99289C41.4423 3.6605 42.1348 4.45241 42.6604 5.3686C43.1859 6.28479 43.5055 7.28976 43.6192 8.38351H37.6319Z" fill="white"/>
<path d="M49.918 23.3409C49.0942 23.3409 48.3875 23.0533 47.798 22.478C47.2156 21.8956 46.928 21.1889 46.9351 20.3579C46.928 19.5483 47.2156 18.8558 47.798 18.2805C48.3875 17.7052 49.0942 17.4176 49.918 17.4176C50.6993 17.4176 51.3882 17.7052 51.9848 18.2805C52.5885 18.8558 52.8939 19.5483 52.901 20.3579C52.8939 20.9119 52.7483 21.4162 52.4642 21.8707C52.1872 22.3182 51.825 22.6768 51.3775 22.9467C50.9301 23.2095 50.4436 23.3409 49.918 23.3409Z" fill="#1ABBC9"/>
</svg>
