<svg width="474" height="475" viewBox="0 0 474 475" fill="none" xmlns="http://www.w3.org/2000/svg">
<path d="M327.677 471.232L470.977 327.932C475.677 323.232 474.677 316.732 468.177 313.932L428.177 294.432L294.177 428.432L313.677 468.432C317.377 474.932 322.977 475.832 327.677 471.232Z" fill="white"/>
<path d="M405.776 270.232L394.676 138.032C394.076 132.832 393.176 128.032 389.876 124.432C386.376 120.532 381.676 119.632 380.676 119.332C371.176 117.032 235.976 69.6321 42.5764 1.33214C35.4764 -1.16786 29.7764 7.73214 35.1764 13.0321L148.876 126.732C155.376 123.932 161.876 122.032 169.376 122.032C195.476 122.032 217.776 143.432 217.776 170.432C217.776 196.532 196.376 218.832 169.376 218.832C143.276 218.832 120.976 197.432 120.976 170.432C120.976 163.032 122.876 155.532 125.676 149.932L13.0764 36.0321C7.77638 30.6321 -1.22363 36.2321 1.27637 43.4321C69.5764 236.432 116.876 371.432 119.176 380.932C119.376 381.932 120.376 386.632 124.276 390.132C127.876 393.332 132.676 394.332 137.876 394.932L269.076 406.132L405.776 270.232Z" fill="white"/>
</svg>
