<svg width="130" height="31" viewBox="0 0 130 31" fill="none" xmlns="http://www.w3.org/2000/svg">
<g clip-path="url(#clip0_497_764)">
<path fill-rule="evenodd" clip-rule="evenodd" d="M15.9319 6.52637C15.9319 6.52637 13.5532 8.86496 13.1107 9.24567C12.8341 9.5176 12.6681 9.84391 12.6128 10.1702C12.6128 10.2246 12.6128 10.279 12.6128 10.3334C12.6128 10.3878 12.6128 10.4422 12.6128 10.4965C12.6128 10.5509 12.6128 10.6053 12.6128 10.6597C12.6128 10.7141 12.6128 10.7685 12.6128 10.8229C12.6681 11.1492 12.8341 11.4755 13.1107 11.7474L18.4213 16.9685C18.8085 17.2948 19.2511 17.5123 19.749 17.5123C20.2468 17.5123 20.6894 17.3492 21.0766 16.9685C21.4639 16.6422 21.6298 16.1527 21.6298 15.7176C21.6298 15.2825 21.4639 14.793 21.0766 14.4667L17.3702 10.8229L17.0936 10.5509C16.8724 10.3334 16.7064 10.1158 16.5405 9.8983C16.4298 9.73514 16.3192 9.57198 16.2639 9.40882C16.2085 9.24567 16.1532 9.13689 16.0979 8.97374C16.0426 8.86496 16.0426 8.75619 15.9873 8.64742C15.8766 8.3211 15.8213 7.99479 15.8213 7.61409C15.8213 7.50531 15.8213 7.39654 15.8213 7.28777C15.8213 7.07023 15.8766 6.7983 15.9319 6.52637Z" fill="white"/>
<path fill-rule="evenodd" clip-rule="evenodd" d="M18.4766 4.07877L16.5957 5.9279L16.3745 6.63491C16.2638 6.96123 16.2085 7.34193 16.2085 7.66825C16.2085 8.59281 16.5957 9.51737 17.3702 10.2788L21.0766 6.63491C21.4638 6.3086 21.6298 5.81912 21.6298 5.38404C21.6298 4.94895 21.4638 4.45947 21.0766 4.13316C20.6893 3.80684 20.2468 3.5893 19.7489 3.5893C19.3064 3.53491 18.8638 3.69807 18.4766 4.07877Z" fill="white"/>
<path fill-rule="evenodd" clip-rule="evenodd" d="M14.7702 0.543558L11.0639 4.13303L10.7873 4.40496C10.566 4.62251 10.3447 4.78566 10.1234 4.94882C9.95748 5.05759 9.79152 5.16637 9.62556 5.22075C9.4596 5.27514 9.34897 5.32952 9.18301 5.38391C9.07237 5.43829 8.96173 5.43829 8.85109 5.49268C8.51918 5.60145 8.18726 5.65584 7.80003 5.65584C7.68939 5.65584 7.57875 5.65584 7.46811 5.65584C7.19152 5.65584 6.91492 5.60145 6.58301 5.49268C6.58301 5.49268 8.96173 7.77689 9.40428 8.21198C9.68088 8.48391 10.0128 8.64707 10.3447 8.70145C10.4 8.70145 10.4553 8.70145 10.5107 8.70145C10.566 8.70145 10.6213 8.70145 10.6766 8.70145C10.7319 8.70145 10.7873 8.70145 10.8426 8.70145C10.8979 8.70145 10.9532 8.70145 11.0085 8.70145C11.3405 8.64707 11.6724 8.48391 11.949 8.21198L17.2596 2.99093C17.6468 2.66461 17.8128 2.17514 17.8128 1.74005C17.8128 1.30496 17.6468 0.815488 17.2596 0.489172C16.8724 0.162856 16.4298 -0.0546875 15.9319 -0.0546875C15.4341 -0.0546875 15.1575 0.162856 14.7702 0.543558Z" fill="white"/>
<path fill-rule="evenodd" clip-rule="evenodd" d="M4.0936 0.54386C3.70636 0.870175 3.54041 1.35965 3.54041 1.79474C3.54041 2.22982 3.70636 2.7193 4.0936 3.04561L6.02977 4.89474L6.74892 5.11228C7.08083 5.22105 7.46806 5.27544 7.79998 5.27544C8.74041 5.27544 9.68083 4.89474 10.4553 4.13333L6.74892 0.54386C6.36168 0.217544 5.91913 0 5.42126 0C4.9787 0 4.48083 0.163158 4.0936 0.54386Z" fill="white"/>
<path fill-rule="evenodd" clip-rule="evenodd" d="M0.553191 14.4668C0.165957 14.7931 0 15.2826 0 15.7177C0 16.1528 0.165957 16.6422 0.553191 16.9686C0.940426 17.2949 1.38298 17.5124 1.88085 17.5124C2.37872 17.5124 2.82128 17.3493 3.20851 16.9686L5.14468 15.1194L5.36596 14.4124C5.4766 14.0861 5.53191 13.7054 5.53191 13.3791C5.53191 12.4545 5.14468 11.53 4.37021 10.7686L0.553191 14.4668Z" fill="white"/>
<path fill-rule="evenodd" clip-rule="evenodd" d="M10.6766 12.2373C10.6213 12.2373 10.566 12.2373 10.5107 12.2373C10.1788 12.2917 9.84685 12.4548 9.57025 12.7268L4.25961 17.9478C3.87238 18.2741 3.70642 18.7636 3.70642 19.1987C3.70642 19.6338 3.87238 20.1233 4.25961 20.4496C4.64685 20.7759 5.0894 20.9934 5.58727 20.9934C6.08514 20.9934 6.5277 20.8303 6.91493 20.4496L10.6213 16.8057L10.8979 16.5338C11.1192 16.3163 11.3405 16.1531 11.5617 15.9899C11.7277 15.8812 11.8937 15.7724 12.0596 15.718C12.2256 15.6636 12.3362 15.6092 12.5022 15.5548C12.6128 15.5005 12.7234 15.5005 12.8341 15.4461C13.166 15.3373 13.4979 15.2829 13.8851 15.2829C13.9958 15.2829 14.1064 15.2829 14.2171 15.2829C14.4937 15.2829 14.7703 15.3373 15.1022 15.4461C15.1022 15.4461 12.7234 13.1619 12.2809 12.7268C12.0043 12.4548 11.6724 12.2917 11.3405 12.2373C11.2851 12.2373 11.2298 12.2373 11.1745 12.2373C11.1192 12.2373 11.0639 12.2373 11.0085 12.2373C10.8426 12.2373 10.732 12.2373 10.6766 12.2373Z" fill="white"/>
<path d="M64.0595 29.1513C64.0595 29.2601 63.9489 29.4232 63.7829 29.4232C63.6723 29.4232 63.5063 29.3144 63.5063 29.1513V25.1811C63.5063 25.0723 63.617 24.9092 63.7829 24.9092C63.8936 24.9092 64.0595 25.018 64.0595 25.1811V29.1513Z" fill="white"/>
<path fill-rule="evenodd" clip-rule="evenodd" d="M13.8298 15.7715C12.8893 15.7715 11.9489 16.1522 11.1744 16.9136L14.8808 20.5574C15.2681 20.8838 15.7106 21.1013 16.2085 21.1013C16.7064 21.1013 17.1489 20.9381 17.5361 20.5574C17.9234 20.2311 18.0893 19.7417 18.0893 19.3066C18.0893 18.8715 17.9234 18.382 17.5361 18.0557L15.6 16.2066L14.8808 15.989C14.5489 15.8259 14.1617 15.7715 13.8298 15.7715Z" fill="white"/>
<path d="M67.1575 29.4226V29.0419C66.9915 29.205 66.7149 29.4226 66.2724 29.4226C65.3873 29.4226 64.8894 28.9331 64.8894 27.8998C64.8894 26.8664 65.3873 26.377 66.2724 26.377C67.0469 26.377 67.6 26.812 67.6 27.6822V29.477C67.6 30.3471 66.9915 30.7278 66.2171 30.7278C65.7192 30.7278 65.332 30.5647 65.1107 30.2927C65.1107 30.2927 65.0554 30.2384 65.0554 30.184C65.0554 30.0752 65.1107 30.0208 65.2213 30.0208C65.2766 30.0208 65.332 30.0208 65.3873 30.0752C65.4979 30.184 65.7745 30.4015 66.1617 30.4015C66.7149 30.2927 67.1575 29.9664 67.1575 29.4226ZM67.1575 27.5734C67.1575 26.9752 66.7703 26.6489 66.2724 26.6489C65.6639 26.6489 65.332 27.0296 65.332 27.791C65.332 28.6068 65.6639 28.9331 66.2724 28.9331C66.8809 28.9331 67.1575 28.3892 67.1575 28.3892V27.5734Z" fill="white"/>
<path d="M68.6511 26.5946V28.2262C68.6511 28.6613 68.7617 29.042 69.4809 29.042C70.1447 29.042 70.3107 28.6613 70.3107 28.2262V26.5946C70.3107 26.4858 70.4213 26.4315 70.4766 26.4315C70.5873 26.4315 70.6426 26.4858 70.6426 26.5946V28.2262C70.6426 28.8244 70.4766 29.3683 69.3702 29.3683C68.3745 29.3683 68.0979 28.8244 68.0979 28.2262V26.5946C68.0979 26.4858 68.1532 26.4315 68.2639 26.4315C68.5958 26.3771 68.6511 26.4858 68.6511 26.5946Z" fill="white"/>
<path d="M71.8042 27.0303C71.7489 27.0846 71.6936 27.0846 71.6383 27.0846C71.5277 27.0846 71.4723 27.0303 71.4723 26.9215C71.4723 26.8671 71.4723 26.8671 71.5277 26.8127C71.6936 26.4864 72.0808 26.3232 72.5787 26.3232C73.3532 26.3232 73.7404 26.7583 73.7404 27.411V29.2057C73.7404 29.3145 73.6851 29.3689 73.5745 29.3689C73.4638 29.3689 73.4085 29.3145 73.4085 29.2057V29.0425C73.2425 29.3689 72.8553 29.532 72.4681 29.532C71.8042 29.532 71.3617 29.2057 71.3617 28.6075C71.3617 28.0636 71.8042 27.6829 72.4681 27.6829H73.4085V27.5197C73.4085 27.0846 73.0766 26.7583 72.634 26.7583C72.2468 26.7039 72.0255 26.8671 71.8042 27.0303ZM73.4085 28.2268V27.9548H72.4681C72.0255 27.9548 71.6936 28.118 71.6936 28.4987C71.6936 28.825 71.9702 29.0425 72.4681 29.0425C72.9106 29.0425 73.4085 28.825 73.4085 28.2268Z" fill="white"/>
<path d="M74.9574 24.9627V28.6609C74.9574 28.9328 75.0127 29.0416 75.234 29.0416C75.3447 29.0416 75.4 29.096 75.4 29.2048C75.4 29.3135 75.3447 29.3679 75.234 29.3679C74.7915 29.3679 74.5702 29.096 74.5702 28.6065V24.9083C74.5702 24.7995 74.6808 24.7451 74.7361 24.7451C74.9021 24.7451 74.9574 24.7995 74.9574 24.9627Z" fill="white"/>
<path d="M77.8893 27.0303C77.834 27.0846 77.7787 27.0846 77.7234 27.0846C77.6127 27.0846 77.5574 27.0303 77.5574 26.9215C77.5574 26.8671 77.5574 26.8671 77.6127 26.8127C77.7787 26.4864 78.1659 26.3232 78.6638 26.3232C79.4383 26.3232 79.8255 26.7583 79.8255 27.411V29.2057C79.8255 29.3145 79.7702 29.3689 79.6595 29.3689C79.5489 29.3689 79.4936 29.3145 79.4936 29.2057V29.0425C79.3276 29.3689 78.9404 29.532 78.5532 29.532C77.8893 29.532 77.4468 29.2057 77.4468 28.6075C77.4468 28.0636 77.8893 27.6829 78.5532 27.6829H79.4936V27.5197C79.4936 27.0846 79.1617 26.7583 78.7191 26.7583C78.3319 26.7039 78.0553 26.8671 77.8893 27.0303ZM79.4383 28.2268V27.9548H78.4978C78.0553 27.9548 77.7234 28.118 77.7234 28.4987C77.7234 28.825 78 29.0425 78.4978 29.0425C78.9957 29.0425 79.4383 28.825 79.4383 28.2268Z" fill="white"/>
<path d="M84.6937 27.4653V29.2057C84.6937 29.3145 84.6383 29.3689 84.5277 29.3689C84.4171 29.3689 84.3617 29.3145 84.3617 29.2057V27.5741C84.3617 27.0846 84.2511 26.7039 83.532 26.7039C82.9234 26.7039 82.6469 27.0846 82.6469 27.6285V29.2057C82.6469 29.3145 82.5915 29.3689 82.4809 29.3689C82.3703 29.3689 82.3149 29.3145 82.3149 29.2057V26.5952C82.3149 26.4864 82.3703 26.432 82.4809 26.432C82.5915 26.432 82.6469 26.4864 82.6469 26.5952V26.7583C82.7575 26.4864 83.0894 26.3232 83.532 26.3232C84.4724 26.3776 84.6937 26.9215 84.6937 27.4653Z" fill="white"/>
<path d="M86.6298 26.377C87.6809 26.377 87.9021 27.1927 87.9021 27.6822C87.9021 27.8454 87.9021 28.1173 87.6255 28.1173H85.6894C85.6894 28.7156 86.0766 29.1506 86.6851 29.1506C87.0723 29.1506 87.2936 29.0419 87.5149 28.8243C87.5702 28.8243 87.5702 28.7699 87.6255 28.7699C87.7362 28.7699 87.7915 28.8243 87.7915 28.9331C87.7915 28.9875 87.7362 29.0419 87.7362 29.0419C87.6255 29.1506 87.2936 29.4226 86.7404 29.4226C85.8553 29.4226 85.3021 28.9331 85.3021 27.8998C85.3021 26.9208 85.8 26.377 86.6298 26.377ZM86.6298 26.7033C86.0766 26.7033 85.7447 27.084 85.6894 27.6278H87.4596C87.5149 27.1384 87.2936 26.7033 86.6298 26.7033Z" fill="white"/>
<path d="M91.0554 27.4653V29.2057C91.0554 29.3145 91 29.3689 90.8894 29.3689C90.7788 29.3689 90.7234 29.3145 90.7234 29.2057V27.5741C90.7234 27.0846 90.6128 26.7039 89.8937 26.7039C89.2851 26.7039 89.0085 27.0846 89.0085 27.6285V29.2057C89.0085 29.3145 88.9532 29.3689 88.8426 29.3689C88.732 29.3689 88.6766 29.3145 88.6766 29.2057V26.5952C88.6766 26.4864 88.732 26.432 88.8426 26.432C88.9532 26.432 89.0085 26.4864 89.0085 26.5952V26.7583C89.1192 26.4864 89.4511 26.3232 89.8937 26.3232C90.8894 26.3776 91.0554 26.9215 91.0554 27.4653Z" fill="white"/>
<path d="M113.57 26.8664C113.681 26.5401 114.013 26.377 114.511 26.377C114.621 26.377 114.677 26.4313 114.677 26.5401C114.677 26.6489 114.621 26.7033 114.511 26.7033C113.902 26.7033 113.57 27.1384 113.57 27.6822V29.1506C113.57 29.2594 113.515 29.3138 113.404 29.3138C113.294 29.3138 113.238 29.2594 113.238 29.1506V26.5401C113.238 26.4313 113.294 26.377 113.404 26.377C113.515 26.377 113.57 26.4313 113.57 26.5401V26.8664Z" fill="white"/>
<path d="M94.3744 27.4647V29.2051C94.3744 29.3138 94.3191 29.3682 94.2085 29.3682C94.0979 29.3682 94.0425 29.3138 94.0425 29.2051V27.5735C94.0425 27.084 93.9319 26.7033 93.2127 26.7033C92.6042 26.7033 92.3276 27.084 92.3276 27.6279V29.2051C92.3276 29.3138 92.2723 29.3682 92.1617 29.3682C92.051 29.3682 91.9957 29.3138 91.9957 29.2051V24.963C91.9957 24.8542 92.051 24.7998 92.1617 24.7998C92.2723 24.7998 92.3276 24.8542 92.3276 24.963V26.8121C92.4383 26.5402 92.7702 26.377 93.2127 26.377C94.0978 26.377 94.3744 26.9209 94.3744 27.4647Z" fill="white"/>
<path d="M95.4808 26.5946V28.2262C95.4808 28.6613 95.5914 29.042 96.3106 29.042C96.9744 29.042 97.1404 28.6613 97.1404 28.2262V26.5946C97.1404 26.4858 97.251 26.4315 97.3063 26.4315C97.417 26.4315 97.4723 26.4858 97.4723 26.5946V28.2262C97.4723 28.8244 97.3063 29.3683 96.1999 29.3683C95.2042 29.3683 94.9276 28.8244 94.9276 28.2262V26.5946C94.9276 26.4858 94.9829 26.4315 95.0936 26.4315C95.3702 26.3771 95.4808 26.4858 95.4808 26.5946Z" fill="white"/>
<path d="M102.783 27.4647V29.205C102.783 29.3138 102.728 29.3682 102.617 29.3682C102.506 29.3682 102.451 29.3138 102.451 29.205V27.5734C102.451 27.084 102.285 26.7033 101.621 26.7033C101.068 26.7033 100.791 27.0296 100.791 27.5191V29.2594C100.791 29.3682 100.736 29.4226 100.625 29.4226C100.515 29.4226 100.46 29.3682 100.46 29.2594V27.6278C100.46 27.1384 100.294 26.7577 99.6297 26.7577C99.0212 26.7577 98.7999 27.1384 98.7999 27.6822V29.2594C98.7999 29.3682 98.7446 29.4226 98.634 29.4226C98.5233 29.4226 98.468 29.3682 98.468 29.2594V26.6489C98.468 26.5401 98.5233 26.4857 98.634 26.4857C98.7446 26.4857 98.7999 26.5401 98.7999 26.6489V26.812C98.9106 26.5401 99.2425 26.377 99.685 26.377C100.238 26.377 100.57 26.5401 100.736 26.812C100.902 26.5401 101.179 26.377 101.677 26.377C102.617 26.377 102.783 26.9208 102.783 27.4647Z" fill="white"/>
<path d="M103.889 27.0303C103.834 27.0846 103.779 27.0846 103.723 27.0846C103.613 27.0846 103.557 27.0303 103.557 26.9215C103.557 26.8671 103.557 26.8671 103.613 26.8127C103.779 26.4864 104.166 26.3232 104.664 26.3232C105.438 26.3232 105.826 26.7583 105.826 27.411V29.2057C105.826 29.3145 105.77 29.3689 105.66 29.3689C105.549 29.3689 105.494 29.3145 105.494 29.2057V29.0425C105.328 29.3689 104.94 29.532 104.553 29.532C103.889 29.532 103.447 29.2057 103.447 28.6075C103.447 28.0636 103.889 27.6829 104.553 27.6829H105.494V27.5197C105.494 27.0846 105.162 26.7583 104.719 26.7583C104.332 26.7039 104.166 26.8671 103.889 27.0303ZM105.494 28.2268V27.9548H104.553C104.111 27.9548 103.779 28.118 103.779 28.4987C103.779 28.825 104.055 29.0425 104.553 29.0425C105.051 29.0425 105.494 28.825 105.494 28.2268Z" fill="white"/>
<path d="M108.149 26.7576C108.038 26.7576 107.983 26.7032 107.983 26.5945C107.983 26.4857 108.038 26.4313 108.149 26.4313H108.426V26.0506C108.426 25.5068 108.758 24.9629 109.532 24.9629C109.643 24.9629 109.698 25.0173 109.698 25.126C109.698 25.2348 109.643 25.2892 109.532 25.2892C109.034 25.2892 108.868 25.6155 108.868 26.0506V26.4313H109.477C109.587 26.4313 109.643 26.4857 109.643 26.5945C109.643 26.7032 109.587 26.7576 109.477 26.7576H108.868V29.1506C108.868 29.2594 108.813 29.3138 108.702 29.3138C108.592 29.3138 108.536 29.2594 108.536 29.1506V26.7576H108.149V26.7576Z" fill="white"/>
<path d="M110.417 27.0303C110.362 27.0846 110.306 27.0846 110.251 27.0846C110.14 27.0846 110.085 27.0303 110.085 26.9215C110.085 26.8671 110.085 26.8671 110.14 26.8127C110.306 26.4864 110.694 26.3232 111.192 26.3232C111.966 26.3232 112.353 26.7583 112.353 27.411V29.2057C112.353 29.3145 112.298 29.3689 112.187 29.3689C112.077 29.3689 112.021 29.3145 112.021 29.2057V29.0425C111.855 29.3689 111.468 29.532 111.081 29.532C110.417 29.532 109.974 29.2057 109.974 28.6075C109.974 28.0636 110.417 27.6829 111.081 27.6829H112.021V27.5197C112.021 27.0846 111.689 26.7583 111.247 26.7583C110.86 26.7039 110.638 26.8671 110.417 27.0303ZM111.966 28.2268V27.9548H111.026C110.583 27.9548 110.251 28.118 110.251 28.4987C110.251 28.825 110.528 29.0425 111.026 29.0425C111.523 29.0425 111.966 28.825 111.966 28.2268Z" fill="white"/>
<path d="M119.711 27.4647V29.205C119.711 29.3138 119.655 29.3682 119.545 29.3682C119.434 29.3682 119.379 29.3138 119.379 29.205V27.5734C119.379 27.084 119.213 26.7033 118.549 26.7033C117.996 26.7033 117.719 27.0296 117.719 27.5191V29.2594C117.719 29.3682 117.664 29.4226 117.553 29.4226C117.443 29.4226 117.387 29.3682 117.387 29.2594V27.6278C117.387 27.1384 117.221 26.7577 116.557 26.7577C115.949 26.7577 115.728 27.1384 115.728 27.6822V29.2594C115.728 29.3682 115.672 29.4226 115.562 29.4226C115.451 29.4226 115.396 29.3682 115.396 29.2594V26.6489C115.396 26.5401 115.451 26.4857 115.562 26.4857C115.672 26.4857 115.728 26.5401 115.728 26.6489V26.812C115.838 26.5401 116.17 26.377 116.613 26.377C117.166 26.377 117.498 26.5401 117.664 26.812C117.83 26.5401 118.106 26.377 118.604 26.377C119.434 26.377 119.711 26.9208 119.711 27.4647Z" fill="white"/>
<path d="M120.817 27.0293C120.762 27.0836 120.706 27.0836 120.651 27.0836C120.54 27.0836 120.485 27.0293 120.485 26.9205C120.485 26.8661 120.485 26.8661 120.54 26.8117C120.706 26.4854 121.094 26.3222 121.592 26.3222C122.366 26.3222 122.753 26.7573 122.753 27.41V29.2047C122.753 29.3135 122.698 29.3679 122.587 29.3679C122.477 29.3679 122.421 29.3135 122.421 29.2047V29.0415C122.255 29.3679 121.868 29.531 121.481 29.531C120.817 29.531 120.375 29.2047 120.375 28.6065C120.375 28.0626 120.817 27.6819 121.481 27.6819H122.421V27.5187C122.421 27.0836 122.089 26.7573 121.647 26.7573C121.26 26.7029 121.038 26.8661 120.817 27.0293ZM122.366 28.2258V27.9538H121.426C120.983 27.9538 120.651 28.117 120.651 28.4977C120.651 28.824 120.928 29.0415 121.426 29.0415C121.923 29.0415 122.366 28.824 122.366 28.2258ZM121.204 25.7784L121.757 25.1258C121.813 25.0714 121.868 25.0714 122.034 25.1258C122.145 25.1801 122.089 25.2889 122.034 25.3977L121.426 25.9959C121.37 26.0503 121.315 26.0503 121.26 25.9959C121.149 25.9415 121.204 25.8328 121.204 25.7784Z" fill="white"/>
<path d="M124.689 26.377C125.243 26.377 125.63 26.7033 125.685 26.812C125.74 26.8664 125.74 26.8664 125.74 26.9208C125.74 27.0296 125.685 27.084 125.574 27.084C125.519 27.084 125.464 27.084 125.409 27.0296C125.298 26.9208 125.132 26.7033 124.745 26.7033C124.136 26.7033 123.804 27.084 123.804 27.8454C123.804 28.6612 124.136 28.9875 124.745 28.9875C125.132 28.9875 125.353 28.8243 125.519 28.6612C125.574 28.6068 125.574 28.6068 125.63 28.6068C125.74 28.6068 125.796 28.6612 125.796 28.7699C125.796 28.8243 125.796 28.8787 125.74 28.9331C125.63 29.0419 125.298 29.3138 124.745 29.3138C123.86 29.3138 123.362 28.8243 123.362 27.791C123.306 26.8664 123.86 26.377 124.689 26.377Z" fill="white"/>
<path d="M126.46 25.5073C126.46 25.3441 126.515 25.2354 126.736 25.2354C126.902 25.2354 127.013 25.2897 127.013 25.5073C127.013 25.6704 126.957 25.7792 126.736 25.7792C126.515 25.7248 126.46 25.6704 126.46 25.5073ZM126.902 29.1511C126.902 29.2599 126.847 29.3143 126.736 29.3143C126.626 29.3143 126.57 29.2599 126.57 29.1511V26.5406C126.57 26.4318 126.626 26.3775 126.736 26.3775C126.847 26.3775 126.902 26.4318 126.902 26.5406V29.1511Z" fill="white"/>
<path d="M128.064 27.0303C128.008 27.0846 127.953 27.0846 127.898 27.0846C127.787 27.0846 127.732 27.0303 127.732 26.9215C127.732 26.8671 127.732 26.8671 127.787 26.8127C127.953 26.4864 128.34 26.3232 128.838 26.3232C129.613 26.3232 130 26.7583 130 27.411V29.2057C130 29.3145 129.945 29.3689 129.834 29.3689C129.723 29.3689 129.668 29.3145 129.668 29.2057V29.0425C129.502 29.3689 129.115 29.532 128.728 29.532C128.064 29.532 127.621 29.2057 127.621 28.6075C127.621 28.0636 128.064 27.6829 128.728 27.6829H129.668V27.5197C129.668 27.0846 129.336 26.7583 128.894 26.7583C128.506 26.7039 128.23 26.8671 128.064 27.0303ZM129.613 28.2268V27.9548H128.672C128.23 27.9548 127.898 28.118 127.898 28.4987C127.898 28.825 128.174 29.0425 128.672 29.0425C129.17 29.0425 129.613 28.825 129.613 28.2268Z" fill="white"/>
<path d="M51.2255 18.9808C47.9064 18.9808 45.3617 16.8598 45.3617 13.0527V5.65625H45.9702C47.8511 5.65625 48.7362 6.47204 48.7362 7.99485V12.7808C48.7362 15.1738 49.8979 16.1527 51.4468 16.1527C52.8298 16.1527 53.7702 15.2282 53.7702 13.0527V5.65625H54.3234C56.2596 5.65625 57.0894 6.47204 57.0894 7.99485V12.8896C57.034 16.9141 55.0979 18.9808 51.2255 18.9808Z" fill="white"/>
<path d="M77.6127 18.8179C74.8468 18.8179 73.3531 17.4039 73.3531 14.7934V1.30566H74.2936C75.8978 1.30566 76.6723 2.23023 76.6723 3.53549V14.5215C76.6723 15.8267 77.3361 16.2618 78.9404 16.2618H79.8255V16.8601C79.8808 18.2741 79.051 18.8179 77.6127 18.8179Z" fill="white"/>
<path d="M83.366 4.67713C82.3149 4.67713 81.4298 3.80696 81.4298 2.77363C81.4298 1.74029 82.3149 0.870117 83.366 0.870117C84.417 0.870117 85.3022 1.74029 85.3022 2.77363C85.3022 3.80696 84.417 4.67713 83.366 4.67713ZM85.7447 18.8175C83.2 18.8175 81.7617 17.4034 81.7617 14.7929C81.7617 14.0315 81.7617 5.9824 81.7617 5.9824H82.7022C84.1958 5.9824 85.0809 6.79819 85.0809 8.42977V14.5754C85.0809 15.8806 85.6341 16.3157 87.0724 16.3157H87.6809V16.9684C87.6809 18.2736 87.1277 18.8175 85.7447 18.8175Z" fill="white"/>
<path d="M95.0937 18.9804C91.6086 18.9804 88.8979 15.9892 88.8979 12.3997C88.8979 8.10323 91.0001 5.32955 94.8724 5.32955C96.2001 5.32955 97.6937 6.25411 98.1916 7.39622V1.35938H99.1873C100.736 1.35938 101.455 2.28394 101.455 3.5892V12.7804C101.455 16.4243 99.6852 18.9804 95.0937 18.9804ZM94.9277 8.04885C93.2682 8.04885 92.1618 9.62604 92.1618 11.7471C92.1618 14.4664 93.6001 16.2067 95.4809 16.2067C97.3618 16.2067 98.1916 14.8471 98.1916 12.4541C98.1916 9.24534 96.7533 8.04885 94.9277 8.04885Z" fill="white"/>
<path d="M110.638 5.33008C114.621 5.33008 116.945 8.43008 116.945 11.9652C116.945 15.881 114.621 19.0353 110.417 19.0353C106.434 19.0353 104.111 15.9353 104.111 12.4546C104.111 8.48446 106.379 5.33008 110.638 5.33008ZM110.417 8.21253C108.536 8.21253 107.54 9.73534 107.54 11.9108C107.54 14.4669 108.481 16.0985 110.749 16.0985C112.685 16.0985 113.625 14.5757 113.625 12.4003C113.515 9.73534 112.519 8.21253 110.417 8.21253Z" fill="white"/>
<path d="M126.017 8.48409C124.247 8.75602 122.421 10.0613 122.421 11.9104C122.421 13.3788 122.974 14.5209 123.915 15.228C124.745 15.8262 125.574 15.8262 126.128 15.8806C127.123 15.935 128.008 15.6087 128.617 15.3367C129.115 15.0648 129.723 15.4455 129.723 15.9894V16.0981C129.723 17.6753 128.174 18.8174 125.796 18.8174C122.2 18.8174 118.991 16.0437 118.991 12.3455C118.991 8.59286 121.591 5.43848 126.183 5.43848C128.285 5.43848 129.779 6.74374 129.779 8.26655V8.32093C129.779 8.86479 129.17 9.24549 128.672 8.97356C127.953 8.64725 127.068 8.32093 126.017 8.48409Z" fill="white"/>
<path d="M65.7191 18.981H65.0553C61.8468 18.981 59.634 17.2406 59.634 14.7388C59.634 12.8353 60.7957 10.5511 66.3276 10.5511H67.3787V10.4967C67.3787 8.75639 66.6042 8.15815 64.6128 8.15815C63.6723 8.15815 62.8425 8.26692 62.1234 8.59324H62.0681C61.9574 8.59324 61.9021 8.64762 61.7362 8.64762C61.1276 8.64762 60.6298 8.15815 60.6298 7.5599C60.6298 7.28797 60.6851 7.12482 60.7957 6.96166L60.8511 6.85289C61.4042 6.09148 62.6766 5.33008 65.1659 5.33008C67.7659 5.33008 70.9191 6.36341 70.9191 11.2581V14.2494C70.8085 17.0231 68.7064 18.981 65.7191 18.981ZM66.2723 13.0529C63.6723 13.0529 63.1745 13.6511 63.1745 14.5757C63.1745 15.5546 64.0042 16.0985 65.3319 16.0985C66.7149 16.0985 67.3234 15.5003 67.3234 14.195V13.0529H66.2723Z" fill="white"/>
<path d="M26.7191 10.6054C26.7191 5.71071 29.2638 1.79492 34.9617 1.79492C38.834 1.79492 42.5957 4.78615 42.5957 10.116C42.5957 14.3581 40.051 17.2949 37.7829 17.73C39.1106 18.1651 41.5446 18.3283 43.1489 18.3283V19.3616C43.1489 20.3405 42.651 20.9388 41.3234 20.9388C38.834 20.9388 35.1276 19.9598 33.0255 18.8177C30.1489 18.2739 26.7191 15.5546 26.7191 10.6054ZM34.4638 4.73176C31.7532 4.73176 30.1489 6.96159 30.1489 10.116C30.1489 14.1405 31.9191 16.0984 34.9063 16.0984C37.451 16.0984 39 13.6511 39 10.4967C39 6.74404 37.5617 4.73176 34.4638 4.73176Z" fill="white"/>
<path fill-rule="evenodd" clip-rule="evenodd" d="M0.553191 4.02433C0.165957 4.40503 0 4.84012 0 5.32959C0 5.76468 0.165957 6.25415 0.553191 6.58047L4.25957 10.2243L4.53617 10.4963C4.75745 10.7138 4.9234 10.9313 5.08936 11.1489C5.2 11.312 5.31064 11.4752 5.36596 11.6384C5.42128 11.8015 5.4766 11.9103 5.53191 12.0735C5.58723 12.1822 5.58723 12.291 5.64255 12.3998C5.75319 12.7261 5.80851 13.0524 5.80851 13.4331C5.80851 13.5419 5.80851 13.6506 5.80851 13.7594C5.80851 14.0313 5.75319 14.3033 5.64255 14.5752C5.64255 14.5752 8.02128 12.2366 8.46383 11.8559C8.74043 11.584 8.90638 11.2577 8.9617 10.9313C8.9617 10.877 8.9617 10.8226 8.9617 10.7682C8.9617 10.7138 8.9617 10.6594 8.9617 10.605C8.9617 10.5506 8.9617 10.4963 8.9617 10.4419C8.9617 10.3875 8.9617 10.3331 8.9617 10.2787C8.90638 9.9524 8.74043 9.62608 8.46383 9.35415L3.15319 4.02433C2.76596 3.69801 2.3234 3.48047 1.82553 3.48047C1.38298 3.53485 0.885106 3.69801 0.553191 4.02433Z" fill="white"/>
<mask id="mask0_497_764" style="mask-type:alpha" maskUnits="userSpaceOnUse" x="12" y="6" width="10" height="12">
<path fill-rule="evenodd" clip-rule="evenodd" d="M15.9319 6.52637C15.9319 6.52637 13.5532 8.86496 13.1107 9.24567C12.8341 9.5176 12.6681 9.84391 12.6128 10.1702C12.6128 10.2246 12.6128 10.279 12.6128 10.3334C12.6128 10.3878 12.6128 10.4422 12.6128 10.4965C12.6128 10.5509 12.6128 10.6053 12.6128 10.6597C12.6128 10.7141 12.6128 10.7685 12.6128 10.8229C12.6681 11.1492 12.8341 11.4755 13.1107 11.7474L18.4213 16.9685C18.8085 17.2948 19.2511 17.5123 19.749 17.5123C20.2468 17.5123 20.6894 17.3492 21.0766 16.9685C21.4639 16.6422 21.6298 16.1527 21.6298 15.7176C21.6298 15.2825 21.4639 14.793 21.0766 14.4667L17.3702 10.8229L17.0936 10.5509C16.8724 10.3334 16.7064 10.1158 16.5405 9.8983C16.4298 9.73514 16.3192 9.57198 16.2639 9.40882C16.2085 9.24567 16.1532 9.13689 16.0979 8.97374C16.0426 8.86496 16.0426 8.75619 15.9873 8.64742C15.8766 8.3211 15.8213 7.99479 15.8213 7.61409C15.8213 7.50531 15.8213 7.39654 15.8213 7.28777C15.8213 7.07023 15.8766 6.7983 15.9319 6.52637Z" fill="white"/>
</mask>
<g mask="url(#mask0_497_764)">
</g>
<mask id="mask1_497_764" style="mask-type:alpha" maskUnits="userSpaceOnUse" x="16" y="3" width="6" height="8">
<path fill-rule="evenodd" clip-rule="evenodd" d="M18.4766 4.07877L16.5957 5.9279L16.3745 6.63491C16.2638 6.96123 16.2085 7.34193 16.2085 7.66825C16.2085 8.59281 16.5957 9.51737 17.3702 10.2788L21.0766 6.63491C21.4638 6.3086 21.6298 5.81912 21.6298 5.38404C21.6298 4.94895 21.4638 4.45947 21.0766 4.13316C20.6893 3.80684 20.2468 3.5893 19.7489 3.5893C19.3064 3.53491 18.8638 3.69807 18.4766 4.07877Z" fill="white"/>
</mask>
<g mask="url(#mask1_497_764)">
</g>
<mask id="mask2_497_764" style="mask-type:alpha" maskUnits="userSpaceOnUse" x="6" y="-1" width="12" height="10">
<path fill-rule="evenodd" clip-rule="evenodd" d="M14.7702 0.543558L11.0639 4.13303L10.7873 4.40496C10.566 4.62251 10.3447 4.78566 10.1234 4.94882C9.95748 5.05759 9.79152 5.16637 9.62556 5.22075C9.4596 5.27514 9.34897 5.32952 9.18301 5.38391C9.07237 5.43829 8.96173 5.43829 8.85109 5.49268C8.51918 5.60145 8.18726 5.65584 7.80003 5.65584C7.68939 5.65584 7.57875 5.65584 7.46811 5.65584C7.19152 5.65584 6.91492 5.60145 6.58301 5.49268C6.58301 5.49268 8.96173 7.77689 9.40428 8.21198C9.68088 8.48391 10.0128 8.64707 10.3447 8.70145C10.4 8.70145 10.4553 8.70145 10.5107 8.70145C10.566 8.70145 10.6213 8.70145 10.6766 8.70145C10.7319 8.70145 10.7873 8.70145 10.8426 8.70145C10.8979 8.70145 10.9532 8.70145 11.0085 8.70145C11.3405 8.64707 11.6724 8.48391 11.949 8.21198L17.2596 2.99093C17.6468 2.66461 17.8128 2.17514 17.8128 1.74005C17.8128 1.30496 17.6468 0.815488 17.2596 0.489172C16.8724 0.162856 16.4298 -0.0546875 15.9319 -0.0546875C15.4341 -0.0546875 15.1575 0.162856 14.7702 0.543558Z" fill="white"/>
</mask>
<g mask="url(#mask2_497_764)">
</g>
<mask id="mask3_497_764" style="mask-type:alpha" maskUnits="userSpaceOnUse" x="3" y="0" width="8" height="6">
<path fill-rule="evenodd" clip-rule="evenodd" d="M4.0936 0.54386C3.70636 0.870175 3.54041 1.35965 3.54041 1.79474C3.54041 2.22982 3.70636 2.7193 4.0936 3.04561L6.02977 4.89474L6.74892 5.11228C7.08083 5.22105 7.46806 5.27544 7.79998 5.27544C8.74041 5.27544 9.68083 4.89474 10.4553 4.13333L6.74892 0.54386C6.36168 0.217544 5.91913 0 5.42126 0C4.9787 0 4.48083 0.163158 4.0936 0.54386Z" fill="white"/>
</mask>
<g mask="url(#mask3_497_764)">
</g>
<mask id="mask4_497_764" style="mask-type:alpha" maskUnits="userSpaceOnUse" x="0" y="3" width="9" height="12">
<path fill-rule="evenodd" clip-rule="evenodd" d="M0.553191 4.02433C0.165957 4.40503 0 4.84012 0 5.32959C0 5.76468 0.165957 6.25415 0.553191 6.58047L4.25957 10.2243L4.53617 10.4963C4.75745 10.7138 4.9234 10.9313 5.08936 11.1489C5.2 11.312 5.31064 11.4752 5.36596 11.6384C5.42128 11.8015 5.4766 11.9103 5.53191 12.0735C5.58723 12.1822 5.58723 12.291 5.64255 12.3998C5.75319 12.7261 5.80851 13.0524 5.80851 13.4331C5.80851 13.5419 5.80851 13.6506 5.80851 13.7594C5.80851 14.0313 5.75319 14.3033 5.64255 14.5752C5.64255 14.5752 8.02128 12.2366 8.46383 11.8559C8.74043 11.584 8.90638 11.2577 8.9617 10.9313C8.9617 10.877 8.9617 10.8226 8.9617 10.7682C8.9617 10.7138 8.9617 10.6594 8.9617 10.605C8.9617 10.5506 8.9617 10.4963 8.9617 10.4419C8.9617 10.3875 8.9617 10.3331 8.9617 10.2787C8.90638 9.9524 8.74043 9.62608 8.46383 9.35415L3.15319 4.02433C2.76596 3.69801 2.3234 3.48047 1.82553 3.48047C1.38298 3.53485 0.885106 3.69801 0.553191 4.02433Z" fill="white"/>
</mask>
<g mask="url(#mask4_497_764)">
</g>
<mask id="mask5_497_764" style="mask-type:alpha" maskUnits="userSpaceOnUse" x="0" y="10" width="6" height="8">
<path fill-rule="evenodd" clip-rule="evenodd" d="M0.553191 14.4668C0.165957 14.7931 0 15.2826 0 15.7177C0 16.1528 0.165957 16.6422 0.553191 16.9686C0.940426 17.2949 1.38298 17.5124 1.88085 17.5124C2.37872 17.5124 2.82128 17.3493 3.20851 16.9686L5.14468 15.1194L5.36596 14.4124C5.4766 14.0861 5.53191 13.7054 5.53191 13.3791C5.53191 12.4545 5.14468 11.53 4.37021 10.7686L0.553191 14.4668Z" fill="white"/>
</mask>
<g mask="url(#mask5_497_764)">
</g>
<mask id="mask6_497_764" style="mask-type:alpha" maskUnits="userSpaceOnUse" x="3" y="12" width="13" height="9">
<path fill-rule="evenodd" clip-rule="evenodd" d="M10.6766 12.2373C10.6213 12.2373 10.566 12.2373 10.5107 12.2373C10.1788 12.2917 9.84685 12.4548 9.57025 12.7268L4.25961 17.9478C3.87238 18.2741 3.70642 18.7636 3.70642 19.1987C3.70642 19.6338 3.87238 20.1233 4.25961 20.4496C4.64685 20.7759 5.0894 20.9934 5.58727 20.9934C6.08514 20.9934 6.5277 20.8303 6.91493 20.4496L10.6213 16.8057L10.8979 16.5338C11.1192 16.3163 11.3405 16.1531 11.5617 15.9899C11.7277 15.8812 11.8937 15.7724 12.0596 15.718C12.2256 15.6636 12.3362 15.6092 12.5022 15.5548C12.6128 15.5005 12.7234 15.5005 12.8341 15.4461C13.166 15.3373 13.4979 15.2829 13.8851 15.2829C13.9958 15.2829 14.1064 15.2829 14.2171 15.2829C14.4937 15.2829 14.7703 15.3373 15.1022 15.4461C15.1022 15.4461 12.7234 13.1619 12.2809 12.7268C12.0043 12.4548 11.6724 12.2917 11.3405 12.2373C11.2851 12.2373 11.2298 12.2373 11.1745 12.2373C11.1192 12.2373 11.0639 12.2373 11.0085 12.2373C10.8426 12.2373 10.732 12.2373 10.6766 12.2373Z" fill="white"/>
</mask>
<g mask="url(#mask6_497_764)">
</g>
<mask id="mask7_497_764" style="mask-type:alpha" maskUnits="userSpaceOnUse" x="11" y="15" width="8" height="7">
<path fill-rule="evenodd" clip-rule="evenodd" d="M13.8298 15.7715C12.8893 15.7715 11.9489 16.1522 11.1744 16.9136L14.8808 20.5574C15.2681 20.8838 15.7106 21.1013 16.2085 21.1013C16.7064 21.1013 17.1489 20.9381 17.5361 20.5574C17.9234 20.2311 18.0893 19.7417 18.0893 19.3066C18.0893 18.8715 17.9234 18.382 17.5361 18.0557L15.6 16.2066L14.8808 15.989C14.5489 15.8259 14.1617 15.7715 13.8298 15.7715Z" fill="white"/>
</mask>
<g mask="url(#mask7_497_764)">
</g>
</g>
<defs>
<clipPath id="clip0_497_764">
<rect width="130" height="31" fill="white"/>
</clipPath>
</defs>
</svg>
