<svg width="13" height="13" viewBox="0 0 13 13" fill="none" xmlns="http://www.w3.org/2000/svg">
<path d="M0 6.28899V6.27075C0.163029 4.13789 0.9248 2.5381 2.24818 1.52668C3.55358 0.497027 4.96805 0.000438163 6.50899 0.000438163C8.12246 -0.0178015 9.62744 0.533506 10.9694 1.63671C12.3293 2.72167 13 4.3397 13 6.4355V6.56435C13 8.67897 12.3293 10.2599 10.9694 11.3449C9.60945 12.4481 8.10448 13 6.49101 13H6.41849C4.84099 12.9818 3.39055 12.4299 2.04918 11.3267C0.707234 10.2417 0.0185656 8.56836 0.000580176 6.2884L0 6.28899ZM6.10983 3.40242V0.497027H5.6747C5.58419 0.607641 5.51167 0.735907 5.43915 0.846522C5.36663 0.957136 5.29411 1.06716 5.22158 1.19602C5.14906 1.30663 5.05855 1.45372 5.00402 1.56375C4.93149 1.67437 4.87696 1.78439 4.82242 1.91325C4.71335 2.09741 4.62284 2.28098 4.55032 2.44631C4.45981 2.61165 4.38729 2.77757 4.33275 2.92466C4.44183 2.99821 4.5683 3.09 4.71335 3.1453C4.87638 3.20061 5.03999 3.25592 5.20302 3.2924C5.38461 3.32947 5.54764 3.3477 5.69269 3.36594C5.85572 3.38418 6.00076 3.40301 6.10983 3.40301V3.40242ZM6.8716 0.497615V3.38418C6.96211 3.38418 7.07118 3.40242 7.17968 3.38418C7.28875 3.38418 7.41523 3.36594 7.5243 3.34712C7.72388 3.31005 7.95943 3.25533 8.14103 3.20002C8.34061 3.12648 8.52162 3.03469 8.64868 2.92407C8.43112 2.39101 8.19556 1.96796 7.95943 1.56316C7.7233 1.15836 7.45178 0.809454 7.16169 0.515266V0.497027H6.8716V0.497615ZM4.91351 0.662949V0.644709C4.78645 0.700016 4.65939 0.791803 4.51435 0.84711C4.38729 0.902417 4.22426 0.975964 4.0972 1.04951C3.84308 1.17837 3.58955 1.32546 3.33543 1.49079C3.09988 1.65613 2.86375 1.84029 2.66475 2.02386C2.73727 2.09741 2.82778 2.17095 2.9003 2.22626C2.97282 2.28157 3.06333 2.35512 3.15442 2.42866C3.22694 2.46573 3.31745 2.52045 3.40853 2.594C3.49904 2.6493 3.60811 2.72285 3.71661 2.7964C3.86165 2.46514 4.00669 2.11624 4.18829 1.80322C4.36988 1.47196 4.56888 1.15954 4.76847 0.883589C4.78645 0.846522 4.80502 0.810043 4.84099 0.772975C4.85897 0.754735 4.87754 0.700016 4.91351 0.662949ZM10.4612 2.02327V2.00503C10.008 1.65554 9.60887 1.36135 9.21029 1.17778C8.81171 0.994204 8.41255 0.810042 8.04994 0.662949C8.34003 0.957136 8.59414 1.32487 8.75717 1.67437C8.93877 2.0421 9.11978 2.42807 9.26483 2.79581C9.33735 2.75874 9.42786 2.72226 9.53693 2.64872C9.62744 2.59341 9.7545 2.5381 9.86357 2.48338C9.97264 2.40983 10.0632 2.33629 10.1716 2.26274C10.2807 2.17095 10.3892 2.09741 10.4617 2.02386L10.4612 2.02327ZM10.1531 6.12366H12.2382C12.2382 5.4435 12.0932 4.79981 11.8211 4.13789C11.567 3.49421 11.2044 2.96114 10.7512 2.50162V2.48338C10.6607 2.63048 10.5337 2.75933 10.4066 2.85112C10.2616 2.9429 10.1345 3.01645 9.98947 3.09C9.89896 3.1453 9.80787 3.21885 9.71737 3.25533C9.62686 3.31064 9.4998 3.34712 9.40929 3.40242C9.48181 3.54952 9.55434 3.71485 9.62686 3.86194C9.6814 4.02728 9.7719 4.21144 9.80845 4.37677C9.91753 4.67096 9.99005 4.98339 10.0626 5.2964C10.1171 5.57235 10.1531 5.86654 10.1531 6.12366ZM3.59013 3.40242V3.38418C3.44508 3.31064 3.28206 3.25533 3.155 3.18178C3.02794 3.09 2.90088 2.99762 2.79239 2.92407C2.68331 2.86877 2.57482 2.79522 2.48431 2.72167C2.39381 2.64813 2.32128 2.57458 2.24876 2.50103C1.77708 2.96055 1.43303 3.47538 1.21547 4.08259C0.979917 4.6892 0.816307 5.36995 0.743785 6.10542H2.97398C2.97398 5.59059 3.0465 5.094 3.17356 4.59741C3.28263 4.08259 3.44508 3.69661 3.59013 3.40242ZM6.10983 6.10542V3.9908C5.96479 4.00904 5.78319 4.00904 5.62016 3.9908C5.43857 3.97256 5.25755 3.91725 5.09452 3.86194C4.94948 3.82488 4.76789 3.7884 4.62284 3.73309C4.45981 3.69602 4.2962 3.62248 4.16972 3.54893C4.06065 3.73309 3.97014 3.95373 3.89762 4.19261C3.80711 4.41325 3.75258 4.65213 3.69804 4.87277C3.66149 5.09341 3.6435 5.33229 3.62552 5.5347C3.60753 5.7371 3.58897 5.9395 3.58897 6.10483H6.10925L6.10983 6.10542ZM6.8716 4.02787V6.10542H9.55492C9.55492 5.9948 9.55492 5.86654 9.53693 5.71944C9.50038 5.59059 9.48239 5.42526 9.46441 5.27816C9.40987 5.05752 9.35534 4.81864 9.28281 4.598C9.21029 4.3956 9.13777 4.1932 9.04726 4.02787C9.01071 3.93608 8.97474 3.82547 8.93819 3.75192C8.88365 3.66013 8.82912 3.60482 8.79315 3.54952C8.59356 3.69661 8.32146 3.7884 7.9954 3.86194C7.68733 3.93549 7.32472 4.00904 6.99808 4.02728H6.87102L6.8716 4.02787ZM2.9734 6.71203H0.743205C0.743205 7.02446 0.797742 7.37396 0.888249 7.797C0.978757 8.23828 1.16035 8.64308 1.35993 9.08436C1.45044 9.305 1.55951 9.52564 1.66801 9.74629C1.79506 9.94869 1.94011 10.1693 2.08515 10.3717C2.19423 10.2982 2.30272 10.2429 2.39323 10.1876C2.5023 10.1323 2.62878 10.0587 2.73785 10.0034C2.86491 9.9481 2.99197 9.89279 3.13701 9.81924C3.26407 9.76394 3.4271 9.69039 3.59013 9.61684C3.44508 9.15732 3.28205 8.71604 3.17298 8.21945C3.04592 7.7411 2.9734 7.26334 2.9734 6.73027V6.71203ZM6.10983 8.86313V6.71203H3.58955C3.58955 6.85913 3.60753 7.07977 3.64408 7.30041C3.66207 7.52105 3.71661 7.75993 3.75316 7.9994C3.82568 8.25711 3.88022 8.51423 3.95274 8.73487C4.02526 8.95551 4.09778 9.13967 4.1703 9.305C4.49694 9.17615 4.823 9.08436 5.04057 9.02906C5.27612 8.95551 5.49369 8.9002 5.71125 8.88196H5.91083C5.98335 8.86372 6.05588 8.86372 6.11041 8.86372L6.10983 8.86313ZM6.8716 6.71203V8.84489C6.99866 8.86313 7.14371 8.88196 7.28875 8.9002C7.45178 8.91844 7.65136 8.95551 7.81439 8.99199L8.08649 9.0473C8.177 9.08436 8.28607 9.1026 8.37658 9.12084C8.48565 9.15791 8.59415 9.17615 8.70322 9.21263C8.79373 9.2497 8.88481 9.26794 8.95734 9.30442C9.19289 8.6978 9.33793 8.20121 9.42902 7.77817C9.51953 7.37337 9.55608 7.02446 9.55608 6.73027V6.71203H6.87276H6.8716ZM12.2382 6.73027V6.71203H10.1531V6.82265C10.1351 7.17214 10.0806 7.57636 10.008 7.9994C9.93551 8.4042 9.77248 8.88196 9.55492 9.47034C9.845 9.61743 10.1171 9.76453 10.3347 9.91162C10.5522 10.0587 10.7518 10.224 10.8969 10.3711C11.2049 10.0587 11.477 9.63567 11.7126 9.08377C11.9481 8.55071 12.1118 7.99881 12.2023 7.41044C12.2202 7.29982 12.2202 7.1898 12.2388 7.07918V6.72969L12.2382 6.73027ZM6.10983 12.3198V9.45151C5.65671 9.52506 5.27554 9.61684 4.98545 9.69039C4.69536 9.76394 4.4778 9.83748 4.33275 9.91103C4.44183 10.187 4.55032 10.4259 4.65939 10.6465C4.76847 10.8489 4.89494 11.0695 5.00402 11.2531C5.04057 11.3267 5.11309 11.4002 5.16705 11.492C5.22158 11.5655 5.25755 11.6573 5.31209 11.7309C5.36663 11.8227 5.42116 11.9333 5.47512 12.0433C5.54764 12.1351 5.60218 12.2457 5.6747 12.3193L6.10983 12.3198ZM6.8716 12.3198H7.28875C7.45178 12.191 7.61539 12.0074 7.74187 11.805C7.88691 11.6026 8.04994 11.3637 8.15901 11.1613C8.28607 10.9224 8.41313 10.7018 8.52162 10.4812C8.63012 10.2605 8.7212 10.0581 8.79373 9.91103C8.59414 9.83748 8.32204 9.76394 8.05052 9.69039C7.779 9.61684 7.39782 9.5433 6.87218 9.46975V12.3198H6.8716ZM10.4612 10.8124V10.7942C10.4246 10.7389 10.3521 10.6653 10.2981 10.61C10.2442 10.5547 10.1531 10.4812 10.0626 10.4259C9.99005 10.3706 9.89954 10.3152 9.79047 10.2605C9.68139 10.2058 9.53635 10.1317 9.40987 10.0581C9.33735 10.2052 9.21029 10.4629 9.02928 10.8118C8.86625 11.1613 8.57616 11.5844 8.21355 12.0439C8.66667 11.9703 9.06583 11.805 9.42844 11.5844C9.8276 11.382 10.1716 11.106 10.4617 10.8118L10.4612 10.8124ZM3.71661 10.224V10.2058C3.58955 10.2794 3.38997 10.3711 3.19097 10.4635C2.9734 10.5553 2.73785 10.6659 2.52028 10.813C2.64734 10.9236 2.7744 11.0337 2.88289 11.1072C2.99197 11.199 3.11845 11.2725 3.22752 11.3461C3.4271 11.4749 3.66265 11.6038 3.8982 11.7138C4.13375 11.8238 4.42384 11.9345 4.78645 12.0451C4.65939 11.898 4.56888 11.7138 4.47838 11.5667C4.38787 11.4196 4.2788 11.2725 4.18829 11.1254C4.09778 10.9783 4.02526 10.813 3.95274 10.6659C3.86223 10.5188 3.78971 10.3717 3.71719 10.2246L3.71661 10.224Z" fill="#ECD4FF"/>
</svg>
