<svg width="94" height="94" viewBox="0 0 94 94" fill="none" xmlns="http://www.w3.org/2000/svg">
<rect width="94" height="94" rx="47" fill="#250D2F"/>
<path fill-rule="evenodd" clip-rule="evenodd" d="M20 47C20 32.6406 31.6406 21 45.9999 21H48.9999C57.9854 21 65.9062 25.5581 70.5764 32.4882L60.0536 38.4073C57.4919 35.1167 53.4931 33 48.9999 33H46.9999C39.268 33 33 39.268 33 47C33 54.732 39.268 61 46.9999 61H48.9999C53.4541 61 57.4224 58.92 59.9865 55.6782L69.8875 62.4852C65.1496 68.8656 57.5576 73 48.9999 73H46C31.6406 73 20 61.3594 20 47Z" fill="white"/>
</svg>
