<svg width="26" height="26" viewBox="0 0 26 26" fill="none" xmlns="http://www.w3.org/2000/svg">
<path d="M26 13C26 20.1708 20.1862 26 13 26C5.81376 26 0 20.1862 0 13C0 5.82918 5.81376 0 13 0C20.1862 0 26 5.82918 26 13Z" fill="#F05A28"/>
<path d="M25.2906 12.2594C25.2906 8.63542 23.7794 5.38156 21.3582 3.05297C19.0913 1.15618 16.1922 0.0150146 13 0.0150146C5.82918 0.0150146 0 5.82878 0 13.015C0 14.0945 0.13879 15.1277 0.385528 16.1301C2.02017 21.2807 6.84698 25.0126 12.5374 25.0126C19.5848 25.0126 25.2906 19.2914 25.2906 12.2594Z" fill="#323232"/>
<path d="M17.1019 17.3023C15.8065 16.0069 15.8065 13.8942 17.1019 12.5988C18.3973 11.3035 20.51 11.3035 21.8053 12.5988C23.1007 13.8942 23.1007 16.0069 21.8053 17.3023C21.1731 17.9346 20.3403 18.2738 19.4613 18.2738C18.5669 18.2892 17.7342 17.9346 17.1019 17.3023ZM17.5491 13.0615C16.5005 14.1101 16.5005 15.8064 17.5491 16.8551C18.5669 17.8729 20.3403 17.8729 21.3427 16.8551C22.3913 15.8064 22.3913 14.1101 21.3427 13.0615C20.8184 12.5372 20.1244 12.275 19.4459 12.275C18.7674 12.275 18.0734 12.5372 17.5491 13.0615Z" fill="white"/>
<path d="M16.1776 12.4752C16.2547 12.4752 16.3472 12.4444 16.4089 12.3827C18.0744 10.7172 20.7731 10.7172 22.4385 12.3827C22.5619 12.5061 22.7624 12.5061 22.8857 12.3827C23.0091 12.2593 23.0091 12.0589 22.8857 11.9355C20.9735 10.0233 17.8739 10.0233 15.9617 11.9355C15.8383 12.0589 15.8383 12.2593 15.9617 12.3827C16.0079 12.4444 16.1005 12.4752 16.1776 12.4752Z" fill="white"/>
<path d="M17.4561 14.9584C17.4561 16.0533 18.3505 16.9478 19.4454 16.9478C20.5403 16.9478 21.4347 16.0533 21.4347 14.9584C21.4347 13.8635 20.5403 12.9691 19.4454 12.9691C18.3505 12.9691 17.4561 13.8635 17.4561 14.9584Z" fill="white"/>
<path d="M2.83838 14.958C2.83838 13.1229 4.33423 11.6271 6.16934 11.6271C8.00445 11.6271 9.5003 13.1229 9.5003 14.958C9.5003 16.7931 8.00445 18.289 6.16934 18.289C4.33423 18.289 2.83838 16.7931 2.83838 14.958ZM3.48607 14.958C3.48607 16.4385 4.68891 17.6413 6.16934 17.6413C7.64977 17.6413 8.85261 16.4385 8.85261 14.958C8.85261 13.4776 7.64977 12.2748 6.16934 12.2748C4.68891 12.2748 3.48607 13.4776 3.48607 14.958Z" fill="white"/>
<path d="M4.24023 14.9585C4.24023 16.0226 5.10382 16.8862 6.16787 16.8862C7.23193 16.8862 8.09551 16.0226 8.09551 14.9585C8.09551 13.8945 7.23193 13.0309 6.16787 13.0309C5.10382 13.0309 4.24023 13.8945 4.24023 14.9585Z" fill="white"/>
<path d="M17.8733 8.2968C17.8733 9.02159 19.1224 9.62301 19.8472 9.62301C20.572 9.62301 20.5103 9.03701 20.5103 8.2968C20.5103 7.572 20.572 6.97058 19.8472 6.97058C19.1224 6.97058 17.8733 7.55658 17.8733 8.2968Z" fill="white"/>
<path d="M19.4931 15.2821C19.5239 15.2821 19.5702 15.2821 19.601 15.2667C19.7707 15.205 19.8478 15.0353 19.8015 14.8657L16.7173 5.99857C16.671 5.8752 16.5476 5.78267 16.4243 5.78267L13.6793 5.75183C13.5097 5.75183 13.3709 5.89062 13.3555 6.06025C13.3555 6.22989 13.4943 6.3841 13.6639 6.3841L16.193 6.41494L19.2001 15.0662C19.2309 15.1896 19.3543 15.2821 19.4931 15.2821Z" fill="white"/>
<path d="M11.8586 10.5018C13.2773 10.2396 14.3105 8.97506 16.7625 7.72595C17.0246 8.28111 17.1788 8.68206 17.5027 9.57649C15.9452 10.1316 15.097 11.1957 13.3544 14.0949C12.7067 15.1589 11.766 15.3902 11.18 14.2337C9.93092 11.7354 7.95701 9.74612 4.41016 10.656C6.72332 9.62275 9.68418 10.9027 11.8586 10.5018Z" fill="white"/>
<path d="M12.1048 15.3133C11.7656 15.2978 11.2875 15.1282 10.9174 14.388C9.37531 11.3192 7.3243 10.2397 4.48682 10.9645C4.33261 11.0108 4.1784 10.9182 4.13213 10.7795C4.08587 10.6252 4.14755 10.471 4.28634 10.4093C5.72051 9.76166 7.3243 9.96214 8.88184 10.1472C9.94589 10.2706 10.9328 10.3939 11.7964 10.2397C12.5212 10.1009 13.1843 9.65371 14.0016 9.08313C14.6802 8.6205 15.5129 8.04992 16.6232 7.49476C16.7003 7.46392 16.7774 7.44849 16.8546 7.47934C16.9317 7.51018 16.9933 7.55644 17.0242 7.63355C17.3018 8.20413 17.456 8.60508 17.7798 9.51492C17.8107 9.59203 17.8107 9.66914 17.7644 9.74624C17.7336 9.82335 17.6719 9.86961 17.5948 9.90045C16.1298 10.4248 15.3124 11.458 13.6007 14.2955C13.1997 14.9586 12.66 15.3441 12.1357 15.3441C12.1357 15.3133 12.1203 15.3133 12.1048 15.3133ZM16.6232 8.14244C15.698 8.63592 14.9886 9.11398 14.3563 9.54577C13.4619 10.1472 12.768 10.6252 11.9198 10.7949C10.9791 10.9645 9.93047 10.8411 8.82015 10.7178C8.68136 10.7023 8.54257 10.6869 8.40378 10.6715C9.60663 11.2884 10.6244 12.4295 11.4572 14.1104C11.596 14.3726 11.8118 14.6964 12.1357 14.7118C12.4441 14.7273 12.8142 14.4343 13.1072 13.9562C14.8035 11.165 15.6671 10.0392 17.1321 9.4224C16.9162 8.85182 16.7929 8.51255 16.6232 8.14244Z" fill="white"/>
</svg>
