<svg width="113" height="23" viewBox="0 0 113 23" fill="none" xmlns="http://www.w3.org/2000/svg">
<path d="M14.5753 7.5C14.483 7.12358 14.3374 6.79332 14.1385 6.50923C13.9397 6.21804 13.6911 5.97301 13.3928 5.77415C13.1016 5.56818 12.7607 5.41548 12.3701 5.31605C11.9865 5.20952 11.5639 5.15625 11.1023 5.15625C10.108 5.15625 9.25926 5.39418 8.55613 5.87003C7.86011 6.34588 7.32744 7.03125 6.95812 7.92614C6.5959 8.82102 6.41479 9.90057 6.41479 11.1648C6.41479 12.4432 6.5888 13.5369 6.93681 14.446C7.28482 15.3551 7.80329 16.0511 8.49221 16.5341C9.18113 17.017 10.037 17.2585 11.0597 17.2585C11.9617 17.2585 12.711 17.1271 13.3076 16.8643C13.9112 16.6016 14.3622 16.2287 14.6605 15.7457C14.9588 15.2628 15.108 14.6946 15.108 14.0412L16.1307 14.1477H11.1449V9.92898H20.8182V12.9545C20.8182 14.9432 20.3956 16.6442 19.5504 18.0575C18.7124 19.4638 17.5547 20.5433 16.0774 21.2962C14.6073 22.0419 12.9205 22.4148 11.0171 22.4148C8.89349 22.4148 7.02914 21.9638 5.42403 21.0618C3.81891 20.1598 2.56536 18.8743 1.66337 17.2053C0.768488 15.5362 0.321045 13.5511 0.321045 11.25C0.321045 9.44602 0.594482 7.84801 1.14136 6.45597C1.69533 5.06392 2.46238 3.88849 3.44249 2.92969C4.42261 1.96378 5.55542 1.2358 6.84093 0.745738C8.12644 0.248579 9.50428 0 10.9745 0C12.2671 0 13.4674 0.184659 14.5753 0.553978C15.6904 0.916193 16.674 1.43466 17.5263 2.10938C18.3857 2.77699 19.0781 3.56889 19.6037 4.48509C20.1293 5.40128 20.4489 6.40625 20.5625 7.5H14.5753Z" fill="white"/>
<path d="M31.5489 22.4148C29.7733 22.4148 28.2534 22.0632 26.9892 21.3601C25.725 20.6499 24.7555 19.6626 24.0808 18.3984C23.4061 17.1271 23.0687 15.6534 23.0687 13.9773C23.0687 12.3011 23.4061 10.831 24.0808 9.56676C24.7555 8.29545 25.725 7.30824 26.9892 6.60511C28.2534 5.89489 29.7733 5.53977 31.5489 5.53977C33.3244 5.53977 34.8443 5.89489 36.1085 6.60511C37.3727 7.30824 38.3422 8.29545 39.0169 9.56676C39.6916 10.831 40.029 12.3011 40.029 13.9773C40.029 15.6534 39.6916 17.1271 39.0169 18.3984C38.3422 19.6626 37.3727 20.6499 36.1085 21.3601C34.8443 22.0632 33.3244 22.4148 31.5489 22.4148ZM31.5915 18.0682C32.0886 18.0682 32.5183 17.9013 32.8805 17.5675C33.2427 17.2337 33.5233 16.7578 33.7221 16.1399C33.921 15.522 34.0204 14.7869 34.0204 13.9347C34.0204 13.0753 33.921 12.3402 33.7221 11.7294C33.5233 11.1115 33.2427 10.6357 32.8805 10.3018C32.5183 9.96804 32.0886 9.80114 31.5915 9.80114C31.0659 9.80114 30.6149 9.96804 30.2385 10.3018C29.8621 10.6357 29.5744 11.1115 29.3756 11.7294C29.1767 12.3402 29.0773 13.0753 29.0773 13.9347C29.0773 14.7869 29.1767 15.522 29.3756 16.1399C29.5744 16.7578 29.8621 17.2337 30.2385 17.5675C30.6149 17.9013 31.0659 18.0682 31.5915 18.0682Z" fill="white"/>
<path d="M53.0261 14.9574V5.75284H58.9068V22.1165H53.3244V19.0057H53.154C52.7989 20.0497 52.1774 20.8665 51.2896 21.456C50.4018 22.0384 49.3471 22.3295 48.1256 22.3295C46.9821 22.3295 45.9807 22.0668 45.1213 21.5412C44.269 21.0156 43.605 20.2912 43.1291 19.3679C42.6604 18.4446 42.4224 17.3864 42.4153 16.1932V5.75284H48.296V14.9574C48.3031 15.767 48.5091 16.4027 48.9139 16.8643C49.3258 17.326 49.9011 17.5568 50.6398 17.5568C51.1298 17.5568 51.5524 17.4538 51.9075 17.2479C52.2697 17.0348 52.5467 16.7365 52.7385 16.353C52.9373 15.9624 53.0332 15.4972 53.0261 14.9574Z" fill="white"/>
<path d="M67.7784 0.298295V22.1165H61.8978V0.298295H67.7784Z" fill="white"/>
<path d="M75.3344 22.3722C74.2903 22.3722 73.367 22.2017 72.5645 21.8608C71.769 21.5128 71.144 20.9872 70.6895 20.2841C70.2349 19.581 70.0077 18.6861 70.0077 17.5994C70.0077 16.7045 70.1604 15.9411 70.4658 15.3089C70.7711 14.6697 71.1973 14.1477 71.7442 13.7429C72.291 13.3381 72.9267 13.0291 73.6511 12.8161C74.3827 12.603 75.171 12.4645 76.0162 12.4006C76.9324 12.3295 77.6675 12.2443 78.2214 12.1449C78.7825 12.0384 79.1873 11.8928 79.4359 11.7081C79.6845 11.5163 79.8088 11.2642 79.8088 10.9517V10.9091C79.8088 10.483 79.6454 10.1563 79.3187 9.92898C78.992 9.7017 78.573 9.58807 78.0616 9.58807C77.5006 9.58807 77.0425 9.71236 76.6873 9.96094C76.3393 10.2024 76.1298 10.5753 76.0588 11.0795H70.6469C70.7179 10.0852 71.0339 9.16903 71.595 8.33097C72.1632 7.4858 72.9906 6.81108 74.0773 6.30682C75.1639 5.79546 76.5204 5.53977 78.1469 5.53977C79.3187 5.53977 80.3699 5.67827 81.3003 5.95526C82.2307 6.22514 83.0226 6.60511 83.676 7.09517C84.3294 7.57813 84.8265 8.14631 85.1675 8.79972C85.5155 9.44602 85.6895 10.1491 85.6895 10.9091V22.1165H80.1923V19.8153H80.0645C79.7378 20.4261 79.34 20.9197 78.8713 21.2962C78.4096 21.6726 77.8805 21.946 77.2839 22.1165C76.6944 22.2869 76.0446 22.3722 75.3344 22.3722ZM77.252 18.6648C77.6994 18.6648 78.1185 18.5724 78.5091 18.3878C78.9068 18.2031 79.23 17.9368 79.4785 17.5888C79.7271 17.2408 79.8514 16.8182 79.8514 16.321V14.9574C79.6952 15.0213 79.5283 15.0817 79.3507 15.1385C79.1802 15.1953 78.9956 15.2486 78.7967 15.2983C78.605 15.348 78.399 15.3942 78.1788 15.4368C77.9658 15.4794 77.742 15.5185 77.5077 15.554C77.0531 15.625 76.6802 15.7422 76.3891 15.9055C76.105 16.0618 75.8919 16.2571 75.7498 16.4915C75.6149 16.7188 75.5474 16.9744 75.5474 17.2585C75.5474 17.7131 75.7072 18.0611 76.0268 18.3026C76.3464 18.544 76.7548 18.6648 77.252 18.6648Z" fill="white"/>
<path d="M88.4993 22.1165V5.75284H94.2095V8.86364H94.38C94.6783 7.71307 95.1506 6.87145 95.7969 6.33878C96.4503 5.80611 97.2138 5.53977 98.0874 5.53977C98.3431 5.53977 98.5952 5.56108 98.8438 5.60369C99.0995 5.63921 99.3445 5.69247 99.5789 5.76349V10.7812C99.2877 10.6818 98.929 10.6072 98.5029 10.5575C98.0767 10.5078 97.711 10.483 97.4056 10.483C96.8303 10.483 96.3118 10.6143 95.8502 10.8771C95.3956 11.1328 95.037 11.495 94.7742 11.9638C94.5114 12.4254 94.38 12.9688 94.38 13.5938V22.1165H88.4993Z" fill="white"/>
<path d="M111.939 5.75284V10.0142H101.158V5.75284H111.939ZM103.246 1.83239H109.127V16.8537C109.127 17.081 109.166 17.2727 109.244 17.429C109.322 17.5781 109.443 17.6918 109.606 17.7699C109.77 17.8409 109.979 17.8764 110.235 17.8764C110.412 17.8764 110.618 17.8551 110.853 17.8125C111.094 17.7699 111.272 17.7344 111.385 17.706L112.238 21.8395C111.975 21.9176 111.599 22.0135 111.109 22.1271C110.626 22.2408 110.05 22.3153 109.383 22.3509C108.033 22.4219 106.9 22.2834 105.984 21.9354C105.068 21.5803 104.379 21.0227 103.917 20.2628C103.456 19.5028 103.232 18.5511 103.246 17.4077V1.83239Z" fill="white"/>
</svg>
