<svg width="14" height="14" viewBox="0 0 14 14" fill="none" xmlns="http://www.w3.org/2000/svg">
<rect width="14" height="14" rx="7" fill="white"/>
<rect width="14" height="14" rx="7" fill="black" fill-opacity="0.1"/>
<path d="M7.00018 2C4.23858 2 2 4.23858 2 7.00018C2 9.76178 4.23858 12 7.00018 12H7.00056C7.4434 11.9996 7.80195 11.6411 7.80195 11.1982C7.80195 10.7554 7.44827 10.4013 7.00955 10.3965H6.99082C5.11903 10.3912 3.60354 8.87272 3.60354 7.00018C3.60354 5.12764 5.12427 3.60354 7.00018 3.60354C8.87609 3.60354 10.3965 5.12427 10.3965 7.00018C10.3965 7.44265 10.7558 7.80158 11.1982 7.80158C11.6407 7.80158 12 7.44265 12 7.00018C12 4.23858 9.76141 2 7.00018 2Z" fill="#2D22CB"/>
<path d="M10.1445 11.1933C10.7243 11.1933 11.1943 10.7233 11.1943 10.1435C11.1943 9.56376 10.7243 9.09375 10.1445 9.09375C9.56473 9.09375 9.09473 9.56376 9.09473 10.1435C9.09473 10.7233 9.56473 11.1933 10.1445 11.1933Z" fill="#2D22CB"/>
<path d="M9.09954 7.00045C9.09954 8.15964 8.1599 9.09891 7.0007 9.09929H7.00033C5.84076 9.09929 4.90112 8.15964 4.90112 7.00045C4.90112 5.84126 5.84076 4.90125 7.00033 4.90125C8.1599 4.90125 9.09954 5.84089 9.09954 7.00045Z" fill="#2D22CB"/>
</svg>
