<svg width="13" height="6" viewBox="0 0 13 6" fill="none" xmlns="http://www.w3.org/2000/svg">
<path d="M5.05724 2.09665H3.57167C3.56114 1.97373 3.53304 1.86222 3.48739 1.76213C3.44349 1.66204 3.38203 1.576 3.30301 1.504C3.22574 1.43025 3.1318 1.37406 3.02117 1.33543C2.91054 1.29504 2.78499 1.27484 2.64451 1.27484C2.39867 1.27484 2.19059 1.33455 2.02026 1.45396C1.85169 1.57336 1.7235 1.74457 1.6357 1.96758C1.54966 2.19059 1.50663 2.45838 1.50663 2.77094C1.50663 3.10107 1.55053 3.37764 1.63833 3.60065C1.72789 3.8219 1.85695 3.98872 2.02553 4.1011C2.1941 4.21173 2.39692 4.26704 2.63398 4.26704C2.76919 4.26704 2.89035 4.25036 2.99747 4.217C3.10458 4.18188 3.19765 4.13183 3.27667 4.06686C3.35569 4.00189 3.41978 3.92375 3.46895 3.83244C3.51987 3.73937 3.55411 3.63489 3.57167 3.51899L5.05724 3.52953C5.03968 3.75781 4.97558 3.99047 4.86496 4.22753C4.75433 4.46283 4.59717 4.68058 4.39347 4.88076C4.19153 5.07919 3.94131 5.23898 3.64279 5.36014C3.34427 5.48131 2.99747 5.54189 2.60237 5.54189C2.10718 5.54189 1.66292 5.43565 1.26958 5.22318C0.877992 5.0107 0.568061 4.69814 0.339783 4.28548C0.113261 3.87282 0 3.36798 0 2.77094C0 2.1704 0.115895 1.66467 0.347685 1.25377C0.579475 0.841117 0.89204 0.529429 1.28538 0.318711C1.67872 0.106237 2.11772 0 2.60237 0C2.94303 0 3.25647 0.0465335 3.5427 0.139601C3.82892 0.232668 4.08003 0.368757 4.29602 0.547867C4.512 0.725222 4.68584 0.943842 4.81754 1.20373C4.94924 1.46361 5.02914 1.76125 5.05724 2.09665Z" fill="white"/>
<path d="M9.22484 1.85432C9.20202 1.76125 9.16602 1.6796 9.11685 1.60936C9.06769 1.53736 9.00623 1.47678 8.93247 1.42762C8.86048 1.37669 8.77619 1.33894 8.67961 1.31435C8.58479 1.28801 8.48031 1.27484 8.36617 1.27484C8.12033 1.27484 7.91049 1.33367 7.73665 1.45132C7.56456 1.56897 7.43286 1.73842 7.34155 1.95968C7.252 2.18093 7.20722 2.44784 7.20722 2.76041C7.20722 3.07648 7.25024 3.34691 7.33628 3.57167C7.42233 3.79644 7.55051 3.96853 7.72084 4.08793C7.89117 4.20734 8.10277 4.26704 8.35563 4.26704C8.57864 4.26704 8.7639 4.23456 8.9114 4.16959C9.06066 4.10461 9.17217 4.01242 9.24592 3.89302C9.31967 3.77361 9.35654 3.63313 9.35654 3.47158L9.60941 3.49792H8.3767V2.45487H10.7684V3.20292C10.7684 3.69459 10.6639 4.11515 10.4549 4.46459C10.2477 4.81228 9.96148 5.07919 9.59624 5.26532C9.23275 5.4497 8.8157 5.54189 8.3451 5.54189C7.82006 5.54189 7.35911 5.43038 6.96226 5.20737C6.56541 4.98436 6.25548 4.66653 6.03247 4.25387C5.81121 3.84122 5.70058 3.35042 5.70058 2.78148C5.70058 2.33546 5.76819 1.94036 5.9034 1.59619C6.04037 1.25202 6.23001 0.961402 6.47234 0.724344C6.71467 0.48553 6.99475 0.305541 7.31258 0.184378C7.63041 0.0614594 7.97107 0 8.33456 0C8.65415 0 8.95091 0.0456556 9.22484 0.136967C9.50053 0.226522 9.74374 0.354709 9.95446 0.521527C10.1669 0.68659 10.3381 0.882382 10.4681 1.1089C10.598 1.33543 10.677 1.5839 10.7051 1.85432H9.22484Z" fill="white"/>
<path d="M12.2629 5.55238C12.0592 5.55238 11.8845 5.48126 11.7388 5.33903C11.5948 5.19504 11.5237 5.02032 11.5254 4.81487C11.5237 4.61469 11.5948 4.44348 11.7388 4.30124C11.8845 4.15901 12.0592 4.08789 12.2629 4.08789C12.4561 4.08789 12.6264 4.15901 12.7739 4.30124C12.9232 4.44348 12.9987 4.61469 13.0004 4.81487C12.9987 4.95183 12.9627 5.07651 12.8925 5.18889C12.824 5.29952 12.7344 5.3882 12.6238 5.45492C12.5132 5.5199 12.3929 5.55238 12.2629 5.55238Z" fill="#1ABBC9"/>
</svg>
